<?xml version="1.0" standalone="no"?>
<!DOCTYPE svg PUBLIC "-//W3C//DTD SVG 1.1//EN" "http://www.w3.org/Graphics/SVG/1.1/DTD/svg11.dtd" >
<svg xmlns="http://www.w3.org/2000/svg" xmlns:xlink="http://www.w3.org/1999/xlink" version="1.1">
<metadata>
Created by FontForge 20170731 at Fri Jan  3 15:28:22 2020
 By Aleksey,,,
Copyright 2017-2019 The Inter project authors
</metadata>
<defs>
<font id="Inter-Bold" horiz-adv-x="1751" >
  <font-face 
    font-family="Inter"
    font-weight="700"
    font-stretch="normal"
    units-per-em="2816"
    panose-1="2 11 8 2 3 0 0 0 0 4"
    ascent="2252"
    descent="-564"
    x-height="1536"
    cap-height="2048"
    bbox="-1599 -1152 4650 3077"
    underline-thickness="269"
    underline-position="-837"
    unicode-range="U+0020-A7FF"
  />
<missing-glyph horiz-adv-x="2956" 
d="M291 -640v512h2374v-512h-2374zM291 64v512h2374v-512h-2374zM291 768v512h2374v-512h-2374zM291 1472v512h2374v-512h-2374zM291 2176v512h2374v-512h-2374z" />
    <glyph glyph-name=".notdef" horiz-adv-x="2956" 
d="M291 -640v512h2374v-512h-2374zM291 64v512h2374v-512h-2374zM291 768v512h2374v-512h-2374zM291 1472v512h2374v-512h-2374zM291 2176v512h2374v-512h-2374z" />
    <glyph glyph-name=".null" horiz-adv-x="0" 
 />
    <glyph glyph-name="nonmarkingreturn" horiz-adv-x="938" 
 />
    <glyph glyph-name="uni0020" unicode=" " horiz-adv-x="653" 
 />
    <glyph glyph-name="uni0021" unicode="!" horiz-adv-x="914" 
d="M679 2048l-39 -1434h-366l-40 1434h445zM457 -26q-99 0 -170 70t-70 170q-1 98 70 168t170 70q96 0 167.5 -70t72.5 -168q-1 -100 -72.5 -170t-167.5 -70z" />
    <glyph glyph-name="uni0022" unicode="&#x22;" horiz-adv-x="1105" 
d="M140 1270zM444 2048v-778h-304v778h304zM961 2048v-778h-304v778h304z" />
    <glyph glyph-name="uni0023" unicode="#" horiz-adv-x="1829" 
d="M946 0l83 508h-400l-83 -508h-320l83 508h-280l53 320h280l64 392h-280l54 320h279l83 508h320l-83 -508h400l83 508h320l-83 -508h281l-54 -320h-280l-64 -392h280l-53 -320h-280l-83 -508h-320zM682 828h400l64 392h-400z" />
    <glyph glyph-name="uni0024" unicode="$" horiz-adv-x="1844" 
d="M809 -256l2 232q-318 27 -504.5 195.5t-194.5 471.5h419q9 -125 85.5 -200t198.5 -98l5 529l-96 24q-259 62 -409 197t-149 361q-1 170 84 302t235 213t346 100l2 233h236l-2 -235q289 -31 461 -196.5t176 -413.5h-415q-19 193 -226 242l-4 -500l59 -14
q178 -40 316.5 -116t218 -195.5t79.5 -290.5q-1 -260 -180.5 -422.5t-504.5 -187.5l-2 -231h-236zM1051 345q113 23 178 86.5t66 154.5q-1 85 -62.5 137.5t-177.5 88.5zM823 1262l4 442q-105 -22 -161 -80.5t-56 -138.5q-2 -86 59 -138.5t154 -84.5z" />
    <glyph glyph-name="uni0025" unicode="%" horiz-adv-x="2420" 
d="M1287 384v108q1 123 53 226.5t153 166t245 62.5q147 0 247.5 -62t152.5 -165.5t51 -227.5v-108q1 -123 -51.5 -226.5t-153.5 -166t-246 -62.5q-146 0 -246.5 62.5t-152 166t-52.5 226.5zM236 1556v108q1 124 53.5 227.5t153 165.5t243.5 62q148 0 248.5 -62t152.5 -165.5
t51 -227.5v-108q1 -124 -51.5 -227t-153.5 -164.5t-247 -61.5t-246 62t-151.5 165t-52.5 226zM334 0l1408 2048h261l-1408 -2048h-261zM1578 492v-108q1 -71 35 -134t125 -63q92 0 125.5 62t32.5 135v108q1 74 -31 136.5t-127 62.5q-90 0 -124.5 -62.5t-35.5 -136.5z
M529 1664v-108q1 -73 35 -135t122 -62q92 0 126 62t33 135v108q1 74 -31.5 136.5t-127.5 62.5q-89 0 -122.5 -64t-34.5 -135z" />
    <glyph glyph-name="uni0026" unicode="&#x26;" horiz-adv-x="1898" 
d="M798 -30q-213 0 -366.5 76t-236 206.5t-82.5 291.5q0 178 103 299t270 236q-80 102 -137.5 218t-57.5 252q0 149 70 268t195.5 188.5t293.5 69.5q165 0 284 -66t183.5 -176t64.5 -241q0 -145 -71.5 -262.5t-200.5 -210.5l-120 -86l338 -388q40 76 63.5 165t23.5 189h353
q0 -208 -50.5 -370t-135.5 -276l308 -353h-444l-124 138q-113 -88 -251.5 -128t-272.5 -40zM1092 394l-388 432l-12 -8q-85 -61 -125.5 -126t-40.5 -124q0 -109 80 -182.5t213 -73.5q140 0 273 82zM785 1276l107 70q149 95 149 222q0 61 -49 113t-139 51q-89 -1 -143 -57
t-54 -133q0 -64 36 -129t93 -137z" />
    <glyph glyph-name="uni0027" unicode="'" horiz-adv-x="588" 
d="M444 2048v-778h-304v778h304z" />
    <glyph glyph-name="uni0028" unicode="(" horiz-adv-x="1152" 
d="M264 821q0 738 404 1265h407q-104 -132 -187.5 -338.5t-132 -448t-48.5 -478.5t48.5 -478.5t132 -448.5t187.5 -339h-407q-404 527 -404 1266z" />
    <glyph glyph-name="uni0029" unicode=")" horiz-adv-x="1152" 
d="M77 0zM888 821q0 -738 -404 -1265h-407q104 132 187.5 338.5t132 448t48.5 478.5t-48.5 478.5t-132 448.5t-187.5 339h407q404 -527 404 -1266z" />
    <glyph glyph-name="uni002A" unicode="*" horiz-adv-x="1590" 
d="M661 896l25 387l-324 -217l-134 236l349 170l-349 170l134 236l324 -217l-25 387h269l-26 -387l324 217l134 -236l-348 -170l348 -170l-134 -236l-324 217l26 -387h-269z" />
    <glyph glyph-name="uni002B" unicode="+" horiz-adv-x="1894" 
d="M768 121v521h-521v358h521v521h358v-521h521v-358h-521v-521h-358z" />
    <glyph glyph-name="uni002C" unicode="," horiz-adv-x="853" 
d="M633 280l-11 -110q-13 -132 -49.5 -263.5t-76 -238.5t-63.5 -168h-276q15 59 41 164t49 236.5t29 267.5l5 112h352z" />
    <glyph glyph-name="uni002D" unicode="-" horiz-adv-x="1320" 
d="M1127 1010v-338h-934v338h934z" />
    <glyph glyph-name="uni002E" unicode="." horiz-adv-x="838" 
d="M419 -26q-99 0 -170 70t-70 170q-1 98 70 168t170 70q96 0 167.5 -70t72.5 -168q-1 -100 -72.5 -170t-167.5 -70z" />
    <glyph glyph-name="uni002F" unicode="/" horiz-adv-x="1098" 
d="M1062 2144l-660 -2452h-367l660 2452h367z" />
    <glyph glyph-name="uni0030" unicode="0" horiz-adv-x="1938" 
d="M969 -45q-258 1 -443.5 127t-285 365t-98.5 575q1 503 221.5 778.5t605.5 275.5q257 0 442.5 -124t285.5 -359.5t99 -570.5q-1 -506 -221 -786.5t-606 -280.5zM969 314q176 0 281 177t104 531q0 349 -105 524t-280 175t-280 -175t-106 -524q-1 -354 104.5 -531
t281.5 -177z" />
    <glyph glyph-name="uni0031" unicode="1" horiz-adv-x="1335" 
d="M1014 2048v-2048h-432v1518h-19q-33 -51 -140 -101.5t-277 -50.5v344q132 0 231 58.5t155 138t58 141.5h424z" />
    <glyph glyph-name="uni0032" unicode="2" horiz-adv-x="1774" 
d="M166 0v312l729 675q140 134 213 233t73 221q0 135 -89.5 213.5t-224.5 78.5q-140 0 -225.5 -84.5t-84.5 -231.5h-411q0 201 91 349t254.5 229t378.5 81q220 0 383.5 -77.5t254.5 -214t91 -314.5q0 -116 -46 -229t-161.5 -250.5t-326.5 -329.5l-299 -293v-14h860v-354
h-1460z" />
    <glyph glyph-name="uni0033" unicode="3" horiz-adv-x="1857" 
d="M923 -28q-225 0 -399 77t-274 214t-104 316h436q6 -112 102.5 -181t239.5 -69q149 0 243.5 76.5t93.5 198.5q1 124 -100.5 202.5t-275.5 78.5h-191v318h191q148 0 241 74.5t92 195.5q1 116 -79.5 188t-211.5 72q-133 0 -227 -70t-98 -187h-415q3 177 101 312.5
t264.5 211.5t376.5 76q212 0 371 -77t247.5 -207.5t87.5 -292.5q1 -172 -106.5 -287t-279.5 -146v-16q226 -28 344.5 -156t117.5 -319q1 -175 -100.5 -311t-279.5 -214t-408 -78z" />
    <glyph glyph-name="uni0034" unicode="4" horiz-adv-x="1909" 
d="M135 360v341l855 1347h542v-1341h254v-347h-254v-360h-414v360h-983zM1126 707v869h-16l-539 -853v-16h555z" />
    <glyph glyph-name="uni0035" unicode="5" horiz-adv-x="1815" 
d="M914 -28q-212 0 -378 78t-262.5 215t-100.5 314h420q8 -119 100 -193t221 -74q152 0 250 100t98 260q0 161 -99.5 262.5t-254.5 102.5q-91 0 -175 -37t-131 -101l-385 69l97 1080h1252v-354h-895l-53 -513h12q54 76 163 126t244 50q185 0 330 -87t229 -239t83 -348
q1 -207 -95.5 -367.5t-269 -252t-400.5 -91.5z" />
    <glyph glyph-name="uni0036" unicode="6" horiz-adv-x="1859" 
d="M952 -28q-158 1 -304 53.5t-262 169t-183.5 309.5t-68.5 474q1 347 104 594t289.5 378.5t439.5 131.5q205 0 361.5 -80t252.5 -217t116 -309h-427q-25 113 -105 174t-198 61q-200 0 -303.5 -174.5t-105.5 -478.5h14q69 136 208 212.5t308 76.5q182 0 324.5 -85.5
t224.5 -234.5t81 -341q1 -208 -96 -370t-269.5 -253.5t-400.5 -90.5zM950 312q150 0 249.5 104t98.5 258q1 152 -97 256t-248 104q-99 0 -178.5 -49t-125.5 -130.5t-47 -181.5q0 -100 45.5 -182t124 -130.5t178.5 -48.5z" />
    <glyph glyph-name="uni0037" unicode="7" horiz-adv-x="1675" 
d="M247 0l849 1680v14h-989v354h1437v-359l-850 -1689h-447z" />
    <glyph glyph-name="uni0038" unicode="8" horiz-adv-x="1861" 
d="M930 -28q-231 0 -410.5 75.5t-281.5 206.5t-102 297q0 128 58.5 235.5t159.5 179t226 91.5v14q-163 33 -266 159.5t-102 294.5q0 159 93 283.5t255.5 196t369.5 71.5t369.5 -71.5t256 -196t93.5 -283.5q-1 -169 -104 -295t-264 -159v-14q123 -20 223.5 -91.5t160.5 -179
t60 -235.5q0 -166 -102.5 -297t-282 -206.5t-410.5 -75.5zM930 290q154 0 249 82.5t95 212.5q0 133 -97.5 219t-246.5 86t-246.5 -86t-97.5 -219q0 -130 95 -212.5t249 -82.5zM930 1205q129 0 212.5 77t83.5 198q0 119 -82.5 194.5t-213.5 75.5t-213.5 -75t-82.5 -195
q0 -121 83 -198t213 -77z" />
    <glyph glyph-name="uni0039" unicode="9" horiz-adv-x="1859" 
d="M907 2082q158 0 304.5 -52.5t262 -169.5t183.5 -309.5t68 -473.5q0 -347 -103 -594.5t-289.5 -379t-440.5 -131.5q-205 0 -362 79.5t-252.5 217t-115.5 309.5h427q25 -112 105 -173.5t198 -61.5q200 0 304 174.5t105 478.5h-14q-68 -135 -207.5 -212t-308.5 -77
q-181 0 -324 85.5t-224.5 234.5t-80.5 341q-1 208 95 369.5t268.5 253.5t401.5 91zM910 1742q-151 0 -250 -104t-98 -258q-1 -152 96.5 -255.5t247.5 -103.5q99 0 178.5 49t126 131t47.5 181q-1 99 -46.5 180.5t-123.5 130.5t-178 49z" />
    <glyph glyph-name="uni003A" unicode=":" horiz-adv-x="838" 
d="M178 0zM419 -26q-99 0 -170 70t-70 170q-1 98 70 168t170 70q96 0 167.5 -70t72.5 -168q-1 -100 -72.5 -170t-167.5 -70zM419 1049q-99 0 -170 70t-70 170q-1 98 70 168t170 70q96 0 167.5 -70t72.5 -168q-1 -100 -72.5 -170t-167.5 -70z" />
    <glyph glyph-name="uni003B" unicode=";" horiz-adv-x="848" 
d="M157 0zM633 280l-11 -110q-13 -132 -49.5 -263.5t-76 -238.5t-63.5 -168h-276q15 59 41 164t49 236.5t29 267.5l5 112h352zM455 1049q-99 0 -170 70t-70 170q-1 98 70 168t170 70q96 0 167.5 -70t72.5 -168q-1 -100 -72.5 -170t-167.5 -70z" />
    <glyph glyph-name="uni003C" unicode="&#x3c;" horiz-adv-x="1894" 
d="M243 643v352l1408 620v-405l-951 -382v-18l951 -382v-405z" />
    <glyph glyph-name="uni003D" unicode="=" horiz-adv-x="1894" 
d="M273 310v355h1349v-355h-1349zM273 974v355h1349v-355h-1349z" />
    <glyph glyph-name="uni003E" unicode="&#x3e;" horiz-adv-x="1894" 
d="M1651 643l-1408 -620v405l951 382v18l-951 382v405l1408 -620v-352z" />
    <glyph glyph-name="uni003F" unicode="?" horiz-adv-x="1584" 
d="M536 614v34q1 175 31.5 279t89 167.5t142.5 116.5q92 59 155 128.5t63 167.5q0 104 -71.5 166.5t-172.5 62.5q-98 0 -175.5 -64t-82.5 -186h-408q5 200 96 331t241 195t331 64q199 0 352 -65.5t240 -189.5t87 -299q0 -176 -84.5 -293t-224.5 -200q-118 -71 -173 -153
t-57 -228v-34h-379zM733 -26q-99 0 -170 70t-70 170q-1 98 70 168t170 70q96 0 167.5 -70t72.5 -168q-1 -100 -72.5 -170t-167.5 -70z" />
    <glyph glyph-name="uni0040" unicode="@" horiz-adv-x="2902" 
d="M1524 2039q398 0 681 -152.5t433.5 -423.5t149.5 -627q1 -245 -58.5 -435.5t-190.5 -303t-347 -124.5q-174 -13 -251.5 49.5t-94.5 165.5h-12q-23 -61 -93.5 -109t-170.5 -74t-214 -20q-158 9 -291 92t-213.5 242.5t-81.5 394.5q1 232 84.5 385t211.5 235.5t261 101.5
q113 17 214 -0.5t170.5 -55t86.5 -81.5h14v112h313v-976q2 -145 112 -145q104 0 157 138t52 431q0 236 -76 399.5t-207 265t-297.5 147.5t-346.5 46q-332 0 -552.5 -131.5t-330 -358.5t-110.5 -513q2 -474 260.5 -726t747.5 -252q173 0 330 34.5t237 67.5l99 -290
q-62 -35 -170 -67t-242 -51.5t-277 -19.5q-425 0 -725 153t-457.5 442t-158.5 697q1 402 160 703t461.5 467.5t732.5 166.5zM1463 1103q-166 0 -256.5 -103t-91.5 -274q1 -106 34 -200t109.5 -153t206.5 -59q184 0 257 105.5t71 309.5q-1 180 -70.5 277t-259.5 97z" />
    <glyph glyph-name="uni0041" unicode="A" horiz-adv-x="2106" 
d="M531 0h-464l707 2048h558l706 -2048h-464l-152 467h-739zM793 805h520l-252 775h-16z" />
    <glyph glyph-name="uni0042" unicode="B" horiz-adv-x="1861" 
d="M178 0v2048h820q339 0 509.5 -147.5t170.5 -377.5q0 -181 -105 -292.5t-265 -147.5v-20q117 -5 219.5 -66t166.5 -170t64 -261q0 -163 -80.5 -291t-237.5 -201.5t-387 -73.5h-875zM611 354h353q182 0 264.5 70t82.5 185q0 127 -90.5 208t-246.5 81h-363v-544zM611 1191
h321q133 0 221 69.5t88 190.5q0 111 -78.5 179t-222.5 68h-329v-507z" />
    <glyph glyph-name="uni0043" unicode="C" horiz-adv-x="2118" 
d="M1985 1331h-438q-25 169 -144 265.5t-297 96.5q-238 0 -381.5 -174.5t-143.5 -494.5q0 -328 144.5 -498.5t377.5 -170.5q173 0 293 90.5t151 254.5l438 -2q-23 -188 -134 -354t-301.5 -269t-453.5 -103q-274 0 -489.5 124t-340 359t-124.5 569q0 335 126 570t342 358.5
t486 123.5q237 0 427.5 -87.5t312 -254t149.5 -403.5z" />
    <glyph glyph-name="uni0044" unicode="D" horiz-adv-x="2048" 
d="M904 0h-726v2048h732q309 0 532.5 -122.5t343.5 -351.5t120 -548q0 -320 -120.5 -550t-345 -353t-536.5 -123zM611 371h275q289 0 438.5 156t149.5 499q0 341 -149.5 496t-437.5 155h-276v-1306z" />
    <glyph glyph-name="uni0045" unicode="E" horiz-adv-x="1725" 
d="M178 0v2048h1380v-357h-947v-488h876v-357h-876v-489h951v-357h-1384z" />
    <glyph glyph-name="uni0046" unicode="F" horiz-adv-x="1647" 
d="M178 0v2048h1356v-357h-923v-488h833v-357h-833v-846h-433z" />
    <glyph glyph-name="uni0047" unicode="G" horiz-adv-x="2142" 
d="M1536 1386q-41 144 -151.5 225.5t-277.5 81.5q-235 0 -380.5 -173.5t-145.5 -493.5q0 -321 143 -496t387 -175q216 0 339.5 112.5t127.5 302.5h-440v326h857v-258q0 -269 -114 -463.5t-313.5 -298.5t-458.5 -104q-288 0 -506 127.5t-339.5 363t-121.5 559.5
q0 332 127 568t344 361t487 125q232 0 420 -88t308 -243.5t148 -358.5h-440z" />
    <glyph glyph-name="uni0048" unicode="H" horiz-adv-x="2101" 
d="M178 0v2048h433v-845h879v845h432v-2048h-432v846h-879v-846h-433z" />
    <glyph glyph-name="uni0049" unicode="I" horiz-adv-x="790" 
d="M611 2048v-2048h-433v2048h433z" />
    <glyph glyph-name="uni004A" unicode="J" horiz-adv-x="1605" 
d="M998 2048h428v-1428q0 -198 -88.5 -343.5t-245.5 -225t-365 -79.5q-185 0 -335.5 66t-238.5 200t-87 338h431q2 -122 70.5 -189.5t181.5 -67.5q247 0 249 301v1428z" />
    <glyph glyph-name="uni004B" unicode="K" horiz-adv-x="1942" 
d="M178 0v2048h433v-903h27l737 903h519l-760 -917l769 -1131h-518l-561 842l-213 -260v-582h-433z" />
    <glyph glyph-name="uni004C" unicode="L" horiz-adv-x="1598" 
d="M178 0v2048h433v-1691h878v-357h-1311z" />
    <glyph glyph-name="uni004D" unicode="M" horiz-adv-x="2602" 
d="M178 2048h534l564 -1376h24l564 1376h534v-2048h-420v1333h-17l-530 -1323h-286l-530 1328h-17v-1338h-420v2048z" />
    <glyph glyph-name="uni004E" unicode="N" horiz-adv-x="2070" 
d="M1891 2048v-2048h-374l-891 1289h-15v-1289h-433v2048h380l884 -1288h18v1288h431z" />
    <glyph glyph-name="uni004F" unicode="O" horiz-adv-x="2202" 
d="M2060 1024q0 -335 -126.5 -570t-343.5 -358.5t-489 -123.5q-273 0 -490 124t-343 359.5t-126 568.5q0 335 126 570t343 358.5t490 123.5q272 0 489 -123.5t343.5 -358.5t126.5 -570zM1621 1024q0 326 -142 497.5t-378 171.5t-378 -171.5t-142 -497.5q0 -325 142 -497
t378 -172t378 172t142 497z" />
    <glyph glyph-name="uni0050" unicode="P" horiz-adv-x="1824" 
d="M178 0v2048h808q233 0 397 -88.5t250.5 -245t86.5 -360.5t-88 -359.5t-254.5 -243t-402.5 -87.5h-364v-664h-433zM611 1011h294q186 0 277.5 95.5t91.5 247.5q0 153 -91.5 246.5t-279.5 93.5h-292v-683z" />
    <glyph glyph-name="uni0051" unicode="Q" horiz-adv-x="2204" 
d="M2060 1024q0 -274 -87 -482t-237 -342l293 -368h-404l-165 203q-167 -63 -359 -63q-273 0 -490 124t-343 359.5t-126 568.5q0 335 126 570t343 358.5t490 123.5q272 0 489 -123.5t343.5 -358.5t126.5 -570zM951 712h368l152 -195q71 85 110.5 212t39.5 295
q0 326 -142 497.5t-378 171.5t-378 -171.5t-142 -497.5q0 -325 142 -497t378 -172q59 0 112 11z" />
    <glyph glyph-name="uni0052" unicode="R" horiz-adv-x="1848" 
d="M178 0v2048h808q349 0 541.5 -182t192.5 -487q0 -210 -93.5 -359t-268.5 -224l435 -796h-478l-388 726h-316v-726h-433zM611 1074h294q369 0 369 305q0 315 -371 315h-292v-620z" />
    <glyph glyph-name="uni0053" unicode="S" horiz-adv-x="1844" 
d="M1289 1459q-12 121 -103.5 188t-246.5 67q-159 0 -244 -65t-85 -164q-2 -110 94.5 -166.5t229.5 -87.5l184 -44q178 -40 316.5 -116t218 -195.5t79.5 -290.5q-1 -281 -210.5 -447.5t-584.5 -166.5q-373 0 -595 170t-230 502h419q11 -154 121.5 -231.5t279.5 -77.5
q165 0 263.5 70t99.5 182q-1 104 -91 160t-257 96l-223 56q-259 62 -409 197t-149 361q-1 186 99.5 325.5t276.5 217t400 77.5q228 0 398.5 -78t265.5 -217t98 -322h-415z" />
    <glyph glyph-name="uni0054" unicode="T" horiz-adv-x="1882" 
d="M100 1691v357h1682v-357h-627v-1691h-428v1691h-627z" />
    <glyph glyph-name="uni0055" unicode="U" horiz-adv-x="2054" 
d="M1446 2048h430v-1354q0 -232 -109 -393.5t-300.5 -245.5t-439.5 -84t-440 84t-300.5 245.5t-108.5 393.5v1354h433v-1339q0 -164 118.5 -258t297.5 -94q182 0 300.5 94t118.5 258v1339z" />
    <glyph glyph-name="uni0056" unicode="V" horiz-adv-x="2106" 
d="M548 2048l495 -1556h19l496 1556h480l-706 -2048h-558l-707 2048h481z" />
    <glyph glyph-name="uni0057" unicode="W" horiz-adv-x="2917" 
d="M639 0l-586 2048h473l339 -1423h17l374 1423h405l373 -1426h18l339 1426h473l-586 -2048h-422l-390 1339h-16l-389 -1339h-422z" />
    <glyph glyph-name="uni0058" unicode="X" horiz-adv-x="2012" 
d="M584 2048l413 -698h16l415 698h489l-625 -1024l639 -1024h-498l-420 699h-16l-420 -699h-496l641 1024l-629 1024h491z" />
    <glyph glyph-name="uni0059" unicode="Y" horiz-adv-x="2040" 
d="M58 2048h485l467 -882h20l467 882h485l-747 -1324v-724h-430v724z" />
    <glyph glyph-name="uni005A" unicode="Z" horiz-adv-x="1878" 
d="M156 0v257l1022 1434h-1024v357h1568v-257l-1023 -1434h1025v-357h-1568z" />
    <glyph glyph-name="uni005B" unicode="[" horiz-adv-x="1152" 
d="M298 -445v2531h789v-318h-377v-1894h377v-319h-789z" />
    <glyph glyph-name="uni005C" unicode="\" horiz-adv-x="1200" 
d="M105 2048h373l613 -2356h-373z" />
    <glyph glyph-name="uni005D" unicode="]" horiz-adv-x="1152" 
d="M65 0zM854 2087v-2531h-789v318h377v1894h-377v319h789z" />
    <glyph glyph-name="uni005E" unicode="^" horiz-adv-x="1373" 
d="M93 1120l421 883h344l422 -883h-322l-263 597h-17l-261 -597h-324z" />
    <glyph glyph-name="uni005F" unicode="_" horiz-adv-x="1342" 
d="M1343 0v-323h-1345v323h1345z" />
    <glyph glyph-name="uni0060" unicode="`" horiz-adv-x="1400" 
d="M1003 1734h-301l-305 455h393z" />
    <glyph glyph-name="uni0061" unicode="a" horiz-adv-x="1634" 
d="M608 -29q-220 0 -365 115t-145 343q0 172 81 270t212.5 143.5t283.5 59.5q200 20 286 42t86 96v6q0 95 -59.5 147t-168.5 52q-115 0 -183 -50t-90 -127l-394 32q44 210 218.5 333t450.5 123q171 0 320 -54t240.5 -168.5t91.5 -297.5v-1036h-404v213h-12
q-56 -107 -167.5 -174.5t-281.5 -67.5zM730 265q140 0 230 81.5t90 202.5v163q-25 -17 -77.5 -30t-112 -22.5t-106.5 -16.5q-112 -16 -180.5 -63t-68.5 -137q0 -88 63.5 -133t161.5 -45z" />
    <glyph glyph-name="uni0062" unicode="b" horiz-adv-x="1789" 
d="M178 0v2048h426v-770h13q29 63 82 127t140 107.5t215 43.5q169 0 310 -87.5t226.5 -263t85.5 -439.5q0 -257 -83 -433.5t-224 -267t-316 -90.5q-124 0 -210.5 41t-141 103.5t-84.5 126.5h-19v-246h-420zM595 768q0 -205 84.5 -329.5t238.5 -124.5q157 0 240 126.5
t83 327.5q0 200 -82.5 324.5t-240.5 124.5q-155 0 -239 -121.5t-84 -327.5z" />
    <glyph glyph-name="uni0063" unicode="c" horiz-adv-x="1654" 
d="M864 -30q-236 0 -405.5 100.5t-260 279.5t-90.5 412q0 236 91.5 414.5t260.5 279t402 100.5q201 0 352.5 -73t239 -205t96.5 -310h-402q-17 115 -89.5 185.5t-189.5 70.5q-148 0 -238 -119t-90 -337q0 -220 89.5 -340.5t238.5 -120.5q110 0 185 66.5t94 189.5h402
q-10 -176 -95.5 -310t-235.5 -208.5t-355 -74.5z" />
    <glyph glyph-name="uni0064" unicode="d" horiz-adv-x="1789" 
d="M736 -25q-175 0 -316 90.5t-224 267t-83 433.5q0 264 85.5 439.5t227 263t309.5 87.5q129 0 215.5 -43.5t140 -107.5t81.5 -127h13v770h425v-2048h-420v246h-18q-29 -64 -84 -126.5t-141.5 -103.5t-210.5 -41zM871 314q154 0 238.5 124.5t84.5 329.5q0 206 -84 327.5
t-239 121.5q-158 0 -240.5 -124.5t-82.5 -324.5q0 -201 83 -327.5t240 -126.5z" />
    <glyph glyph-name="uni0065" unicode="e" horiz-adv-x="1683" 
d="M870 -30q-236 0 -407 96.5t-263 274t-92 420.5q0 237 92 416t259.5 279t393.5 100q203 0 366.5 -86t259.5 -259.5t96 -434.5v-117h-1046v-1q0 -172 94 -271t254 -99q107 0 185 45t110 133l394 -26q-45 -214 -228 -342t-468 -128zM529 923h645q-1 137 -88 226t-226 89
q-142 0 -233 -92t-98 -223z" />
    <glyph glyph-name="uni0066" unicode="f" horiz-adv-x="1100" 
d="M1010 1536v-320h-305v-1216h-426v1216h-217v320h217v111q0 251 143.5 374t360.5 123q98 0 179.5 -15t121.5 -27l-75 -320q-25 8 -62 15t-75 7q-94 0 -130.5 -43.5t-36.5 -121.5v-103h305z" />
    <glyph glyph-name="uni0067" unicode="g" horiz-adv-x="1783" 
d="M862 -598q-310 0 -487 122t-215 296l394 53q26 -62 101.5 -113.5t216.5 -51.5q139 0 229.5 66t90.5 217v281h-18q-42 -95 -148 -172.5t-290 -77.5q-173 0 -314.5 81t-225 247t-83.5 421q0 262 85.5 436t227 261.5t309.5 87.5q129 0 216 -43.5t141 -107.5t82 -127h16v258
h423v-1551q0 -191 -96.5 -321t-265.5 -196t-389 -66zM871 342q154 0 238.5 114t84.5 317q0 202 -84 323t-239 121q-158 0 -240.5 -124t-82.5 -320q0 -199 83 -315t240 -116z" />
    <glyph glyph-name="uni0068" unicode="h" horiz-adv-x="1758" 
d="M596 888v-888h-426v2048h414v-783h18q53 136 168.5 213.5t290.5 77.5q240 0 386 -154t145 -424v-978h-426v902q1 142 -71.5 221t-202.5 79t-212.5 -82.5t-83.5 -231.5z" />
    <glyph glyph-name="uni0069" unicode="i" horiz-adv-x="766" 
d="M154 0zM170 0v1536h426v-1536h-426zM384 1734q-94 0 -162 63.5t-68 152.5t68 152t162 63q95 0 163 -63t68 -152t-68 -152.5t-163 -63.5z" />
    <glyph glyph-name="uni006A" unicode="j" horiz-adv-x="766" 
d="M0 0zM170 1536h426v-1607q0 -267 -156 -387t-433 -113q-17 0 -35.5 0.5t-43.5 1.5v333q17 -1 30 -1.5t26 -0.5q103 0 144.5 43.5t41.5 130.5v1600zM382 1734q-94 0 -162 63.5t-68 152.5t68 152t162 63q95 0 163 -63t68 -152t-68 -152.5t-163 -63.5z" />
    <glyph glyph-name="uni006B" unicode="k" horiz-adv-x="1638" 
d="M170 0v2048h426v-1095h23l492 583h489l-570 -665l599 -871h-499l-419 619l-115 -131v-488h-426z" />
    <glyph glyph-name="uni006C" unicode="l" horiz-adv-x="766" 
d="M596 2048v-2048h-426v2048h426z" />
    <glyph glyph-name="uni006D" unicode="m" horiz-adv-x="2568" 
d="M170 0v1536h406v-271h18q48 136 160.5 213.5t267.5 77.5q158 0 269 -78.5t148 -212.5h16q47 132 170.5 211.5t292.5 79.5q215 0 349.5 -136.5t134.5 -386.5v-1033h-425v949q0 128 -68 192t-170 64q-116 0 -181 -74t-65 -193v-938h-413v958q0 113 -64.5 180t-169.5 67
q-106 0 -178 -77.5t-72 -205.5v-922h-426z" />
    <glyph glyph-name="uni006E" unicode="n" 
d="M596 888v-888h-426v1536h406v-271h18q52 134 171.5 212.5t290.5 78.5q240 0 385 -154.5t145 -423.5v-978h-426v902q1 141 -72 220.5t-201 79.5q-129 0 -209.5 -82.5t-81.5 -231.5z" />
    <glyph glyph-name="uni006F" unicode="o" horiz-adv-x="1728" 
d="M864 -30q-233 0 -402.5 99.5t-261.5 278t-92 414.5q0 238 92 416.5t261.5 278t402.5 99.5t402.5 -99.5t261.5 -278t92 -416.5q0 -236 -92 -414.5t-261.5 -278t-402.5 -99.5zM866 300q158 0 239.5 132t81.5 333t-81.5 333.5t-239.5 132.5q-161 0 -243 -132.5t-82 -333.5
t82 -333t243 -132z" />
    <glyph glyph-name="uni0070" unicode="p" horiz-adv-x="1781" 
d="M170 -576v2112h420v-258h19q29 63 82 127t140 107.5t215 43.5q169 0 310 -87.5t226.5 -263t85.5 -439.5q0 -257 -83 -433.5t-224 -267t-316 -90.5q-124 0 -210.5 41t-141 103.5t-84.5 126.5h-13v-822h-426zM587 768q0 -205 84.5 -329.5t238.5 -124.5q157 0 240 126.5
t83 327.5q0 200 -82.5 324.5t-240.5 124.5q-155 0 -239 -121.5t-84 -327.5z" />
    <glyph glyph-name="uni0071" unicode="q" horiz-adv-x="1781" 
d="M113 0zM1611 -576v2112h-420v-258h-19q-29 63 -82 127t-140 107.5t-215 43.5q-169 0 -310 -87.5t-226.5 -263t-85.5 -439.5q0 -257 83 -433.5t224 -267t316 -90.5q124 0 210.5 41t141 103.5t84.5 126.5h13v-822h426zM1194 768q0 -205 -84.5 -329.5t-238.5 -124.5
q-157 0 -240 126.5t-83 327.5q0 200 82.5 324.5t240.5 124.5q155 0 239 -121.5t84 -327.5z" />
    <glyph glyph-name="uni0072" unicode="r" horiz-adv-x="1207" 
d="M170 0v1536h413v-268h16q42 143 140.5 216.5t228.5 73.5q62 0 115 -15t95 -41l-128 -352q-30 15 -65.5 25.5t-79.5 10.5q-129 0 -218.5 -88t-90.5 -229v-869h-426z" />
    <glyph glyph-name="uni0073" unicode="s" horiz-adv-x="1582" 
d="M1448 1098l-390 -24q-16 74 -81 127t-176 53q-99 0 -167.5 -41.5t-67.5 -110.5q-1 -55 43.5 -93t151.5 -61l278 -56q443 -91 444 -416q0 -151 -88.5 -265t-242.5 -177.5t-353 -63.5q-305 0 -486 127.5t-211 347.5l419 22q20 -94 92.5 -142t186.5 -48q112 0 180.5 44
t69.5 112q-3 114 -197 153l-266 53q-446 89 -444 439q-1 222 177.5 350t473.5 128q291 0 458.5 -123t195.5 -335z" />
    <glyph glyph-name="uni0074" unicode="t" horiz-adv-x="1094" 
d="M987 1536v-320h-289v-744q0 -88 40 -119t104 -31q30 0 60 5.5t46 8.5l67 -317q-32 -10 -90 -23.5t-141 -16.5q-232 -10 -372.5 100.5t-139.5 336.5v800h-210v320h210v368h426v-368h289z" />
    <glyph glyph-name="uni0075" unicode="u" 
d="M1155 654v882h426v-1536h-409v279h-16q-52 -135 -172.5 -217t-293.5 -82q-232 0 -375.5 154.5t-144.5 423.5v978h426v-902q1 -136 73 -215t193 -79q115 0 204.5 80t88.5 234z" />
    <glyph glyph-name="uni0076" unicode="v" horiz-adv-x="1650" 
d="M1602 1536l-537 -1536h-480l-537 1536h450l319 -1099h16l318 1099h451z" />
    <glyph glyph-name="uni0077" unicode="w" horiz-adv-x="2394" 
d="M473 0l-418 1536h431l238 -1032h14l248 1032h423l252 -1026h13l234 1026h430l-417 -1536h-451l-264 966h-19l-264 -966h-450z" />
    <glyph glyph-name="uni0078" unicode="x" horiz-adv-x="1616" 
d="M526 1536l282 -537l289 537h437l-445 -768l457 -768h-435l-303 531l-298 -531h-440l456 768l-440 768h440z" />
    <glyph glyph-name="uni0079" unicode="y" horiz-adv-x="1650" 
d="M418 -598q-91 0 -155.5 15.5t-100.5 31.5l96 330q113 -34 190.5 -18t122.5 121l28 74l-551 1580h448l318 -1128h16l321 1128h451l-600 -1712q-65 -184 -207.5 -303t-376.5 -119z" />
    <glyph glyph-name="uni007A" unicode="z" horiz-adv-x="1610" 
d="M162 0v254l752 931v11h-726v340h1239v-277l-706 -908v-11h732v-340h-1291z" />
    <glyph glyph-name="uni007B" unicode="{" horiz-adv-x="1152" 
d="M1087 -445q-151 0 -278 19t-220 76t-144 168.5t-51 296.5v222q0 154 -67 223t-240 69v384q173 0 240 69t67 223v221q0 185 51 296.5t144 168.5t220 76t278 19v-318q-178 0 -231.5 -69.5t-53.5 -215.5v-292q0 -77 -28.5 -145.5t-105.5 -121.5t-222 -83v-40
q145 -30 222 -83t105.5 -122t28.5 -146v-292q0 -145 53.5 -214.5t231.5 -69.5v-319z" />
    <glyph glyph-name="uni007C" unicode="|" horiz-adv-x="1052" 
d="M728 2708v-3368h-404v3368h404z" />
    <glyph glyph-name="uni007D" unicode="}" horiz-adv-x="1152" 
d="M65 0zM65 2087q151 0 278 -19t220 -76t144 -168.5t51 -296.5v-222q0 -154 67 -223t240 -69v-384q-173 0 -240 -69t-67 -223v-221q0 -185 -51 -296.5t-144 -168.5t-220 -76t-278 -19v318q178 0 231.5 69.5t53.5 215.5v292q0 77 28.5 145.5t105.5 121.5t222 83v40
q-145 30 -222 83t-105.5 122t-28.5 146v292q0 145 -53.5 214.5t-231.5 69.5v319z" />
    <glyph glyph-name="uni007E" unicode="~" horiz-adv-x="1894" 
d="M206 553q-10 284 109 435.5t323 151.5q94 0 179.5 -38.5t195.5 -135.5q57 -50 97 -77t92 -27q71 0 117.5 55.5t42.5 176.5h327q10 -284 -112 -436t-320 -152q-100 0 -186.5 41.5t-191.5 133.5q-62 55 -98.5 79.5t-88.5 24.5q-70 0 -116.5 -53.5t-43.5 -178.5h-326z" />
    <glyph glyph-name="uni00A0" unicode="&#xa0;" horiz-adv-x="653" 
 />
    <glyph glyph-name="uni00A1" unicode="&#xa1;" horiz-adv-x="914" 
d="M216 0zM679 -518l-39 1434h-366l-40 -1434h445zM457 1556q-99 0 -170 -70t-70 -170q-1 -98 70 -168t170 -70q96 0 167.5 70t72.5 168q-1 100 -72.5 170t-167.5 70z" />
    <glyph glyph-name="uni00A2" unicode="&#xa2;" horiz-adv-x="1654" 
d="M768 -256v231q-208 20 -355.5 124.5t-226 275t-78.5 387.5q0 219 79.5 389.5t227.5 275t353 124.5v229h186v-228q262 -25 423 -182t173 -402h-402q-14 92 -64 156.5t-130 88.5v-894q76 22 127.5 84t66.5 160h402q-14 -245 -171.5 -404.5t-424.5 -184.5v-230h-186z
M768 323v885q-105 -36 -166 -149t-61 -291q0 -181 61 -294.5t166 -150.5z" />
    <glyph glyph-name="uni00A3" unicode="&#xa3;" horiz-adv-x="1891" 
d="M1686 0h-1488v357h131q65 14 85 86t18 151l-8 221h-231v341h220l-11 313q-7 195 76 330.5t231 206t334 70.5q209 0 356 -76t222.5 -209t68.5 -306l-405 11q4 128 -67 180.5t-168 52.5q-94 0 -158.5 -64t-63.5 -196l12 -313h450v-341h-437l7 -197q6 -163 -79 -261h905
v-357z" />
    <glyph glyph-name="uni00A4" unicode="&#xa4;" horiz-adv-x="2154" 
d="M234 836q0 143 41 271t114 233l-201 202l191 196l204 -202q104 76 230 118t264 42t264.5 -43t231.5 -120l205 205l195 -196l-209 -207q72 -104 113 -230.5t41 -268.5q0 -135 -37.5 -257.5t-104.5 -224.5l197 -192l-195 -196l-186 186q-107 -85 -238.5 -132.5
t-276.5 -47.5t-276 46.5t-238 129.5l-184 -182l-191 196l189 187q-68 103 -105.5 226.5t-37.5 260.5zM490 836q0 -169 78 -305.5t211.5 -217t297.5 -80.5q161 0 293.5 80.5t211.5 217t80 305.5q-1 171 -80 307.5t-211.5 216t-293.5 79.5q-164 0 -297.5 -79.5t-211.5 -216
t-78 -307.5z" />
    <glyph glyph-name="uni00A5" unicode="&#xa5;" horiz-adv-x="1611" 
d="M484 2048l322 -785l321 785h444l-456 -992h303v-247h-404v-149h404v-247h-404v-413h-428v413h-436v247h436v149h-436v247h344l-454 992h444z" />
    <glyph glyph-name="uni00A6" unicode="&#xa6;" horiz-adv-x="971" 
d="M295 571h381v-955h-381v955zM676 2048v-951h-381v951h381z" />
    <glyph glyph-name="uni00A7" unicode="&#xa7;" horiz-adv-x="1670" 
d="M1404 1540h-374q-1 77 -53.5 128.5t-156.5 51.5q-79 0 -138.5 -35t-59.5 -107t65 -123.5t125 -75.5l383 -177q40 -18 97 -52t110.5 -88t86 -133.5t22.5 -188.5q-7 -83 -51 -140.5t-99.5 -91t-100.5 -46.5l-5 -4q171 -151 171 -372q0 -158 -78 -270t-212 -171t-302 -59
q-184 0 -324.5 68t-219.5 191.5t-79 290.5h376q0 -94 67.5 -145t184.5 -46q77 2 142.5 35t65.5 106q0 78 -64.5 124.5t-120.5 74.5l-383 173q-41 18 -98 52t-111 89t-86 135t-23 190q7 84 48.5 141t97.5 91t107 48v3q-76 74 -122.5 165t-45.5 206q0 144 73 256.5t203 177
t298 64.5q176 0 307 -69.5t204 -190.5t73 -276zM1162 718q14 106 -162 181l-334 151q-54 25 -102.5 -8t-55.5 -96q-7 -53 36 -100t127 -83l334 -149q47 -21 98 10t59 94z" />
    <glyph glyph-name="uni00A8" unicode="&#xa8;" horiz-adv-x="1506" 
d="M448 1746q-86 0 -148 60.5t-62 143.5q0 85 62 144t148 59q87 0 147.5 -59t60.5 -144q0 -83 -60.5 -143.5t-147.5 -60.5zM1060 1746q-86 0 -148 60.5t-62 143.5q0 85 62 144t148 59q87 0 147.5 -59t60.5 -144q0 -83 -60.5 -143.5t-147.5 -60.5z" />
    <glyph glyph-name="uni00A9" unicode="&#xa9;" horiz-adv-x="2418" 
d="M204 1004q0 218 79 404.5t217.5 327t320.5 218.5t388 78q208 0 390 -78t320.5 -218.5t216.5 -327t78 -404.5q0 -219 -78 -407t-216.5 -328t-320.5 -218.5t-390 -78.5q-206 0 -388 78.5t-320.5 218.5t-217.5 328t-79 407zM377 1004q0 -183 65 -339.5t180 -273.5
t265.5 -182t321.5 -65q173 0 323.5 65t265 182t179 273.5t64.5 339.5q0 182 -64.5 337.5t-179 272t-265 181.5t-323.5 65q-171 0 -321.5 -65t-265.5 -181.5t-180 -272t-65 -337.5zM1444 820h223q1 -216 -129 -324t-348 -108q-225 0 -359 147.5t-135 384.5v164
q1 237 135 384.5t359 147.5q218 0 348 -108t129 -324h-221q0 132 -65 190t-191 58q-135 0 -203.5 -97.5t-68.5 -250.5v-164q0 -153 68.5 -250.5t203.5 -97.5q126 0 190.5 56.5t63.5 191.5z" />
    <glyph glyph-name="uni00AA" unicode="&#xaa;" horiz-adv-x="1372" 
d="M869 1065q-44 -47 -114.5 -80t-172.5 -33q-168 0 -259.5 85.5t-91.5 226.5q0 153 120 235.5t364 82.5h143v70q0 83 -40 129.5t-125 46.5q-92 0 -143.5 -35t-51.5 -101l-245 18q0 140 120.5 231t319.5 91q185 0 298.5 -95.5t113.5 -284.5v-432q0 -58 6.5 -121.5
t31.5 -128.5h-251q-15 45 -23 95zM858 1422h-143q-121 0 -178 -46t-57 -106q0 -55 39.5 -87.5t125.5 -32.5q57 0 116 25.5t97 60.5v186z" />
    <glyph glyph-name="uni00AB" unicode="&#xab;" horiz-adv-x="1762" 
d="M164 220zM954 220h-386l-404 600v28l404 600h386l-380 -614zM1612 220h-386l-404 600v28l404 600h386l-380 -614z" />
    <glyph glyph-name="uni00AC" unicode="&#xac;" horiz-adv-x="1633" 
d="M1410 1108v-592h-283v356h-898v236h1181z" />
    <glyph glyph-name="uni00AD" unicode="&#xad;" horiz-adv-x="1320" 
d="M193 672zM1127 1010v-338h-934v338h934z" />
    <glyph glyph-name="uni00AE" unicode="&#xae;" horiz-adv-x="2418" 
d="M204 1004q0 218 79 404.5t217.5 327t320.5 218.5t388 78q208 0 390 -78t320.5 -218.5t216.5 -327t78 -404.5q0 -219 -78 -407t-216.5 -328t-320.5 -218.5t-390 -78.5q-206 0 -388 78.5t-320.5 218.5t-217.5 328t-79 407zM377 1004q0 -183 65 -339.5t180 -273.5
t265.5 -182t321.5 -65q173 0 323.5 65t265 182t179 273.5t64.5 339.5q0 182 -64.5 337.5t-179 272t-265 181.5t-323.5 65q-171 0 -321.5 -65t-265.5 -181.5t-180 -272t-65 -337.5zM1229 900h-221v-464h-215v1168h397q212 0 337 -92.5t124 -269.5q1 -153 -156 -237
q84 -44 118 -121.5t34 -175.5v-76q2 -113 24 -176v-20h-219q-14 33 -16.5 99.5t-3.5 96.5v76q1 96 -45 144t-158 48zM1008 1084h186q98 0 172.5 40.5t73.5 119.5q1 99 -55.5 137.5t-194.5 38.5h-182v-336z" />
    <glyph glyph-name="uni00AF" unicode="&#xaf;" horiz-adv-x="1590" 
d="M1282 2048v-231h-974v231h974z" />
    <glyph glyph-name="uni00B0" unicode="&#xb0;" horiz-adv-x="1294" 
d="M647 1072q-136 0 -247 66.5t-177.5 178t-66.5 246.5q0 136 66.5 247.5t177.5 177.5t247 66t247.5 -66t177.5 -177.5t66 -247.5q0 -135 -66 -246.5t-177.5 -178t-247.5 -66.5zM647 1356q86 0 146.5 61t60.5 146q0 86 -60.5 146.5t-146.5 60.5q-85 0 -146 -60.5t-61 -146.5
q0 -85 61 -146t146 -61z" />
    <glyph glyph-name="uni00B1" unicode="&#xb1;" horiz-adv-x="1894" 
d="M243 909v329h525v346h358v-346h525v-329h-525v-346h-358v346h-525zM243 77v339h1408v-339h-1408z" />
    <glyph glyph-name="uni00B2" unicode="&#xb2;" horiz-adv-x="1194" 
d="M123 1024v221l487 389q84 68 134 120.5t50 121.5q0 72 -59 111t-143 39q-90 0 -144.5 -43.5t-54.5 -125.5h-295q0 193 140.5 302t357.5 109q224 0 357 -112t133 -276q0 -132 -82.5 -238t-260.5 -225l-178 -132v-11h535v-250h-977z" />
    <glyph glyph-name="uni00B3" unicode="&#xb3;" horiz-adv-x="1246" 
d="M618 1008q-226 0 -374 103t-153 269h314q5 -55 65.5 -86.5t147.5 -31.5q90 0 153 35.5t63 99.5q0 61 -63.5 100t-175.5 39h-141v227h141q93 0 150 37.5t57 96.5q0 58 -49.5 93.5t-130.5 35.5q-85 0 -145 -34t-63 -90h-295q2 109 69.5 191t181 128.5t255.5 46.5
q215 0 345.5 -102.5t130.5 -249.5q0 -108 -75 -173t-179 -79v-10q146 -14 226.5 -88t80.5 -190q0 -108 -69.5 -191t-190.5 -130t-276 -47z" />
    <glyph glyph-name="uni00B4" unicode="&#xb4;" horiz-adv-x="1400" 
d="M397 1734l213 455h393l-305 -455h-301z" />
    <glyph glyph-name="uni00B5" unicode="&#xb5;" horiz-adv-x="1877" 
d="M170 -557v2093h426v-882q1 -139 95.5 -226.5t246.5 -87.5q154 0 248.5 87.5t94.5 226.5v882h425v-1536h-408v218h-12q-46 -100 -139 -154.5t-209 -54.5q-115 0 -207.5 54.5t-139.5 154.5h-12v-775h-409z" />
    <glyph glyph-name="uni00B6" unicode="&#xb6;" horiz-adv-x="1717" 
d="M1199 0v1720h-248v-960h-118q-225 0 -380 83.5t-235 229t-80 331.5q0 184 80 329.5t235 230t380 84.5h705v-2048h-339z" />
    <glyph glyph-name="uni00B7" unicode="&#xb7;" horiz-adv-x="837" 
d="M187 724zM428 724q-99 0 -170 70t-70 170q-1 98 70 168t170 70q96 0 167.5 -70t72.5 -168q-1 -100 -72.5 -170t-167.5 -70z" />
    <glyph glyph-name="uni00B8" unicode="&#xb8;" horiz-adv-x="1054" 
d="M431 8h196l-16 -87q103 -16 168.5 -77t66.5 -166q1 -149 -138 -237.5t-390 -88.5l-4 190q126 0 198 30.5t74 94.5q2 62 -47 93.5t-153 44.5z" />
    <glyph glyph-name="uni00B9" unicode="&#xb9;" horiz-adv-x="894" 
d="M686 2252v-1228h-300v858h-12q-23 -31 -93 -55t-187 -23v244q90 0 156.5 32.5t103.5 80.5t40 91h292z" />
    <glyph glyph-name="uni00BA" unicode="&#xba;" horiz-adv-x="1365" 
d="M192 1436v106q0 215 133 352.5t357 137.5q228 0 359.5 -137.5t131.5 -352.5v-106q0 -213 -130 -349.5t-357 -136.5q-229 0 -361.5 136.5t-132.5 349.5zM439 1542v-106q0 -123 62 -203.5t185 -80.5q121 0 180.5 80.5t59.5 203.5v106q0 120 -60 203t-184 83
q-120 0 -181.5 -83t-61.5 -203z" />
    <glyph glyph-name="uni00BB" unicode="&#xbb;" horiz-adv-x="1772" 
d="M142 220zM142 220l380 614l-380 614h386l404 -600v-28l-404 -600h-386zM810 220l380 614l-380 614h386l404 -600v-28l-404 -600h-386z" />
    <glyph glyph-name="uni00BC" unicode="&#xbc;" horiz-adv-x="2510" 
d="M84 0zM339 0l1408 2048h261l-1408 -2048h-261zM84 960zM622 2048v-1088h-276v750h-12q-19 -27 -83.5 -45t-166.5 -17v221q125 -2 196.5 60t74.5 119h267zM1425 174v222l507 692h352v-688h159v-226h-159v-174h-265v174h-594zM2023 400v390h-11l-304 -381v-9h315z" />
    <glyph glyph-name="uni00BD" unicode="&#xbd;" horiz-adv-x="2579" 
d="M84 0zM339 0l1408 2048h261l-1408 -2048h-261zM84 960zM622 2048v-1088h-276v750h-12q-19 -27 -83.5 -45t-166.5 -17v221q125 -2 196.5 60t74.5 119h267zM1619 0v200l442 343q71 56 117 102.5t46 105.5q0 64 -53 97.5t-131 33.5q-79 0 -128.5 -37t-49.5 -109h-265
q0 171 126.5 269.5t323.5 98.5q200 0 319.5 -101.5t119.5 -247.5q0 -118 -75 -212.5t-235 -196.5l-157 -108v-10h478v-228h-878z" />
    <glyph glyph-name="uni00BE" unicode="&#xbe;" horiz-adv-x="2751" 
d="M82 0zM580 0l1408 2048h261l-1408 -2048h-261zM1666 174v222l507 692h352v-688h159v-226h-159v-174h-265v174h-594zM2264 400v390h-11l-304 -381v-9h315zM82 944zM560 944q-214 0 -344 95t-134 237h284q4 -47 59 -73.5t133 -26.5q84 0 139 30.5t55 83.5q0 52 -56 85.5
t-157 33.5h-131v208h131q81 0 132.5 32t51.5 83q0 50 -44.5 80t-116.5 30t-127.5 -27.5t-59.5 -74.5h-269q4 95 65 168t164 114.5t230 41.5q193 0 311 -91.5t118 -222.5q0 -89 -62 -148.5t-163 -73.5v-10q133 -13 203 -79.5t70 -167.5q0 -95 -63 -169t-172 -116t-247 -42z
" />
    <glyph glyph-name="uni00BF" unicode="&#xbf;" horiz-adv-x="1584" 
d="M130 0zM1048 901v-34q-1 -175 -31.5 -279t-89 -167.5t-142.5 -116.5q-92 -59 -155 -128.5t-63 -167.5q0 -104 71.5 -166.5t172.5 -62.5q98 0 175.5 64t82.5 186h408q-5 -200 -96 -331t-241 -195t-331 -64q-199 0 -352 65.5t-240 189.5t-87 299q0 176 84.5 293t224.5 200
q118 71 173 153t57 228v34h379zM851 1541q99 0 170 -70t70 -170q1 -98 -70 -168t-170 -70q-96 0 -167.5 70t-72.5 168q1 100 72.5 170t167.5 70z" />
    <glyph glyph-name="uni00C0" unicode="&#xc0;" horiz-adv-x="2106" 
d="M67 0zM531 0h-464l707 2048h558l706 -2048h-464l-152 467h-739zM793 805h520l-252 775h-16zM1206 2246h-301l-305 455h393z" />
    <glyph glyph-name="uni00C1" unicode="&#xc1;" horiz-adv-x="2106" 
d="M67 0zM531 0h-464l707 2048h558l706 -2048h-464l-152 467h-739zM793 805h520l-252 775h-16zM899 2246l213 455h393l-305 -455h-301z" />
    <glyph glyph-name="uni00C2" unicode="&#xc2;" horiz-adv-x="2106" 
d="M67 0zM531 0h-464l707 2048h558l706 -2048h-464l-152 467h-739zM793 805h520l-252 775h-16zM489 2230zM852 2230l201 244l201 -244h363v14l-406 440h-317l-405 -440v-14h363z" />
    <glyph glyph-name="uni00C3" unicode="&#xc3;" horiz-adv-x="2106" 
d="M67 0zM531 0h-464l707 2048h558l706 -2048h-464l-152 467h-739zM793 805h520l-252 775h-16zM530 2250zM767 2250l-237 3q0 191 94.5 293t230.5 103q78 0 132 -28.5t99 -59.5q35 -25 67.5 -43.5t70.5 -18.5q58 1 88 43.5t31 111.5l233 -7q-1 -190 -95 -292t-230 -103
q-84 0 -137 28.5t-95 59.5q-33 25 -65 43.5t-72 18.5q-52 0 -83.5 -41t-31.5 -111z" />
    <glyph glyph-name="uni00C4" unicode="&#xc4;" horiz-adv-x="2106" 
d="M67 0zM531 0h-464l707 2048h558l706 -2048h-464l-152 467h-739zM793 805h520l-252 775h-16zM538 2258zM748 2258q-86 0 -148 60.5t-62 143.5q0 85 62 144t148 59q87 0 147.5 -59t60.5 -144q0 -83 -60.5 -143.5t-147.5 -60.5zM1360 2258q-86 0 -148 60.5t-62 143.5
q0 85 62 144t148 59q87 0 147.5 -59t60.5 -144q0 -83 -60.5 -143.5t-147.5 -60.5z" />
    <glyph glyph-name="uni00C5" unicode="&#xc5;" horiz-adv-x="2106" 
d="M67 0zM531 0h-464l707 2048h558l706 -2048h-464l-152 467h-739zM793 805h520l-252 775h-16zM1053 2158q-90 0 -163.5 41.5t-117.5 112t-44 155.5q0 86 44 156t117.5 112t163.5 42t163.5 -42t117.5 -112t44 -156q0 -85 -44 -155.5t-117.5 -112t-163.5 -41.5zM1053 2331
q59 1 100.5 40.5t41.5 95.5t-41.5 96.5t-100.5 39.5q-58 0 -100.5 -40t-42.5 -96t42 -96t101 -40z" />
    <glyph glyph-name="uni00C6" unicode="&#xc6;" horiz-adv-x="2901" 
d="M67 0l877 2048h1790v-357h-947v-488h876v-357h-876v-489h951v-357h-1384v467h-619l-192 -467h-476zM875 805h479v817h-143z" />
    <glyph glyph-name="uni00C7" unicode="&#xc7;" horiz-adv-x="2118" 
d="M142 0zM1985 1331h-438q-25 169 -144 265.5t-297 96.5q-238 0 -381.5 -174.5t-143.5 -494.5q0 -328 144.5 -498.5t377.5 -170.5q173 0 293 90.5t151 254.5l438 -2q-23 -188 -134 -354t-301.5 -269t-453.5 -103q-274 0 -489.5 124t-340 359t-124.5 569q0 335 126 570
t342 358.5t486 123.5q237 0 427.5 -87.5t312 -254t149.5 -403.5zM989 6h196l-16 -87q103 -16 168.5 -77t66.5 -166q1 -149 -138 -237.5t-390 -88.5l-4 190q126 0 198 30.5t74 94.5q2 62 -47 93.5t-153 44.5z" />
    <glyph glyph-name="uni00C8" unicode="&#xc8;" horiz-adv-x="1725" 
d="M178 0zM178 0v2048h1380v-357h-947v-488h876v-357h-876v-489h951v-357h-1384zM1025 2246h-301l-305 455h393z" />
    <glyph glyph-name="uni00C9" unicode="&#xc9;" horiz-adv-x="1725" 
d="M178 0zM178 0v2048h1380v-357h-947v-488h876v-357h-876v-489h951v-357h-1384zM718 2246l213 455h393l-305 -455h-301z" />
    <glyph glyph-name="uni00CA" unicode="&#xca;" horiz-adv-x="1725" 
d="M178 0zM178 0v2048h1380v-357h-947v-488h876v-357h-876v-489h951v-357h-1384zM307 2230zM670 2230l201 244l201 -244h363v14l-406 440h-317l-405 -440v-14h363z" />
    <glyph glyph-name="uni00CB" unicode="&#xcb;" horiz-adv-x="1725" 
d="M178 0zM178 0v2048h1380v-357h-947v-488h876v-357h-876v-489h951v-357h-1384zM356 2258zM566 2258q-86 0 -148 60.5t-62 143.5q0 85 62 144t148 59q87 0 147.5 -59t60.5 -144q0 -83 -60.5 -143.5t-147.5 -60.5zM1178 2258q-86 0 -148 60.5t-62 143.5q0 85 62 144t148 59
q87 0 147.5 -59t60.5 -144q0 -83 -60.5 -143.5t-147.5 -60.5z" />
    <glyph glyph-name="uni00CC" unicode="&#xcc;" horiz-adv-x="790" 
d="M0 0zM611 2048v-2048h-433v2048h433zM549 2246h-301l-305 455h393z" />
    <glyph glyph-name="uni00CD" unicode="&#xcd;" horiz-adv-x="790" 
d="M178 0zM611 2048v-2048h-433v2048h433zM243 2246l213 455h393l-305 -455h-301z" />
    <glyph glyph-name="uni00CE" unicode="&#xce;" horiz-adv-x="790" 
d="M0 0zM611 2048v-2048h-433v2048h433zM-168 2230zM195 2230l201 244l201 -244h363v14l-406 440h-317l-405 -440v-14h363z" />
    <glyph glyph-name="uni00CF" unicode="&#xcf;" horiz-adv-x="790" 
d="M0 0zM611 2048v-2048h-433v2048h433zM-119 2258zM91 2258q-86 0 -148 60.5t-62 143.5q0 85 62 144t148 59q87 0 147.5 -59t60.5 -144q0 -83 -60.5 -143.5t-147.5 -60.5zM703 2258q-86 0 -148 60.5t-62 143.5q0 85 62 144t148 59q87 0 147.5 -59t60.5 -144
q0 -83 -60.5 -143.5t-147.5 -60.5z" />
    <glyph glyph-name="uni00D0" unicode="&#xd0;" horiz-adv-x="2048" 
d="M0 0zM0 0zM904 0h-726v2048h732q309 0 532.5 -122.5t343.5 -351.5t120 -548q0 -320 -120.5 -550t-345 -353t-536.5 -123zM611 371h275q289 0 438.5 156t149.5 499q0 341 -149.5 496t-437.5 155h-276v-1306zM-107 954v251h998v-251h-998z" />
    <glyph glyph-name="uni00D1" unicode="&#xd1;" horiz-adv-x="2070" 
d="M178 0zM1891 2048v-2048h-374l-891 1289h-15v-1289h-433v2048h380l884 -1288h18v1288h431zM750 2237l-237 3q0 191 94.5 293t230.5 103q78 0 132 -28.5t99 -59.5q35 -25 67.5 -43.5t70.5 -18.5q58 1 88 43.5t31 111.5l233 -7q-1 -190 -95 -292t-230 -103q-84 0 -137 28.5
t-95 59.5q-33 25 -65 43.5t-72 18.5q-52 0 -83.5 -41t-31.5 -111z" />
    <glyph glyph-name="uni00D2" unicode="&#xd2;" horiz-adv-x="2202" 
d="M142 0zM2060 1024q0 -335 -126.5 -570t-343.5 -358.5t-489 -123.5q-273 0 -490 124t-343 359.5t-126 568.5q0 335 126 570t343 358.5t490 123.5q272 0 489 -123.5t343.5 -358.5t126.5 -570zM1621 1024q0 326 -142 497.5t-378 171.5t-378 -171.5t-142 -497.5
q0 -325 142 -497t378 -172t378 172t142 497zM1254 2246h-301l-305 455h393z" />
    <glyph glyph-name="uni00D3" unicode="&#xd3;" horiz-adv-x="2202" 
d="M142 0zM2060 1024q0 -335 -126.5 -570t-343.5 -358.5t-489 -123.5q-273 0 -490 124t-343 359.5t-126 568.5q0 335 126 570t343 358.5t490 123.5q272 0 489 -123.5t343.5 -358.5t126.5 -570zM1621 1024q0 326 -142 497.5t-378 171.5t-378 -171.5t-142 -497.5
q0 -325 142 -497t378 -172t378 172t142 497zM947 2246l213 455h393l-305 -455h-301z" />
    <glyph glyph-name="uni00D4" unicode="&#xd4;" horiz-adv-x="2202" 
d="M142 0zM2060 1024q0 -335 -126.5 -570t-343.5 -358.5t-489 -123.5q-273 0 -490 124t-343 359.5t-126 568.5q0 335 126 570t343 358.5t490 123.5q272 0 489 -123.5t343.5 -358.5t126.5 -570zM1621 1024q0 326 -142 497.5t-378 171.5t-378 -171.5t-142 -497.5
q0 -325 142 -497t378 -172t378 172t142 497zM537 2230zM900 2230l201 244l201 -244h363v14l-406 440h-317l-405 -440v-14h363z" />
    <glyph glyph-name="uni00D5" unicode="&#xd5;" horiz-adv-x="2202" 
d="M142 0zM2060 1024q0 -335 -126.5 -570t-343.5 -358.5t-489 -123.5q-273 0 -490 124t-343 359.5t-126 568.5q0 335 126 570t343 358.5t490 123.5q272 0 489 -123.5t343.5 -358.5t126.5 -570zM1621 1024q0 326 -142 497.5t-378 171.5t-378 -171.5t-142 -497.5
q0 -325 142 -497t378 -172t378 172t142 497zM578 2250zM815 2250l-237 3q0 191 94.5 293t230.5 103q78 0 132 -28.5t99 -59.5q35 -25 67.5 -43.5t70.5 -18.5q58 1 88 43.5t31 111.5l233 -7q-1 -190 -95 -292t-230 -103q-84 0 -137 28.5t-95 59.5q-33 25 -65 43.5t-72 18.5
q-52 0 -83.5 -41t-31.5 -111z" />
    <glyph glyph-name="uni00D6" unicode="&#xd6;" horiz-adv-x="2202" 
d="M142 0zM2060 1024q0 -335 -126.5 -570t-343.5 -358.5t-489 -123.5q-273 0 -490 124t-343 359.5t-126 568.5q0 335 126 570t343 358.5t490 123.5q272 0 489 -123.5t343.5 -358.5t126.5 -570zM1621 1024q0 326 -142 497.5t-378 171.5t-378 -171.5t-142 -497.5
q0 -325 142 -497t378 -172t378 172t142 497zM586 2258zM796 2258q-86 0 -148 60.5t-62 143.5q0 85 62 144t148 59q87 0 147.5 -59t60.5 -144q0 -83 -60.5 -143.5t-147.5 -60.5zM1408 2258q-86 0 -148 60.5t-62 143.5q0 85 62 144t148 59q87 0 147.5 -59t60.5 -144
q0 -83 -60.5 -143.5t-147.5 -60.5z" />
    <glyph glyph-name="uni00D7" unicode="&#xd7;" horiz-adv-x="1894" 
d="M1414 90l-467 466l-466 -466l-263 263l466 465l-466 465l263 265l466 -466l467 466l262 -265l-465 -465l465 -465z" />
    <glyph glyph-name="uni00D8" unicode="&#xd8;" horiz-adv-x="2202" 
d="M463 -98l-195 132l149 214q-129 135 -202 330.5t-73 445.5q0 335 126 570t343 358.5t490 123.5q279 0 498 -129l136 195l195 -132l-146 -209q129 -135 202.5 -330.5t73.5 -446.5q0 -335 -126.5 -570t-343.5 -358.5t-489 -123.5q-280 0 -499 129zM1621 1024q0 250 -88 415
l-703 -1010q115 -74 271 -74q236 0 378 172t142 497zM669 610l702 1009q-115 74 -270 74q-236 0 -378 -171.5t-142 -497.5q0 -249 88 -414z" />
    <glyph glyph-name="uni00D9" unicode="&#xd9;" horiz-adv-x="2054" 
d="M178 0zM1446 2048h430v-1354q0 -232 -109 -393.5t-300.5 -245.5t-439.5 -84t-440 84t-300.5 245.5t-108.5 393.5v1354h433v-1339q0 -164 118.5 -258t297.5 -94q182 0 300.5 94t118.5 258v1339zM1181 2246h-301l-305 455h393z" />
    <glyph glyph-name="uni00DA" unicode="&#xda;" horiz-adv-x="2054" 
d="M178 0zM1446 2048h430v-1354q0 -232 -109 -393.5t-300.5 -245.5t-439.5 -84t-440 84t-300.5 245.5t-108.5 393.5v1354h433v-1339q0 -164 118.5 -258t297.5 -94q182 0 300.5 94t118.5 258v1339zM874 2246l213 455h393l-305 -455h-301z" />
    <glyph glyph-name="uni00DB" unicode="&#xdb;" horiz-adv-x="2054" 
d="M178 0zM1446 2048h430v-1354q0 -232 -109 -393.5t-300.5 -245.5t-439.5 -84t-440 84t-300.5 245.5t-108.5 393.5v1354h433v-1339q0 -164 118.5 -258t297.5 -94q182 0 300.5 94t118.5 258v1339zM463 2230zM826 2230l201 244l201 -244h363v14l-406 440h-317l-405 -440v-14
h363z" />
    <glyph glyph-name="uni00DC" unicode="&#xdc;" horiz-adv-x="2054" 
d="M178 0zM1446 2048h430v-1354q0 -232 -109 -393.5t-300.5 -245.5t-439.5 -84t-440 84t-300.5 245.5t-108.5 393.5v1354h433v-1339q0 -164 118.5 -258t297.5 -94q182 0 300.5 94t118.5 258v1339zM512 2258zM722 2258q-86 0 -148 60.5t-62 143.5q0 85 62 144t148 59
q87 0 147.5 -59t60.5 -144q0 -83 -60.5 -143.5t-147.5 -60.5zM1334 2258q-86 0 -148 60.5t-62 143.5q0 85 62 144t148 59q87 0 147.5 -59t60.5 -144q0 -83 -60.5 -143.5t-147.5 -60.5z" />
    <glyph glyph-name="uni00DD" unicode="&#xdd;" horiz-adv-x="2040" 
d="M58 0zM58 2048h485l467 -882h20l467 882h485l-747 -1324v-724h-430v724zM867 2246l213 455h393l-305 -455h-301z" />
    <glyph glyph-name="uni00DE" unicode="&#xde;" horiz-adv-x="1889" 
d="M174 2048h433v-376h300q247 0 417.5 -81.5t259 -223t88.5 -321.5t-88.5 -321t-259 -222t-417.5 -81h-300v-422h-433v2048zM607 754h300q185 0 268 85t83 203q0 120 -83 207.5t-268 87.5h-300v-583z" />
    <glyph glyph-name="uni00DF" unicode="&#xdf;" horiz-adv-x="1870" 
d="M178 0v1507q0 177 87.5 304.5t246 196t371.5 68.5q199 0 365 -62.5t266 -186t100 -305.5q0 -159 -79.5 -272t-216.5 -152v-22q200 -13 318 -155t117 -357q-1 -179 -84.5 -305.5t-231.5 -192.5t-343 -66h-269v347h201q136 0 217 71t79 187q-1 120 -89.5 192.5t-241.5 72.5
h-158v332h106q109 0 173.5 76.5t65.5 180.5q2 113 -73 186.5t-208 73.5q-131 0 -212 -74.5t-81 -199.5v-1445h-426z" />
    <glyph glyph-name="uni00E0" unicode="&#xe0;" horiz-adv-x="1634" 
d="M98 0zM608 -29q-220 0 -365 115t-145 343q0 172 81 270t212.5 143.5t283.5 59.5q200 20 286 42t86 96v6q0 95 -59.5 147t-168.5 52q-115 0 -183 -50t-90 -127l-394 32q44 210 218.5 333t450.5 123q171 0 320 -54t240.5 -168.5t91.5 -297.5v-1036h-404v213h-12
q-56 -107 -167.5 -174.5t-281.5 -67.5zM730 265q140 0 230 81.5t90 202.5v163q-25 -17 -77.5 -30t-112 -22.5t-106.5 -16.5q-112 -16 -180.5 -63t-68.5 -137q0 -88 63.5 -133t161.5 -45zM990 1734h-301l-305 455h393z" />
    <glyph glyph-name="uni00E1" unicode="&#xe1;" horiz-adv-x="1634" 
d="M98 0zM608 -29q-220 0 -365 115t-145 343q0 172 81 270t212.5 143.5t283.5 59.5q200 20 286 42t86 96v6q0 95 -59.5 147t-168.5 52q-115 0 -183 -50t-90 -127l-394 32q44 210 218.5 333t450.5 123q171 0 320 -54t240.5 -168.5t91.5 -297.5v-1036h-404v213h-12
q-56 -107 -167.5 -174.5t-281.5 -67.5zM730 265q140 0 230 81.5t90 202.5v163q-25 -17 -77.5 -30t-112 -22.5t-106.5 -16.5q-112 -16 -180.5 -63t-68.5 -137q0 -88 63.5 -133t161.5 -45zM683 1734l213 455h393l-305 -455h-301z" />
    <glyph glyph-name="uni00E2" unicode="&#xe2;" horiz-adv-x="1634" 
d="M98 0zM608 -29q-220 0 -365 115t-145 343q0 172 81 270t212.5 143.5t283.5 59.5q200 20 286 42t86 96v6q0 95 -59.5 147t-168.5 52q-115 0 -183 -50t-90 -127l-394 32q44 210 218.5 333t450.5 123q171 0 320 -54t240.5 -168.5t91.5 -297.5v-1036h-404v213h-12
q-56 -107 -167.5 -174.5t-281.5 -67.5zM730 265q140 0 230 81.5t90 202.5v163q-25 -17 -77.5 -30t-112 -22.5t-106.5 -16.5q-112 -16 -180.5 -63t-68.5 -137q0 -88 63.5 -133t161.5 -45zM273 1718zM636 1718l201 244l201 -244h363v14l-406 440h-317l-405 -440v-14h363z" />
    <glyph glyph-name="uni00E3" unicode="&#xe3;" horiz-adv-x="1634" 
d="M98 0zM608 -29q-220 0 -365 115t-145 343q0 172 81 270t212.5 143.5t283.5 59.5q200 20 286 42t86 96v6q0 95 -59.5 147t-168.5 52q-115 0 -183 -50t-90 -127l-394 32q44 210 218.5 333t450.5 123q171 0 320 -54t240.5 -168.5t91.5 -297.5v-1036h-404v213h-12
q-56 -107 -167.5 -174.5t-281.5 -67.5zM730 265q140 0 230 81.5t90 202.5v163q-25 -17 -77.5 -30t-112 -22.5t-106.5 -16.5q-112 -16 -180.5 -63t-68.5 -137q0 -88 63.5 -133t161.5 -45zM551 1725l-237 3q0 191 94.5 293t230.5 103q78 0 132 -28.5t99 -59.5
q35 -25 67.5 -43.5t70.5 -18.5q58 1 88 43.5t31 111.5l233 -7q-1 -190 -95 -292t-230 -103q-84 0 -137 28.5t-95 59.5q-33 25 -65 43.5t-72 18.5q-52 0 -83.5 -41t-31.5 -111z" />
    <glyph glyph-name="uni00E4" unicode="&#xe4;" horiz-adv-x="1634" 
d="M98 0zM608 -29q-220 0 -365 115t-145 343q0 172 81 270t212.5 143.5t283.5 59.5q200 20 286 42t86 96v6q0 95 -59.5 147t-168.5 52q-115 0 -183 -50t-90 -127l-394 32q44 210 218.5 333t450.5 123q171 0 320 -54t240.5 -168.5t91.5 -297.5v-1036h-404v213h-12
q-56 -107 -167.5 -174.5t-281.5 -67.5zM730 265q140 0 230 81.5t90 202.5v163q-25 -17 -77.5 -30t-112 -22.5t-106.5 -16.5q-112 -16 -180.5 -63t-68.5 -137q0 -88 63.5 -133t161.5 -45zM532 1746q-86 0 -148 60.5t-62 143.5q0 85 62 144t148 59q87 0 147.5 -59t60.5 -144
q0 -83 -60.5 -143.5t-147.5 -60.5zM1144 1746q-86 0 -148 60.5t-62 143.5q0 85 62 144t148 59q87 0 147.5 -59t60.5 -144q0 -83 -60.5 -143.5t-147.5 -60.5z" />
    <glyph glyph-name="uni00E5" unicode="&#xe5;" horiz-adv-x="1634" 
d="M98 0zM608 -29q-220 0 -365 115t-145 343q0 172 81 270t212.5 143.5t283.5 59.5q200 20 286 42t86 96v6q0 95 -59.5 147t-168.5 52q-115 0 -183 -50t-90 -127l-394 32q44 210 218.5 333t450.5 123q171 0 320 -54t240.5 -168.5t91.5 -297.5v-1036h-404v213h-12
q-56 -107 -167.5 -174.5t-281.5 -67.5zM730 265q140 0 230 81.5t90 202.5v163q-25 -17 -77.5 -30t-112 -22.5t-106.5 -16.5q-112 -16 -180.5 -63t-68.5 -137q0 -88 63.5 -133t161.5 -45zM837 1701q-95 0 -173 44t-124 118.5t-46 165.5t46 166.5t124 121t173 45.5t172 -45.5
t123 -121t46 -166.5t-46 -165.5t-123 -118.5t-172 -44zM837 1879q66 1 111 46t45 104q0 61 -45 107t-111 46q-67 -1 -111.5 -46.5t-44.5 -106.5q0 -59 44.5 -104.5t111.5 -45.5z" />
    <glyph glyph-name="uni00E6" unicode="&#xe6;" horiz-adv-x="2573" 
d="M1786 -30q-189 0 -337 72.5t-223 208.5h-11q-61 -129 -224 -204.5t-359 -75.5q-238 0 -386 115.5t-148 342.5q0 171 81 269t213 144t283 60q201 20 286.5 42.5t85.5 95.5v6q0 95 -59.5 147t-168.5 52q-114 0 -183 -50t-90 -127l-394 32q45 210 219 333t457 123
q126 0 247.5 -43.5t190.5 -156.5q177 200 476 200q204 0 367.5 -86t259.5 -259.5t96 -434.5v-117h-1047v-1q0 -171 94.5 -270.5t253.5 -99.5q107 0 185 45t111 133l393 -26q-45 -214 -226.5 -342t-442.5 -128zM730 265q140 0 230 81.5t90 202.5v163q-25 -17 -77.5 -30
t-112 -22.5t-106.5 -16.5q-112 -16 -180.5 -63t-68.5 -137q0 -88 63.5 -133t161.5 -45zM1418 923h646q-1 137 -88.5 226t-225.5 89q-142 0 -233 -92.5t-99 -222.5z" />
    <glyph glyph-name="uni00E7" unicode="&#xe7;" horiz-adv-x="1654" 
d="M108 0zM864 -30q-236 0 -405.5 100.5t-260 279.5t-90.5 412q0 236 91.5 414.5t260.5 279t402 100.5q201 0 352.5 -73t239 -205t96.5 -310h-402q-17 115 -89.5 185.5t-189.5 70.5q-148 0 -238 -119t-90 -337q0 -220 89.5 -340.5t238.5 -120.5q110 0 185 66.5t94 189.5h402
q-10 -176 -95.5 -310t-235.5 -208.5t-355 -74.5zM764 8h196l-16 -87q103 -16 168.5 -77t66.5 -166q1 -149 -138 -237.5t-390 -88.5l-4 190q126 0 198 30.5t74 94.5q2 62 -47 93.5t-153 44.5z" />
    <glyph glyph-name="uni00E8" unicode="&#xe8;" horiz-adv-x="1683" 
d="M108 0zM870 -30q-236 0 -407 96.5t-263 274t-92 420.5q0 237 92 416t259.5 279t393.5 100q203 0 366.5 -86t259.5 -259.5t96 -434.5v-117h-1046v-1q0 -172 94 -271t254 -99q107 0 185 45t110 133l394 -26q-45 -214 -228 -342t-468 -128zM529 923h645q-1 137 -88 226
t-226 89q-142 0 -233 -92t-98 -223zM997 1734h-301l-305 455h393z" />
    <glyph glyph-name="uni00E9" unicode="&#xe9;" horiz-adv-x="1683" 
d="M108 0zM870 -30q-236 0 -407 96.5t-263 274t-92 420.5q0 237 92 416t259.5 279t393.5 100q203 0 366.5 -86t259.5 -259.5t96 -434.5v-117h-1046v-1q0 -172 94 -271t254 -99q107 0 185 45t110 133l394 -26q-45 -214 -228 -342t-468 -128zM529 923h645q-1 137 -88 226
t-226 89q-142 0 -233 -92t-98 -223zM690 1734l213 455h393l-305 -455h-301z" />
    <glyph glyph-name="uni00EA" unicode="&#xea;" horiz-adv-x="1683" 
d="M108 0zM870 -30q-236 0 -407 96.5t-263 274t-92 420.5q0 237 92 416t259.5 279t393.5 100q203 0 366.5 -86t259.5 -259.5t96 -434.5v-117h-1046v-1q0 -172 94 -271t254 -99q107 0 185 45t110 133l394 -26q-45 -214 -228 -342t-468 -128zM529 923h645q-1 137 -88 226
t-226 89q-142 0 -233 -92t-98 -223zM279 1718zM642 1718l201 244l201 -244h363v14l-406 440h-317l-405 -440v-14h363z" />
    <glyph glyph-name="uni00EB" unicode="&#xeb;" horiz-adv-x="1683" 
d="M108 0zM870 -30q-236 0 -407 96.5t-263 274t-92 420.5q0 237 92 416t259.5 279t393.5 100q203 0 366.5 -86t259.5 -259.5t96 -434.5v-117h-1046v-1q0 -172 94 -271t254 -99q107 0 185 45t110 133l394 -26q-45 -214 -228 -342t-468 -128zM529 923h645q-1 137 -88 226
t-226 89q-142 0 -233 -92t-98 -223zM538 1746q-86 0 -148 60.5t-62 143.5q0 85 62 144t148 59q87 0 147.5 -59t60.5 -144q0 -83 -60.5 -143.5t-147.5 -60.5zM1150 1746q-86 0 -148 60.5t-62 143.5q0 85 62 144t148 59q87 0 147.5 -59t60.5 -144q0 -83 -60.5 -143.5
t-147.5 -60.5z" />
    <glyph glyph-name="uni00EC" unicode="&#xec;" horiz-adv-x="766" 
d="M0 0zM170 0v1536h426v-1536h-426zM537 1734h-301l-305 455h393z" />
    <glyph glyph-name="uni00ED" unicode="&#xed;" horiz-adv-x="766" 
d="M170 0zM170 0v1536h426v-1536h-426zM231 1734l213 455h393l-305 -455h-301z" />
    <glyph glyph-name="uni00EE" unicode="&#xee;" horiz-adv-x="766" 
d="M0 0zM170 0v1536h426v-1536h-426zM-180 1718zM183 1718l201 244l201 -244h363v14l-406 440h-317l-405 -440v-14h363z" />
    <glyph glyph-name="uni00EF" unicode="&#xef;" horiz-adv-x="766" 
d="M0 0zM170 0v1536h426v-1536h-426zM79 1746q-86 0 -148 60.5t-62 143.5q0 85 62 144t148 59q87 0 147.5 -59t60.5 -144q0 -83 -60.5 -143.5t-147.5 -60.5zM691 1746q-86 0 -148 60.5t-62 143.5q0 85 62 144t148 59q87 0 147.5 -59t60.5 -144q0 -83 -60.5 -143.5
t-147.5 -60.5z" />
    <glyph glyph-name="uni00F0" unicode="&#xf0;" horiz-adv-x="1610" 
d="M1278 1878l-201 -102q182 -195 301.5 -452.5t119.5 -571.5q0 -248 -87 -423.5t-243 -268t-364 -92.5q-211 0 -366 95t-240 261t-85 380q0 209 73.5 361.5t189.5 244t246 113.5q109 14 211 -12.5t163 -98.5h20q-51 88 -108.5 163.5t-134.5 146.5l-354 -180l-116 215
l256 130q-90 59 -206 123l188 266q87 -44 174 -99.5t171 -123.5l276 141zM821 300q143 0 224 102.5t81 302.5q0 202 -81 303.5t-224 101.5q-140 0 -221 -99t-81 -305q0 -200 78.5 -303t223.5 -103z" />
    <glyph glyph-name="uni00F1" unicode="&#xf1;" 
d="M170 0zM596 888v-888h-426v1536h406v-271h18q52 134 171.5 212.5t290.5 78.5q240 0 385 -154.5t145 -423.5v-978h-426v902q1 141 -72 220.5t-201 79.5q-129 0 -209.5 -82.5t-81.5 -231.5zM591 1725l-237 3q0 191 94.5 293t230.5 103q78 0 132 -28.5t99 -59.5
q35 -25 67.5 -43.5t70.5 -18.5q58 1 88 43.5t31 111.5l233 -7q-1 -190 -95 -292t-230 -103q-84 0 -137 28.5t-95 59.5q-33 25 -65 43.5t-72 18.5q-52 0 -83.5 -41t-31.5 -111z" />
    <glyph glyph-name="uni00F2" unicode="&#xf2;" horiz-adv-x="1728" 
d="M108 0zM864 -30q-233 0 -402.5 99.5t-261.5 278t-92 414.5q0 238 92 416.5t261.5 278t402.5 99.5t402.5 -99.5t261.5 -278t92 -416.5q0 -236 -92 -414.5t-261.5 -278t-402.5 -99.5zM866 300q158 0 239.5 132t81.5 333t-81.5 333.5t-239.5 132.5q-161 0 -243 -132.5
t-82 -333.5t82 -333t243 -132zM1017 1734h-301l-305 455h393z" />
    <glyph glyph-name="uni00F3" unicode="&#xf3;" horiz-adv-x="1728" 
d="M108 0zM864 -30q-233 0 -402.5 99.5t-261.5 278t-92 414.5q0 238 92 416.5t261.5 278t402.5 99.5t402.5 -99.5t261.5 -278t92 -416.5q0 -236 -92 -414.5t-261.5 -278t-402.5 -99.5zM866 300q158 0 239.5 132t81.5 333t-81.5 333.5t-239.5 132.5q-161 0 -243 -132.5
t-82 -333.5t82 -333t243 -132zM711 1734l213 455h393l-305 -455h-301z" />
    <glyph glyph-name="uni00F4" unicode="&#xf4;" horiz-adv-x="1728" 
d="M108 0zM864 -30q-233 0 -402.5 99.5t-261.5 278t-92 414.5q0 238 92 416.5t261.5 278t402.5 99.5t402.5 -99.5t261.5 -278t92 -416.5q0 -236 -92 -414.5t-261.5 -278t-402.5 -99.5zM866 300q158 0 239.5 132t81.5 333t-81.5 333.5t-239.5 132.5q-161 0 -243 -132.5
t-82 -333.5t82 -333t243 -132zM300 1718zM663 1718l201 244l201 -244h363v14l-406 440h-317l-405 -440v-14h363z" />
    <glyph glyph-name="uni00F5" unicode="&#xf5;" horiz-adv-x="1658" 
d="M113 0zM602 1725l-237 3q0 191 94.5 293t230.5 103q78 0 132 -28.5t99 -59.5q35 -25 67.5 -43.5t70.5 -18.5q58 1 88 43.5t31 111.5l233 -7q-1 -190 -95 -292t-230 -103q-84 0 -137 28.5t-95 59.5q-33 25 -65 43.5t-72 18.5q-52 0 -83.5 -41t-31.5 -111zM869 -30
q-233 0 -402.5 99.5t-261.5 278t-92 414.5q0 238 92 416.5t261.5 278t402.5 99.5t402.5 -99.5t261.5 -278t92 -416.5q0 -236 -92 -414.5t-261.5 -278t-402.5 -99.5zM871 300q158 0 239.5 132t81.5 333t-81.5 333.5t-239.5 132.5q-161 0 -243 -132.5t-82 -333.5t82 -333
t243 -132z" />
    <glyph glyph-name="uni00F6" unicode="&#xf6;" horiz-adv-x="1728" 
d="M108 0zM864 -30q-233 0 -402.5 99.5t-261.5 278t-92 414.5q0 238 92 416.5t261.5 278t402.5 99.5t402.5 -99.5t261.5 -278t92 -416.5q0 -236 -92 -414.5t-261.5 -278t-402.5 -99.5zM866 300q158 0 239.5 132t81.5 333t-81.5 333.5t-239.5 132.5q-161 0 -243 -132.5
t-82 -333.5t82 -333t243 -132zM559 1746q-86 0 -148 60.5t-62 143.5q0 85 62 144t148 59q87 0 147.5 -59t60.5 -144q0 -83 -60.5 -143.5t-147.5 -60.5zM1171 1746q-86 0 -148 60.5t-62 143.5q0 85 62 144t148 59q87 0 147.5 -59t60.5 -144q0 -83 -60.5 -143.5t-147.5 -60.5z
" />
    <glyph glyph-name="uni00F7" unicode="&#xf7;" horiz-adv-x="1894" 
d="M1647 989v-339h-1400v339h1400zM947 22q-101 0 -171.5 71t-70.5 172q0 98 70.5 168t171.5 70q98 0 168.5 -70t70.5 -168q0 -101 -70.5 -172t-168.5 -71zM947 1135q-100 0 -171 71.5t-71 171.5q0 99 71 168.5t171 69.5q99 0 169 -69.5t70 -168.5q0 -100 -70 -171.5
t-169 -71.5z" />
    <glyph glyph-name="uni00F8" unicode="&#xf8;" horiz-adv-x="1733" 
d="M409 -98l-195 132l102 147q-100 105 -154 252t-54 327q0 238 92 416.5t261.5 278t402.5 99.5q197 0 354 -74l99 142l197 -132l-103 -148q101 -105 155 -253t54 -329q0 -236 -92 -414.5t-261.5 -278t-402.5 -99.5q-199 0 -356 76zM570 546l445 642q-65 41 -149 41
q-161 0 -243 -132.5t-82 -333.5q0 -121 29 -217zM866 298q158 0 239.5 132t81.5 333q0 120 -29 216l-445 -639q67 -42 153 -42z" />
    <glyph glyph-name="uni00F9" unicode="&#xf9;" 
d="M170 0zM1155 654v882h426v-1536h-409v279h-16q-52 -135 -172.5 -217t-293.5 -82q-232 0 -375.5 154.5t-144.5 423.5v978h426v-902q1 -136 73 -215t193 -79q115 0 204.5 80t88.5 234zM1031 1734h-301l-305 455h393z" />
    <glyph glyph-name="uni00FA" unicode="&#xfa;" 
d="M170 0zM1155 654v882h426v-1536h-409v279h-16q-52 -135 -172.5 -217t-293.5 -82q-232 0 -375.5 154.5t-144.5 423.5v978h426v-902q1 -136 73 -215t193 -79q115 0 204.5 80t88.5 234zM724 1734l213 455h393l-305 -455h-301z" />
    <glyph glyph-name="uni00FB" unicode="&#xfb;" 
d="M170 0zM1155 654v882h426v-1536h-409v279h-16q-52 -135 -172.5 -217t-293.5 -82q-232 0 -375.5 154.5t-144.5 423.5v978h426v-902q1 -136 73 -215t193 -79q115 0 204.5 80t88.5 234zM314 1718zM677 1718l201 244l201 -244h363v14l-406 440h-317l-405 -440v-14h363z" />
    <glyph glyph-name="uni00FC" unicode="&#xfc;" 
d="M170 0zM1155 654v882h426v-1536h-409v279h-16q-52 -135 -172.5 -217t-293.5 -82q-232 0 -375.5 154.5t-144.5 423.5v978h426v-902q1 -136 73 -215t193 -79q115 0 204.5 80t88.5 234zM573 1746q-86 0 -148 60.5t-62 143.5q0 85 62 144t148 59q87 0 147.5 -59t60.5 -144
q0 -83 -60.5 -143.5t-147.5 -60.5zM1185 1746q-86 0 -148 60.5t-62 143.5q0 85 62 144t148 59q87 0 147.5 -59t60.5 -144q0 -83 -60.5 -143.5t-147.5 -60.5z" />
    <glyph glyph-name="uni00FD" unicode="&#xfd;" horiz-adv-x="1650" 
d="M48 0zM418 -598q-91 0 -155.5 15.5t-100.5 31.5l96 330q113 -34 190.5 -18t122.5 121l28 74l-551 1580h448l318 -1128h16l321 1128h451l-600 -1712q-65 -184 -207.5 -303t-376.5 -119zM669 1734l213 455h393l-305 -455h-301z" />
    <glyph glyph-name="uni00FE" unicode="&#xfe;" horiz-adv-x="1726" 
d="M170 2048h426v-689h18q39 80 131.5 138.5t244.5 58.5q167 0 309 -87.5t228 -263t86 -439.5q0 -258 -83.5 -434t-225 -266.5t-314.5 -90.5q-146 0 -240.5 55.5t-135.5 138.5h-18v-745h-426v2624zM1209 768q0 207 -84 328t-254 121q-116 0 -185.5 -59.5t-100.5 -161
t-31 -228.5q0 -125 30.5 -228t100 -164.5t186.5 -61.5q169 0 253.5 123t84.5 331z" />
    <glyph glyph-name="uni00FF" unicode="&#xff;" horiz-adv-x="1650" 
d="M48 0zM418 -598q-91 0 -155.5 15.5t-100.5 31.5l96 330q113 -34 190.5 -18t122.5 121l28 74l-551 1580h448l318 -1128h16l321 1128h451l-600 -1712q-65 -184 -207.5 -303t-376.5 -119zM518 1746q-86 0 -148 60.5t-62 143.5q0 85 62 144t148 59q87 0 147.5 -59t60.5 -144
q0 -83 -60.5 -143.5t-147.5 -60.5zM1130 1746q-86 0 -148 60.5t-62 143.5q0 85 62 144t148 59q87 0 147.5 -59t60.5 -144q0 -83 -60.5 -143.5t-147.5 -60.5z" />
    <glyph glyph-name="uni0100" unicode="&#x100;" horiz-adv-x="2106" 
d="M67 0zM531 0h-464l707 2048h558l706 -2048h-464l-152 467h-739zM793 805h520l-252 775h-16zM1540 2560v-231h-974v231h974z" />
    <glyph glyph-name="uni0101" unicode="&#x101;" horiz-adv-x="1634" 
d="M98 0zM608 -29q-220 0 -365 115t-145 343q0 172 81 270t212.5 143.5t283.5 59.5q200 20 286 42t86 96v6q0 95 -59.5 147t-168.5 52q-115 0 -183 -50t-90 -127l-394 32q44 210 218.5 333t450.5 123q171 0 320 -54t240.5 -168.5t91.5 -297.5v-1036h-404v213h-12
q-56 -107 -167.5 -174.5t-281.5 -67.5zM730 265q140 0 230 81.5t90 202.5v163q-25 -17 -77.5 -30t-112 -22.5t-106.5 -16.5q-112 -16 -180.5 -63t-68.5 -137q0 -88 63.5 -133t161.5 -45zM1324 2048v-231h-974v231h974z" />
    <glyph glyph-name="uni0102" unicode="&#x102;" horiz-adv-x="2106" 
d="M67 0zM531 0h-464l707 2048h558l706 -2048h-464l-152 467h-739zM793 805h520l-252 775h-16zM1251 2584h297q-1 -181 -134.5 -292.5t-360.5 -111.5t-360.5 111.5t-133.5 292.5h295q-1 -69 44.5 -124t154.5 -55q107 0 152.5 54.5t45.5 124.5z" />
    <glyph glyph-name="uni0103" unicode="&#x103;" horiz-adv-x="1634" 
d="M98 0zM608 -29q-220 0 -365 115t-145 343q0 172 81 270t212.5 143.5t283.5 59.5q200 20 286 42t86 96v6q0 95 -59.5 147t-168.5 52q-115 0 -183 -50t-90 -127l-394 32q44 210 218.5 333t450.5 123q171 0 320 -54t240.5 -168.5t91.5 -297.5v-1036h-404v213h-12
q-56 -107 -167.5 -174.5t-281.5 -67.5zM730 265q140 0 230 81.5t90 202.5v163q-25 -17 -77.5 -30t-112 -22.5t-106.5 -16.5q-112 -16 -180.5 -63t-68.5 -137q0 -88 63.5 -133t161.5 -45zM1035 2072h297q-1 -181 -134.5 -292.5t-360.5 -111.5t-360.5 111.5t-133.5 292.5h295
q-1 -69 44.5 -124t154.5 -55q107 0 152.5 54.5t45.5 124.5z" />
    <glyph glyph-name="uni0104" unicode="&#x104;" horiz-adv-x="2106" 
d="M67 0zM531 0h-464l707 2048h558l706 -2048h-464l-152 467h-739zM793 805h520l-252 775h-16zM1844 -574q-133 0 -222.5 68.5t-112.5 195.5q-24 122 28.5 244t184.5 181l317 -115q-94 -44 -154 -95t-59 -123q-2 -100 97 -100q34 0 59.5 8.5t45.5 15.5l44 -220
q-37 -21 -94 -40.5t-134 -19.5z" />
    <glyph glyph-name="uni0105" unicode="&#x105;" horiz-adv-x="1634" 
d="M98 0zM608 -29q-220 0 -365 115t-145 343q0 172 81 270t212.5 143.5t283.5 59.5q200 20 286 42t86 96v6q0 95 -59.5 147t-168.5 52q-115 0 -183 -50t-90 -127l-394 32q44 210 218.5 333t450.5 123q171 0 320 -54t240.5 -168.5t91.5 -297.5v-1036h-404v213h-12
q-56 -107 -167.5 -174.5t-281.5 -67.5zM730 265q140 0 230 81.5t90 202.5v163q-25 -17 -77.5 -30t-112 -22.5t-106.5 -16.5q-112 -16 -180.5 -63t-68.5 -137q0 -88 63.5 -133t161.5 -45zM1278 -574q-133 0 -222.5 68.5t-112.5 195.5q-24 122 28.5 244t184.5 181l317 -115
q-94 -44 -154 -95t-59 -123q-2 -100 97 -100q34 0 59.5 8.5t45.5 15.5l44 -220q-37 -21 -94 -40.5t-134 -19.5z" />
    <glyph glyph-name="uni0106" unicode="&#x106;" horiz-adv-x="2118" 
d="M142 0zM1985 1331h-438q-25 169 -144 265.5t-297 96.5q-238 0 -381.5 -174.5t-143.5 -494.5q0 -328 144.5 -498.5t377.5 -170.5q173 0 293 90.5t151 254.5l438 -2q-23 -188 -134 -354t-301.5 -269t-453.5 -103q-274 0 -489.5 124t-340 359t-124.5 569q0 335 126 570
t342 358.5t486 123.5q237 0 427.5 -87.5t312 -254t149.5 -403.5zM943 2246l213 455h393l-305 -455h-301z" />
    <glyph glyph-name="uni0107" unicode="&#x107;" horiz-adv-x="1654" 
d="M108 0zM864 -30q-236 0 -405.5 100.5t-260 279.5t-90.5 412q0 236 91.5 414.5t260.5 279t402 100.5q201 0 352.5 -73t239 -205t96.5 -310h-402q-17 115 -89.5 185.5t-189.5 70.5q-148 0 -238 -119t-90 -337q0 -220 89.5 -340.5t238.5 -120.5q110 0 185 66.5t94 189.5h402
q-10 -176 -95.5 -310t-235.5 -208.5t-355 -74.5zM710 1734l213 455h393l-305 -455h-301z" />
    <glyph glyph-name="uni0108" unicode="&#x108;" horiz-adv-x="2118" 
d="M142 0zM1985 1331h-438q-25 169 -144 265.5t-297 96.5q-238 0 -381.5 -174.5t-143.5 -494.5q0 -328 144.5 -498.5t377.5 -170.5q173 0 293 90.5t151 254.5l438 -2q-23 -188 -134 -354t-301.5 -269t-453.5 -103q-274 0 -489.5 124t-340 359t-124.5 569q0 335 126 570
t342 358.5t486 123.5q237 0 427.5 -87.5t312 -254t149.5 -403.5zM532 2230zM895 2230l201 244l201 -244h363v14l-406 440h-317l-405 -440v-14h363z" />
    <glyph glyph-name="uni0109" unicode="&#x109;" horiz-adv-x="1654" 
d="M108 0zM864 -30q-236 0 -405.5 100.5t-260 279.5t-90.5 412q0 236 91.5 414.5t260.5 279t402 100.5q201 0 352.5 -73t239 -205t96.5 -310h-402q-17 115 -89.5 185.5t-189.5 70.5q-148 0 -238 -119t-90 -337q0 -220 89.5 -340.5t238.5 -120.5q110 0 185 66.5t94 189.5h402
q-10 -176 -95.5 -310t-235.5 -208.5t-355 -74.5zM299 1718zM662 1718l201 244l201 -244h363v14l-406 440h-317l-405 -440v-14h363z" />
    <glyph glyph-name="uni010A" unicode="&#x10a;" horiz-adv-x="2118" 
d="M142 0zM1985 1331h-438q-25 169 -144 265.5t-297 96.5q-238 0 -381.5 -174.5t-143.5 -494.5q0 -328 144.5 -498.5t377.5 -170.5q173 0 293 90.5t151 254.5l438 -2q-23 -188 -134 -354t-301.5 -269t-453.5 -103q-274 0 -489.5 124t-340 359t-124.5 569q0 335 126 570
t342 358.5t486 123.5q237 0 427.5 -87.5t312 -254t149.5 -403.5zM1096 2246q-94 0 -162 63.5t-68 152.5t68 152t162 63q95 0 163 -63t68 -152t-68 -152.5t-163 -63.5z" />
    <glyph glyph-name="uni010B" unicode="&#x10b;" horiz-adv-x="1654" 
d="M108 0zM864 -30q-236 0 -405.5 100.5t-260 279.5t-90.5 412q0 236 91.5 414.5t260.5 279t402 100.5q201 0 352.5 -73t239 -205t96.5 -310h-402q-17 115 -89.5 185.5t-189.5 70.5q-148 0 -238 -119t-90 -337q0 -220 89.5 -340.5t238.5 -120.5q110 0 185 66.5t94 189.5h402
q-10 -176 -95.5 -310t-235.5 -208.5t-355 -74.5zM863 1734q-94 0 -162 63.5t-68 152.5t68 152t162 63q95 0 163 -63t68 -152t-68 -152.5t-163 -63.5z" />
    <glyph glyph-name="uni010C" unicode="&#x10c;" horiz-adv-x="2118" 
d="M142 0zM1985 1331h-438q-25 169 -144 265.5t-297 96.5q-238 0 -381.5 -174.5t-143.5 -494.5q0 -328 144.5 -498.5t377.5 -170.5q173 0 293 90.5t151 254.5l438 -2q-23 -188 -134 -354t-301.5 -269t-453.5 -103q-274 0 -489.5 124t-340 359t-124.5 569q0 335 126 570
t342 358.5t486 123.5q237 0 427.5 -87.5t312 -254t149.5 -403.5zM895 2686l201 -244l201 244h363v-14l-406 -440h-317l-405 440v14h363z" />
    <glyph glyph-name="uni010D" unicode="&#x10d;" horiz-adv-x="1654" 
d="M108 0zM864 -30q-236 0 -405.5 100.5t-260 279.5t-90.5 412q0 236 91.5 414.5t260.5 279t402 100.5q201 0 352.5 -73t239 -205t96.5 -310h-402q-17 115 -89.5 185.5t-189.5 70.5q-148 0 -238 -119t-90 -337q0 -220 89.5 -340.5t238.5 -120.5q110 0 185 66.5t94 189.5h402
q-10 -176 -95.5 -310t-235.5 -208.5t-355 -74.5zM662 2174l201 -244l201 244h363v-14l-406 -440h-317l-405 440v14h363z" />
    <glyph glyph-name="uni010E" unicode="&#x10e;" horiz-adv-x="2048" 
d="M178 0zM904 0h-726v2048h732q309 0 532.5 -122.5t343.5 -351.5t120 -548q0 -320 -120.5 -550t-345 -353t-536.5 -123zM611 371h275q289 0 438.5 156t149.5 499q0 341 -149.5 496t-437.5 155h-276v-1306zM628 2686l201 -244l201 244h363v-14l-406 -440h-317l-405 440v14
h363z" />
    <glyph glyph-name="uni010F" unicode="&#x10f;" horiz-adv-x="2051" 
d="M118 0zM741 -25q-175 0 -316 90.5t-224 267t-83 433.5q0 264 85.5 439.5t227 263t309.5 87.5q129 0 215.5 -43.5t140 -107.5t81.5 -127h13v770h425v-2048h-420v246h-18q-29 -64 -84 -126.5t-141.5 -103.5t-210.5 -41zM876 314q154 0 238.5 124.5t84.5 329.5
q0 206 -84 327.5t-239 121.5q-158 0 -240.5 -124.5t-82.5 -324.5q0 -201 83 -327.5t240 -126.5zM1670 1275zM2090 2048v-213q0 -164 -45.5 -308t-147.5 -252l-227 103q1 1 2 4q46 95 77.5 186.5t30.5 243.5v236h310z" />
    <glyph glyph-name="uni0110" unicode="&#x110;" horiz-adv-x="2048" 
d="M0 0zM0 0zM904 0h-726v2048h732q309 0 532.5 -122.5t343.5 -351.5t120 -548q0 -320 -120.5 -550t-345 -353t-536.5 -123zM611 371h275q289 0 438.5 156t149.5 499q0 341 -149.5 496t-437.5 155h-276v-1306zM-107 954v251h998v-251h-998z" />
    <glyph glyph-name="uni0111" unicode="&#x111;" horiz-adv-x="1789" 
d="M113 0zM736 -25q-175 0 -316 90.5t-224 267t-83 433.5q0 264 85.5 439.5t227 263t309.5 87.5q129 0 215.5 -43.5t140 -107.5t81.5 -127h13v770h425v-2048h-420v246h-18q-29 -64 -84 -126.5t-141.5 -103.5t-210.5 -41zM871 314q154 0 238.5 124.5t84.5 329.5
q0 206 -84 327.5t-239 121.5q-158 0 -240.5 -124.5t-82.5 -324.5q0 -201 83 -327.5t240 -126.5zM787 1641v251h998v-251h-998z" />
    <glyph glyph-name="uni0112" unicode="&#x112;" horiz-adv-x="1725" 
d="M178 0zM178 0v2048h1380v-357h-947v-488h876v-357h-876v-489h951v-357h-1384zM1358 2560v-231h-974v231h974z" />
    <glyph glyph-name="uni0113" unicode="&#x113;" horiz-adv-x="1683" 
d="M108 0zM870 -30q-236 0 -407 96.5t-263 274t-92 420.5q0 237 92 416t259.5 279t393.5 100q203 0 366.5 -86t259.5 -259.5t96 -434.5v-117h-1046v-1q0 -172 94 -271t254 -99q107 0 185 45t110 133l394 -26q-45 -214 -228 -342t-468 -128zM529 923h645q-1 137 -88 226
t-226 89q-142 0 -233 -92t-98 -223zM1330 2048v-231h-974v231h974z" />
    <glyph glyph-name="uni0114" unicode="&#x114;" horiz-adv-x="1725" 
d="M178 0zM178 0v2048h1380v-357h-947v-488h876v-357h-876v-489h951v-357h-1384zM1069 2584h297q-1 -181 -134.5 -292.5t-360.5 -111.5t-360.5 111.5t-133.5 292.5h295q-1 -69 44.5 -124t154.5 -55q107 0 152.5 54.5t45.5 124.5z" />
    <glyph glyph-name="uni0115" unicode="&#x115;" horiz-adv-x="1683" 
d="M108 0zM870 -30q-236 0 -407 96.5t-263 274t-92 420.5q0 237 92 416t259.5 279t393.5 100q203 0 366.5 -86t259.5 -259.5t96 -434.5v-117h-1046v-1q0 -172 94 -271t254 -99q107 0 185 45t110 133l394 -26q-45 -214 -228 -342t-468 -128zM529 923h645q-1 137 -88 226
t-226 89q-142 0 -233 -92t-98 -223zM1041 2072h297q-1 -181 -134.5 -292.5t-360.5 -111.5t-360.5 111.5t-133.5 292.5h295q-1 -69 44.5 -124t154.5 -55q107 0 152.5 54.5t45.5 124.5z" />
    <glyph glyph-name="uni0116" unicode="&#x116;" horiz-adv-x="1725" 
d="M178 0zM178 0v2048h1380v-357h-947v-488h876v-357h-876v-489h951v-357h-1384zM871 2246q-94 0 -162 63.5t-68 152.5t68 152t162 63q95 0 163 -63t68 -152t-68 -152.5t-163 -63.5z" />
    <glyph glyph-name="uni0117" unicode="&#x117;" horiz-adv-x="1683" 
d="M108 0zM870 -30q-236 0 -407 96.5t-263 274t-92 420.5q0 237 92 416t259.5 279t393.5 100q203 0 366.5 -86t259.5 -259.5t96 -434.5v-117h-1046v-1q0 -172 94 -271t254 -99q107 0 185 45t110 133l394 -26q-45 -214 -228 -342t-468 -128zM529 923h645q-1 137 -88 226
t-226 89q-142 0 -233 -92t-98 -223zM843 1734q-94 0 -162 63.5t-68 152.5t68 152t162 63q95 0 163 -63t68 -152t-68 -152.5t-163 -63.5z" />
    <glyph glyph-name="uni0118" unicode="&#x118;" horiz-adv-x="1725" 
d="M178 0zM178 0v2048h1380v-357h-947v-488h876v-357h-876v-489h951v-357h-1384zM1368 -574q-133 0 -222.5 68.5t-112.5 195.5q-24 122 28.5 244t184.5 181l317 -115q-94 -44 -154 -95t-59 -123q-2 -100 97 -100q34 0 59.5 8.5t45.5 15.5l44 -220q-37 -21 -94 -40.5
t-134 -19.5z" />
    <glyph glyph-name="uni0119" unicode="&#x119;" horiz-adv-x="1683" 
d="M108 0zM870 -30q-236 0 -407 96.5t-263 274t-92 420.5q0 237 92 416t259.5 279t393.5 100q203 0 366.5 -86t259.5 -259.5t96 -434.5v-117h-1046v-1q0 -172 94 -271t254 -99q107 0 185 45t110 133l394 -26q-45 -214 -228 -342t-468 -128zM529 923h645q-1 137 -88 226
t-226 89q-142 0 -233 -92t-98 -223zM1017 -533q-133 0 -222.5 68.5t-112.5 195.5q-24 122 28.5 244t184.5 181l317 -115q-94 -44 -154 -95t-59 -123q-2 -100 97 -100q34 0 59.5 8.5t45.5 15.5l44 -220q-37 -21 -94 -40.5t-134 -19.5z" />
    <glyph glyph-name="uni011A" unicode="&#x11a;" horiz-adv-x="1725" 
d="M178 0zM178 0v2048h1380v-357h-947v-488h876v-357h-876v-489h951v-357h-1384zM670 2686l201 -244l201 244h363v-14l-406 -440h-317l-405 440v14h363z" />
    <glyph glyph-name="uni011B" unicode="&#x11b;" horiz-adv-x="1683" 
d="M108 0zM870 -30q-236 0 -407 96.5t-263 274t-92 420.5q0 237 92 416t259.5 279t393.5 100q203 0 366.5 -86t259.5 -259.5t96 -434.5v-117h-1046v-1q0 -172 94 -271t254 -99q107 0 185 45t110 133l394 -26q-45 -214 -228 -342t-468 -128zM529 923h645q-1 137 -88 226
t-226 89q-142 0 -233 -92t-98 -223zM642 2174l201 -244l201 244h363v-14l-406 -440h-317l-405 440v14h363z" />
    <glyph glyph-name="uni011C" unicode="&#x11c;" horiz-adv-x="2142" 
d="M142 0zM1536 1386q-41 144 -151.5 225.5t-277.5 81.5q-235 0 -380.5 -173.5t-145.5 -493.5q0 -321 143 -496t387 -175q216 0 339.5 112.5t127.5 302.5h-440v326h857v-258q0 -269 -114 -463.5t-313.5 -298.5t-458.5 -104q-288 0 -506 127.5t-339.5 363t-121.5 559.5
q0 332 127 568t344 361t487 125q232 0 420 -88t308 -243.5t148 -358.5h-440zM527 2230zM890 2230l201 244l201 -244h363v14l-406 440h-317l-405 -440v-14h363z" />
    <glyph glyph-name="uni011D" unicode="&#x11d;" horiz-adv-x="1783" 
d="M113 0zM862 -598q-310 0 -487 122t-215 296l394 53q26 -62 101.5 -113.5t216.5 -51.5q139 0 229.5 66t90.5 217v281h-18q-42 -95 -148 -172.5t-290 -77.5q-173 0 -314.5 81t-225 247t-83.5 421q0 262 85.5 436t227 261.5t309.5 87.5q129 0 216 -43.5t141 -107.5t82 -127
h16v258h423v-1551q0 -191 -96.5 -321t-265.5 -196t-389 -66zM871 342q154 0 238.5 114t84.5 317q0 202 -84 323t-239 121q-158 0 -240.5 -124t-82.5 -320q0 -199 83 -315t240 -116zM308 1718zM671 1718l201 244l201 -244h363v14l-406 440h-317l-405 -440v-14h363z" />
    <glyph glyph-name="uni011E" unicode="&#x11e;" horiz-adv-x="2142" 
d="M142 0zM1536 1386q-41 144 -151.5 225.5t-277.5 81.5q-235 0 -380.5 -173.5t-145.5 -493.5q0 -321 143 -496t387 -175q216 0 339.5 112.5t127.5 302.5h-440v326h857v-258q0 -269 -114 -463.5t-313.5 -298.5t-458.5 -104q-288 0 -506 127.5t-339.5 363t-121.5 559.5
q0 332 127 568t344 361t487 125q232 0 420 -88t308 -243.5t148 -358.5h-440zM1289 2584h297q-1 -181 -134.5 -292.5t-360.5 -111.5t-360.5 111.5t-133.5 292.5h295q-1 -69 44.5 -124t154.5 -55q107 0 152.5 54.5t45.5 124.5z" />
    <glyph glyph-name="uni011F" unicode="&#x11f;" horiz-adv-x="1783" 
d="M113 0zM862 -598q-310 0 -487 122t-215 296l394 53q26 -62 101.5 -113.5t216.5 -51.5q139 0 229.5 66t90.5 217v281h-18q-42 -95 -148 -172.5t-290 -77.5q-173 0 -314.5 81t-225 247t-83.5 421q0 262 85.5 436t227 261.5t309.5 87.5q129 0 216 -43.5t141 -107.5t82 -127
h16v258h423v-1551q0 -191 -96.5 -321t-265.5 -196t-389 -66zM871 342q154 0 238.5 114t84.5 317q0 202 -84 323t-239 121q-158 0 -240.5 -124t-82.5 -320q0 -199 83 -315t240 -116zM1070 2072h297q-1 -181 -134.5 -292.5t-360.5 -111.5t-360.5 111.5t-133.5 292.5h295
q-1 -69 44.5 -124t154.5 -55q107 0 152.5 54.5t45.5 124.5z" />
    <glyph glyph-name="uni0120" unicode="&#x120;" horiz-adv-x="2142" 
d="M142 0zM1536 1386q-41 144 -151.5 225.5t-277.5 81.5q-235 0 -380.5 -173.5t-145.5 -493.5q0 -321 143 -496t387 -175q216 0 339.5 112.5t127.5 302.5h-440v326h857v-258q0 -269 -114 -463.5t-313.5 -298.5t-458.5 -104q-288 0 -506 127.5t-339.5 363t-121.5 559.5
q0 332 127 568t344 361t487 125q232 0 420 -88t308 -243.5t148 -358.5h-440zM1090 2246q-94 0 -162 63.5t-68 152.5t68 152t162 63q95 0 163 -63t68 -152t-68 -152.5t-163 -63.5z" />
    <glyph glyph-name="uni0121" unicode="&#x121;" horiz-adv-x="1783" 
d="M113 0zM862 -598q-310 0 -487 122t-215 296l394 53q26 -62 101.5 -113.5t216.5 -51.5q139 0 229.5 66t90.5 217v281h-18q-42 -95 -148 -172.5t-290 -77.5q-173 0 -314.5 81t-225 247t-83.5 421q0 262 85.5 436t227 261.5t309.5 87.5q129 0 216 -43.5t141 -107.5t82 -127
h16v258h423v-1551q0 -191 -96.5 -321t-265.5 -196t-389 -66zM871 342q154 0 238.5 114t84.5 317q0 202 -84 323t-239 121q-158 0 -240.5 -124t-82.5 -320q0 -199 83 -315t240 -116zM872 1734q-94 0 -162 63.5t-68 152.5t68 152t162 63q95 0 163 -63t68 -152t-68 -152.5
t-163 -63.5z" />
    <glyph glyph-name="uni0122" unicode="&#x122;" horiz-adv-x="2142" 
d="M142 0zM1536 1386q-41 144 -151.5 225.5t-277.5 81.5q-235 0 -380.5 -173.5t-145.5 -493.5q0 -321 143 -496t387 -175q216 0 339.5 112.5t127.5 302.5h-440v326h857v-258q0 -269 -114 -463.5t-313.5 -298.5t-458.5 -104q-288 0 -506 127.5t-339.5 363t-121.5 559.5
q0 332 127 568t344 361t487 125q232 0 420 -88t308 -243.5t148 -358.5h-440zM1247 -114v-213q0 -164 -45.5 -308t-147.5 -252l-227 103q1 1 2 4q46 95 77.5 186.5t30.5 243.5v236h310z" />
    <glyph glyph-name="uni0123" unicode="&#x123;" horiz-adv-x="1783" 
d="M113 0zM862 -598q-310 0 -487 122t-215 296l394 53q26 -62 101.5 -113.5t216.5 -51.5q139 0 229.5 66t90.5 217v281h-18q-42 -95 -148 -172.5t-290 -77.5q-173 0 -314.5 81t-225 247t-83.5 421q0 262 85.5 436t227 261.5t309.5 87.5q129 0 216 -43.5t141 -107.5t82 -127
h16v258h423v-1551q0 -191 -96.5 -321t-265.5 -196t-389 -66zM871 342q154 0 238.5 114t84.5 317q0 202 -84 323t-239 121q-158 0 -240.5 -124t-82.5 -320q0 -199 83 -315t240 -116zM706 1749v191q0 156 59.5 274t144.5 175l214 -107q-35 -58 -64.5 -150.5t-29.5 -208.5
l-4 -174h-320z" />
    <glyph glyph-name="uni0124" unicode="&#x124;" horiz-adv-x="2101" 
d="M178 0zM178 0v2048h433v-845h879v845h432v-2048h-432v846h-879v-846h-433zM491 2232zM854 2232l201 244l201 -244h363v14l-406 440h-317l-405 -440v-14h363z" />
    <glyph glyph-name="uni0125" unicode="&#x125;" horiz-adv-x="1758" 
d="M0 0zM596 888v-888h-426v2048h414v-783h18q53 136 168.5 213.5t290.5 77.5q240 0 386 -154t145 -424v-978h-426v902q1 142 -71.5 221t-202.5 79t-212.5 -82.5t-83.5 -231.5zM-185 2230zM178 2230l201 244l201 -244h363v14l-406 440h-317l-405 -440v-14h363z" />
    <glyph glyph-name="uni0126" unicode="&#x126;" horiz-adv-x="2282" 
d="M2182 1693v-242h-170v-1451h-432v846h-879v-846h-433v1451h-168v242h168v355h433v-355h879v355h432v-355h170zM1580 1451h-879v-248h879v248z" />
    <glyph glyph-name="uni0127" unicode="&#x127;" horiz-adv-x="1758" 
d="M0 0zM596 888v-888h-426v2048h414v-783h18q53 136 168.5 213.5t290.5 77.5q240 0 386 -154t145 -424v-978h-426v902q1 142 -71.5 221t-202.5 79t-212.5 -82.5t-83.5 -231.5zM-124 1647v251h998v-251h-998z" />
    <glyph glyph-name="uni0128" unicode="&#x128;" horiz-adv-x="1270" 
d="M111 0zM849 2048v-2048h-433v2048h433zM348 2237l-237 3q0 191 94.5 293t230.5 103q78 0 132 -28.5t99 -59.5q35 -25 67.5 -43.5t70.5 -18.5q58 1 88 43.5t31 111.5l233 -7q-1 -190 -95 -292t-230 -103q-84 0 -137 28.5t-95 59.5q-33 25 -65 43.5t-72 18.5
q-52 0 -83.5 -41t-31.5 -111z" />
    <glyph glyph-name="uni0129" unicode="&#x129;" horiz-adv-x="902" 
d="M0 0zM236 1725l-237 3q0 191 94.5 293t230.5 103q78 0 132 -28.5t99 -59.5q35 -25 67.5 -43.5t70.5 -18.5q58 1 88 43.5t31 111.5l233 -7q-1 -190 -95 -292t-230 -103q-84 0 -137 28.5t-95 59.5q-33 25 -65 43.5t-72 18.5q-52 0 -83.5 -41t-31.5 -111zM259 0v1536h426
v-1536h-426z" />
    <glyph glyph-name="uni012A" unicode="&#x12a;" horiz-adv-x="790" 
d="M0 0zM611 2048v-2048h-433v2048h433zM883 2560v-231h-974v231h974z" />
    <glyph glyph-name="uni012B" unicode="&#x12b;" horiz-adv-x="766" 
d="M0 0zM170 0v1536h426v-1536h-426zM871 2048v-231h-974v231h974z" />
    <glyph glyph-name="uni012C" unicode="&#x12c;" horiz-adv-x="790" 
d="M0 0zM611 2048v-2048h-433v2048h433zM594 2584h297q-1 -181 -134.5 -292.5t-360.5 -111.5t-360.5 111.5t-133.5 292.5h295q-1 -69 44.5 -124t154.5 -55q107 0 152.5 54.5t45.5 124.5z" />
    <glyph glyph-name="uni012D" unicode="&#x12d;" horiz-adv-x="766" 
d="M0 0zM170 0v1536h426v-1536h-426zM582 2072h297q-1 -181 -134.5 -292.5t-360.5 -111.5t-360.5 111.5t-133.5 292.5h295q-1 -69 44.5 -124t154.5 -55q107 0 152.5 54.5t45.5 124.5z" />
    <glyph glyph-name="uni012E" unicode="&#x12e;" horiz-adv-x="782" 
d="M62 0zM616 2048v-2048h-433v2048h433zM421 -574q-133 0 -222.5 68.5t-112.5 195.5q-24 122 28.5 244t184.5 181l317 -115q-94 -44 -154 -95t-59 -123q-2 -100 97 -100q34 0 59.5 8.5t45.5 15.5l44 -220q-37 -21 -94 -40.5t-134 -19.5z" />
    <glyph glyph-name="uni012F" unicode="&#x12f;" horiz-adv-x="792" 
d="M33 0zM33 0zM392 -574q-133 0 -222.5 68.5t-112.5 195.5q-24 122 28.5 244t184.5 181l317 -115q-94 -44 -154 -95t-59 -123q-2 -100 97 -100q34 0 59.5 8.5t45.5 15.5l44 -220q-37 -21 -94 -40.5t-134 -19.5zM173 0v1536h426v-1536h-426zM386 1734q-94 0 -162 63.5
t-68 152.5t68 152t162 63q95 0 163 -63t68 -152t-68 -152.5t-163 -63.5z" />
    <glyph glyph-name="uni0130" unicode="&#x130;" horiz-adv-x="790" 
d="M166 0zM611 2048v-2048h-433v2048h433zM396 2246q-94 0 -162 63.5t-68 152.5t68 152t162 63q95 0 163 -63t68 -152t-68 -152.5t-163 -63.5z" />
    <glyph glyph-name="uni0131" unicode="&#x131;" horiz-adv-x="766" 
d="M170 0v1536h426v-1536h-426z" />
    <glyph glyph-name="uni0132" unicode="&#x132;" horiz-adv-x="2394" 
d="M178 0zM611 2048v-2048h-433v2048h433zM1788 2048h428v-1428q0 -198 -88.5 -343.5t-245.5 -225t-365 -79.5q-185 0 -335.5 66t-238.5 200t-87 338h431q2 -122 70.5 -189.5t181.5 -67.5q247 0 249 301v1428z" />
    <glyph glyph-name="uni0133" unicode="&#x133;" horiz-adv-x="1533" 
d="M154 0zM154 0zM170 0v1536h426v-1536h-426zM384 1734q-94 0 -162 63.5t-68 152.5t68 152t162 63q95 0 163 -63t68 -152t-68 -152.5t-163 -63.5zM766 0zM936 1536h426v-1607q0 -267 -156 -387t-433 -113q-17 0 -35.5 0.5t-43.5 1.5v333q17 -1 30 -1.5t26 -0.5
q103 0 144.5 43.5t41.5 130.5v1600zM1148 1734q-94 0 -162 63.5t-68 152.5t68 152t162 63q95 0 163 -63t68 -152t-68 -152.5t-163 -63.5z" />
    <glyph glyph-name="uni0134" unicode="&#x134;" horiz-adv-x="1605" 
d="M65 0zM998 2048h428v-1428q0 -198 -88.5 -343.5t-245.5 -225t-365 -79.5q-185 0 -335.5 66t-238.5 200t-87 338h431q2 -122 70.5 -189.5t181.5 -67.5q247 0 249 301v1428zM647 2230zM1010 2230l201 244l201 -244h363v14l-406 440h-317l-405 -440v-14h363z" />
    <glyph glyph-name="uni0135" unicode="&#x135;" horiz-adv-x="766" 
d="M0 0zM170 1536h426v-1607q0 -267 -156 -387t-433 -113q-17 0 -35.5 0.5t-43.5 1.5v333q17 -1 30 -1.5t26 -0.5q103 0 144.5 43.5t41.5 130.5v1600zM-181 1718zM182 1718l201 244l201 -244h363v14l-406 440h-317l-405 -440v-14h363z" />
    <glyph glyph-name="uni0136" unicode="&#x136;" horiz-adv-x="1942" 
d="M178 0zM178 0v2048h433v-903h27l737 903h519l-760 -917l769 -1131h-518l-561 842l-213 -260v-582h-433zM1124 -116v-213q0 -164 -45.5 -308t-147.5 -252l-227 103q1 1 2 4q46 95 77.5 186.5t30.5 243.5v236h310z" />
    <glyph glyph-name="uni0137" unicode="&#x137;" horiz-adv-x="1638" 
d="M170 0zM170 0v2048h426v-1095h23l492 583h489l-570 -665l599 -871h-499l-419 619l-115 -131v-488h-426zM996 -119v-213q0 -164 -45.5 -308t-147.5 -252l-227 103q1 1 2 4q46 95 77.5 186.5t30.5 243.5v236h310z" />
    <glyph glyph-name="uni0138" unicode="&#x138;" horiz-adv-x="1889" 
d="M624 1488v-550h124l386 550h531l-530 -718l552 -770h-537l-354 537h-172v-537h-422v1488h422z" />
    <glyph glyph-name="uni0139" unicode="&#x139;" horiz-adv-x="1598" 
d="M178 0zM178 0v2048h433v-1691h878v-357h-1311zM238 2246l213 455h393l-305 -455h-301z" />
    <glyph glyph-name="uni013A" unicode="&#x13a;" horiz-adv-x="766" 
d="M170 0zM596 2048v-2048h-426v2048h426zM229 2246l213 455h393l-305 -455h-301z" />
    <glyph glyph-name="uni013B" unicode="&#x13b;" horiz-adv-x="1598" 
d="M178 0zM178 0v2048h433v-1691h878v-357h-1311zM994 -119v-213q0 -164 -45.5 -308t-147.5 -252l-227 103q1 1 2 4q46 95 77.5 186.5t30.5 243.5v236h310z" />
    <glyph glyph-name="uni013C" unicode="&#x13c;" horiz-adv-x="766" 
d="M125 0zM596 2048v-2048h-426v2048h426zM545 -119v-213q0 -164 -45.5 -308t-147.5 -252l-227 103q1 1 2 4q46 95 77.5 186.5t30.5 243.5v236h310z" />
    <glyph glyph-name="uni013D" unicode="&#x13d;" horiz-adv-x="1598" 
d="M178 0zM178 0v2048h433v-1691h878v-357h-1311zM815 1275zM1235 2048v-213q0 -164 -45.5 -308t-147.5 -252l-227 103q1 1 2 4q46 95 77.5 186.5t30.5 243.5v236h310z" />
    <glyph glyph-name="uni013E" unicode="&#x13e;" horiz-adv-x="1028" 
d="M180 0zM606 2048v-2048h-426v2048h426zM652 1275zM1072 2048v-213q0 -164 -45.5 -308t-147.5 -252l-227 103q1 1 2 4q46 95 77.5 186.5t30.5 243.5v236h310z" />
    <glyph glyph-name="uni013F" unicode="&#x13f;" horiz-adv-x="1632" 
d="M185 0zM185 0v2048h433v-1691h878v-357h-1311zM1036 1026q-94 0 -162 63.5t-68 152.5t68 152t162 63q95 0 163 -63t68 -152t-68 -152.5t-163 -63.5z" />
    <glyph glyph-name="uni0140" unicode="&#x140;" horiz-adv-x="1159" 
d="M180 0zM606 2048v-2048h-426v2048h426zM961 909q-94 0 -162 63.5t-68 152.5t68 152t162 63q95 0 163 -63t68 -152t-68 -152.5t-163 -63.5z" />
    <glyph glyph-name="uni0141" unicode="&#x141;" horiz-adv-x="1649" 
d="M968 1323v-237l-271 -75v-654h878v-357h-1311v892l-223 -62v235l223 62v921h433v-800z" />
    <glyph glyph-name="uni0142" unicode="&#x142;" horiz-adv-x="766" 
d="M787 1333v-236l-191 -61v-1036h-426v899l-191 -61v236l191 61v913h426v-776z" />
    <glyph glyph-name="uni0143" unicode="&#x143;" horiz-adv-x="2070" 
d="M178 0zM1891 2048v-2048h-374l-891 1289h-15v-1289h-433v2048h380l884 -1288h18v1288h431zM883 2246l213 455h393l-305 -455h-301z" />
    <glyph glyph-name="uni0144" unicode="&#x144;" 
d="M170 0zM596 888v-888h-426v1536h406v-271h18q52 134 171.5 212.5t290.5 78.5q240 0 385 -154.5t145 -423.5v-978h-426v902q1 141 -72 220.5t-201 79.5q-129 0 -209.5 -82.5t-81.5 -231.5zM723 1734l213 455h393l-305 -455h-301z" />
    <glyph glyph-name="uni0145" unicode="&#x145;" horiz-adv-x="2070" 
d="M178 0zM1891 2048v-2048h-374l-891 1289h-15v-1289h-433v2048h380l884 -1288h18v1288h431zM1197 -119v-213q0 -164 -45.5 -308t-147.5 -252l-227 103q1 1 2 4q46 95 77.5 186.5t30.5 243.5v236h310z" />
    <glyph glyph-name="uni0146" unicode="&#x146;" 
d="M170 0zM596 888v-888h-426v1536h406v-271h18q52 134 171.5 212.5t290.5 78.5q240 0 385 -154.5t145 -423.5v-978h-426v902q1 141 -72 220.5t-201 79.5q-129 0 -209.5 -82.5t-81.5 -231.5zM1037 -119v-213q0 -164 -45.5 -308t-147.5 -252l-227 103q1 1 2 4
q46 95 77.5 186.5t30.5 243.5v236h310z" />
    <glyph glyph-name="uni0147" unicode="&#x147;" horiz-adv-x="2070" 
d="M178 0zM1891 2048v-2048h-374l-891 1289h-15v-1289h-433v2048h380l884 -1288h18v1288h431zM835 2686l201 -244l201 244h363v-14l-406 -440h-317l-405 440v14h363z" />
    <glyph glyph-name="uni0148" unicode="&#x148;" 
d="M170 0zM596 888v-888h-426v1536h406v-271h18q52 134 171.5 212.5t290.5 78.5q240 0 385 -154.5t145 -423.5v-978h-426v902q1 141 -72 220.5t-201 79.5q-129 0 -209.5 -82.5t-81.5 -231.5zM676 2174l201 -244l201 244h363v-14l-406 -440h-317l-405 440v14h363z" />
    <glyph glyph-name="uni014A" unicode="&#x14a;" horiz-adv-x="2070" 
d="M1517 0l-891 1289h-15v-1289h-433v2048h380l884 -1288h18v1288h431v-2130q0 -195 -75 -310t-210.5 -165t-316.5 -50q-37 0 -78.5 5t-76.5 16v322q65 -15 148 -15q105 0 170 46.5t65 144.5v88z" />
    <glyph glyph-name="uni014B" unicode="&#x14b;" horiz-adv-x="1778" 
d="M596 888v-888h-426v1536h406v-271h18q52 134 171.5 212.5t290.5 78.5q240 0 385 -154.5t145 -423.5v-1063q0 -254 -151.5 -382t-397.5 -128q-55 0 -108.5 3t-106.5 14l28 346q29 -7 59.5 -11t67.5 -4q86 0 134.5 38t48.5 124v987q1 141 -72 220.5t-201 79.5
q-129 0 -209.5 -82.5t-81.5 -231.5z" />
    <glyph glyph-name="uni014C" unicode="&#x14c;" horiz-adv-x="2202" 
d="M142 0zM2060 1024q0 -335 -126.5 -570t-343.5 -358.5t-489 -123.5q-273 0 -490 124t-343 359.5t-126 568.5q0 335 126 570t343 358.5t490 123.5q272 0 489 -123.5t343.5 -358.5t126.5 -570zM1621 1024q0 326 -142 497.5t-378 171.5t-378 -171.5t-142 -497.5
q0 -325 142 -497t378 -172t378 172t142 497zM1588 2560v-231h-974v231h974z" />
    <glyph glyph-name="uni014D" unicode="&#x14d;" horiz-adv-x="1728" 
d="M108 0zM864 -30q-233 0 -402.5 99.5t-261.5 278t-92 414.5q0 238 92 416.5t261.5 278t402.5 99.5t402.5 -99.5t261.5 -278t92 -416.5q0 -236 -92 -414.5t-261.5 -278t-402.5 -99.5zM866 300q158 0 239.5 132t81.5 333t-81.5 333.5t-239.5 132.5q-161 0 -243 -132.5
t-82 -333.5t82 -333t243 -132zM1351 2048v-231h-974v231h974z" />
    <glyph glyph-name="uni014E" unicode="&#x14e;" horiz-adv-x="2202" 
d="M142 0zM2060 1024q0 -335 -126.5 -570t-343.5 -358.5t-489 -123.5q-273 0 -490 124t-343 359.5t-126 568.5q0 335 126 570t343 358.5t490 123.5q272 0 489 -123.5t343.5 -358.5t126.5 -570zM1621 1024q0 326 -142 497.5t-378 171.5t-378 -171.5t-142 -497.5
q0 -325 142 -497t378 -172t378 172t142 497zM1299 2584h297q-1 -181 -134.5 -292.5t-360.5 -111.5t-360.5 111.5t-133.5 292.5h295q-1 -69 44.5 -124t154.5 -55q107 0 152.5 54.5t45.5 124.5z" />
    <glyph glyph-name="uni014F" unicode="&#x14f;" horiz-adv-x="1728" 
d="M108 0zM864 -30q-233 0 -402.5 99.5t-261.5 278t-92 414.5q0 238 92 416.5t261.5 278t402.5 99.5t402.5 -99.5t261.5 -278t92 -416.5q0 -236 -92 -414.5t-261.5 -278t-402.5 -99.5zM866 300q158 0 239.5 132t81.5 333t-81.5 333.5t-239.5 132.5q-161 0 -243 -132.5
t-82 -333.5t82 -333t243 -132zM1062 2072h297q-1 -181 -134.5 -292.5t-360.5 -111.5t-360.5 111.5t-133.5 292.5h295q-1 -69 44.5 -124t154.5 -55q107 0 152.5 54.5t45.5 124.5z" />
    <glyph glyph-name="uni0150" unicode="&#x150;" horiz-adv-x="2202" 
d="M142 0zM2060 1024q0 -335 -126.5 -570t-343.5 -358.5t-489 -123.5q-273 0 -490 124t-343 359.5t-126 568.5q0 335 126 570t343 358.5t490 123.5q272 0 489 -123.5t343.5 -358.5t126.5 -570zM1621 1024q0 326 -142 497.5t-378 171.5t-378 -171.5t-142 -497.5
q0 -325 142 -497t378 -172t378 172t142 497zM1176 2226l317 414h360l-376 -414h-301zM663 2226l267 414h358l-327 -414h-298z" />
    <glyph glyph-name="uni0151" unicode="&#x151;" horiz-adv-x="1728" 
d="M108 0zM864 -30q-233 0 -402.5 99.5t-261.5 278t-92 414.5q0 238 92 416.5t261.5 278t402.5 99.5t402.5 -99.5t261.5 -278t92 -416.5q0 -236 -92 -414.5t-261.5 -278t-402.5 -99.5zM866 300q158 0 239.5 132t81.5 333t-81.5 333.5t-239.5 132.5q-161 0 -243 -132.5
t-82 -333.5t82 -333t243 -132zM939 1714l317 414h360l-376 -414h-301zM426 1714l267 414h358l-327 -414h-298z" />
    <glyph glyph-name="uni0152" unicode="&#x152;" horiz-adv-x="2866" 
d="M1072 0q-266 0 -477 117.5t-332 345.5t-121 559q0 333 121 562t332 346.5t477 117.5h1628v-357h-947v-488h876v-357h-876v-489h951v-357h-1632zM1320 357v1334h-248q-218 0 -357.5 -161t-138.5 -508q-1 -348 138.5 -506.5t357.5 -158.5h248z" />
    <glyph glyph-name="uni0153" unicode="&#x153;" horiz-adv-x="2750" 
d="M113 0zM869 -30q-233 0 -402.5 99.5t-261.5 278t-92 414.5q0 238 92 416.5t261.5 278t402.5 99.5t402.5 -99.5t261.5 -278t92 -416.5q0 -236 -92 -414.5t-261.5 -278t-402.5 -99.5zM871 300q158 0 239.5 132t81.5 333t-81.5 333.5t-239.5 132.5q-161 0 -243 -132.5
t-82 -333.5t82 -333t243 -132zM1976 -30q-236 0 -407 96.5t-263 274t-92 420.5q0 237 92 416t259.5 279t393.5 100q203 0 366.5 -86t259.5 -259.5t96 -434.5v-117h-1046v-1q0 -172 94 -271t254 -99q107 0 185 45t110 133l394 -26q-45 -214 -228 -342t-468 -128zM1635 923
h645q-1 137 -88 226t-226 89q-142 0 -233 -92t-98 -223z" />
    <glyph glyph-name="uni0154" unicode="&#x154;" horiz-adv-x="1848" 
d="M178 0zM178 0v2048h808q349 0 541.5 -182t192.5 -487q0 -210 -93.5 -359t-268.5 -224l435 -796h-478l-388 726h-316v-726h-433zM611 1074h294q369 0 369 305q0 315 -371 315h-292v-620zM759 2246l213 455h393l-305 -455h-301z" />
    <glyph glyph-name="uni0155" unicode="&#x155;" horiz-adv-x="1207" 
d="M170 0zM170 0v1536h413v-268h16q42 143 140.5 216.5t228.5 73.5q62 0 115 -15t95 -41l-128 -352q-30 15 -65.5 25.5t-79.5 10.5q-129 0 -218.5 -88t-90.5 -229v-869h-426zM479 1734l213 455h393l-305 -455h-301z" />
    <glyph glyph-name="uni0156" unicode="&#x156;" horiz-adv-x="1848" 
d="M178 0zM178 0v2048h808q349 0 541.5 -182t192.5 -487q0 -210 -93.5 -359t-268.5 -224l435 -796h-478l-388 726h-316v-726h-433zM611 1074h294q369 0 369 305q0 315 -371 315h-292v-620zM1106 -119v-213q0 -164 -45.5 -308t-147.5 -252l-227 103q1 1 2 4q46 95 77.5 186.5
t30.5 243.5v236h310z" />
    <glyph glyph-name="uni0157" unicode="&#x157;" horiz-adv-x="1207" 
d="M125 0zM170 0v1536h413v-268h16q42 143 140.5 216.5t228.5 73.5q62 0 115 -15t95 -41l-128 -352q-30 15 -65.5 25.5t-79.5 10.5q-129 0 -218.5 -88t-90.5 -229v-869h-426zM545 -119v-213q0 -164 -45.5 -308t-147.5 -252l-227 103q1 1 2 4q46 95 77.5 186.5t30.5 243.5
v236h310z" />
    <glyph glyph-name="uni0158" unicode="&#x158;" horiz-adv-x="1848" 
d="M178 0zM178 0v2048h808q349 0 541.5 -182t192.5 -487q0 -210 -93.5 -359t-268.5 -224l435 -796h-478l-388 726h-316v-726h-433zM611 1074h294q369 0 369 305q0 315 -371 315h-292v-620zM711 2686l201 -244l201 244h363v-14l-406 -440h-317l-405 440v14h363z" />
    <glyph glyph-name="uni0159" unicode="&#x159;" horiz-adv-x="1207" 
d="M69 0zM170 0v1536h413v-268h16q42 143 140.5 216.5t228.5 73.5q62 0 115 -15t95 -41l-128 -352q-30 15 -65.5 25.5t-79.5 10.5q-129 0 -218.5 -88t-90.5 -229v-869h-426zM432 2174l201 -244l201 244h363v-14l-406 -440h-317l-405 440v14h363z" />
    <glyph glyph-name="uni015A" unicode="&#x15a;" horiz-adv-x="1844" 
d="M112 0zM1289 1459q-12 121 -103.5 188t-246.5 67q-159 0 -244 -65t-85 -164q-2 -110 94.5 -166.5t229.5 -87.5l184 -44q178 -40 316.5 -116t218 -195.5t79.5 -290.5q-1 -281 -210.5 -447.5t-584.5 -166.5q-373 0 -595 170t-230 502h419q11 -154 121.5 -231.5t279.5 -77.5
q165 0 263.5 70t99.5 182q-1 104 -91 160t-257 96l-223 56q-259 62 -409 197t-149 361q-1 186 99.5 325.5t276.5 217t400 77.5q228 0 398.5 -78t265.5 -217t98 -322h-415zM769 2246l213 455h393l-305 -455h-301z" />
    <glyph glyph-name="uni015B" unicode="&#x15b;" horiz-adv-x="1582" 
d="M102 0zM1448 1098l-390 -24q-16 74 -81 127t-176 53q-99 0 -167.5 -41.5t-67.5 -110.5q-1 -55 43.5 -93t151.5 -61l278 -56q443 -91 444 -416q0 -151 -88.5 -265t-242.5 -177.5t-353 -63.5q-305 0 -486 127.5t-211 347.5l419 22q20 -94 92.5 -142t186.5 -48
q112 0 180.5 44t69.5 112q-3 114 -197 153l-266 53q-446 89 -444 439q-1 222 177.5 350t473.5 128q291 0 458.5 -123t195.5 -335zM650 1734l213 455h393l-305 -455h-301z" />
    <glyph glyph-name="uni015C" unicode="&#x15c;" horiz-adv-x="1844" 
d="M112 0zM1289 1459q-12 121 -103.5 188t-246.5 67q-159 0 -244 -65t-85 -164q-2 -110 94.5 -166.5t229.5 -87.5l184 -44q178 -40 316.5 -116t218 -195.5t79.5 -290.5q-1 -281 -210.5 -447.5t-584.5 -166.5q-373 0 -595 170t-230 502h419q11 -154 121.5 -231.5t279.5 -77.5
q165 0 263.5 70t99.5 182q-1 104 -91 160t-257 96l-223 56q-259 62 -409 197t-149 361q-1 186 99.5 325.5t276.5 217t400 77.5q228 0 398.5 -78t265.5 -217t98 -322h-415zM359 2230zM722 2230l201 244l201 -244h363v14l-406 440h-317l-405 -440v-14h363z" />
    <glyph glyph-name="uni015D" unicode="&#x15d;" horiz-adv-x="1582" 
d="M102 0zM1448 1098l-390 -24q-16 74 -81 127t-176 53q-99 0 -167.5 -41.5t-67.5 -110.5q-1 -55 43.5 -93t151.5 -61l278 -56q443 -91 444 -416q0 -151 -88.5 -265t-242.5 -177.5t-353 -63.5q-305 0 -486 127.5t-211 347.5l419 22q20 -94 92.5 -142t186.5 -48
q112 0 180.5 44t69.5 112q-3 114 -197 153l-266 53q-446 89 -444 439q-1 222 177.5 350t473.5 128q291 0 458.5 -123t195.5 -335zM239 1718zM602 1718l201 244l201 -244h363v14l-406 440h-317l-405 -440v-14h363z" />
    <glyph glyph-name="uni015E" unicode="&#x15e;" horiz-adv-x="1844" 
d="M112 0zM1289 1459q-12 121 -103.5 188t-246.5 67q-159 0 -244 -65t-85 -164q-2 -110 94.5 -166.5t229.5 -87.5l184 -44q178 -40 316.5 -116t218 -195.5t79.5 -290.5q-1 -281 -210.5 -447.5t-584.5 -166.5q-373 0 -595 170t-230 502h419q11 -154 121.5 -231.5t279.5 -77.5
q165 0 263.5 70t99.5 182q-1 104 -91 160t-257 96l-223 56q-259 62 -409 197t-149 361q-1 186 99.5 325.5t276.5 217t400 77.5q228 0 398.5 -78t265.5 -217t98 -322h-415zM827 8h196l-16 -87q103 -16 168.5 -77t66.5 -166q1 -149 -138 -237.5t-390 -88.5l-4 190
q126 0 198 30.5t74 94.5q2 62 -47 93.5t-153 44.5z" />
    <glyph glyph-name="uni015F" unicode="&#x15f;" horiz-adv-x="1582" 
d="M102 0zM1448 1098l-390 -24q-16 74 -81 127t-176 53q-99 0 -167.5 -41.5t-67.5 -110.5q-1 -55 43.5 -93t151.5 -61l278 -56q443 -91 444 -416q0 -151 -88.5 -265t-242.5 -177.5t-353 -63.5q-305 0 -486 127.5t-211 347.5l419 22q20 -94 92.5 -142t186.5 -48
q112 0 180.5 44t69.5 112q-3 114 -197 153l-266 53q-446 89 -444 439q-1 222 177.5 350t473.5 128q291 0 458.5 -123t195.5 -335zM706 8h196l-16 -87q103 -16 168.5 -77t66.5 -166q1 -149 -138 -237.5t-390 -88.5l-4 190q126 0 198 30.5t74 94.5q2 62 -47 93.5t-153 44.5z
" />
    <glyph glyph-name="uni0160" unicode="&#x160;" horiz-adv-x="1844" 
d="M112 0zM1289 1459q-12 121 -103.5 188t-246.5 67q-159 0 -244 -65t-85 -164q-2 -110 94.5 -166.5t229.5 -87.5l184 -44q178 -40 316.5 -116t218 -195.5t79.5 -290.5q-1 -281 -210.5 -447.5t-584.5 -166.5q-373 0 -595 170t-230 502h419q11 -154 121.5 -231.5t279.5 -77.5
q165 0 263.5 70t99.5 182q-1 104 -91 160t-257 96l-223 56q-259 62 -409 197t-149 361q-1 186 99.5 325.5t276.5 217t400 77.5q228 0 398.5 -78t265.5 -217t98 -322h-415zM722 2686l201 -244l201 244h363v-14l-406 -440h-317l-405 440v14h363z" />
    <glyph glyph-name="uni0161" unicode="&#x161;" horiz-adv-x="1582" 
d="M102 0zM1448 1098l-390 -24q-16 74 -81 127t-176 53q-99 0 -167.5 -41.5t-67.5 -110.5q-1 -55 43.5 -93t151.5 -61l278 -56q443 -91 444 -416q0 -151 -88.5 -265t-242.5 -177.5t-353 -63.5q-305 0 -486 127.5t-211 347.5l419 22q20 -94 92.5 -142t186.5 -48
q112 0 180.5 44t69.5 112q-3 114 -197 153l-266 53q-446 89 -444 439q-1 222 177.5 350t473.5 128q291 0 458.5 -123t195.5 -335zM602 2174l201 -244l201 244h363v-14l-406 -440h-317l-405 440v14h363z" />
    <glyph glyph-name="uni0162" unicode="&#x162;" horiz-adv-x="1882" 
d="M100 0zM100 1691v357h1682v-357h-627v-1691h-428v1691h-627zM849 8h196l-16 -87q103 -16 168.5 -77t66.5 -166q1 -149 -138 -237.5t-390 -88.5l-4 190q126 0 198 30.5t74 94.5q2 62 -47 93.5t-153 44.5z" />
    <glyph glyph-name="uni0163" unicode="&#x163;" horiz-adv-x="1094" 
d="M62 0zM987 1536v-320h-289v-744q0 -88 40 -119t104 -31q30 0 60 5.5t46 8.5l67 -317q-32 -10 -90 -23.5t-141 -16.5q-232 -10 -372.5 100.5t-139.5 336.5v800h-210v320h210v368h426v-368h289zM646 8h196l-16 -87q103 -16 168.5 -77t66.5 -166q1 -149 -138 -237.5
t-390 -88.5l-4 190q126 0 198 30.5t74 94.5q2 62 -47 93.5t-153 44.5z" />
    <glyph glyph-name="uni0164" unicode="&#x164;" horiz-adv-x="1882" 
d="M100 0zM100 1691v357h1682v-357h-627v-1691h-428v1691h-627zM742 2686l201 -244l201 244h363v-14l-406 -440h-317l-405 440v14h363z" />
    <glyph glyph-name="uni0165" unicode="&#x165;" horiz-adv-x="1274" 
d="M62 0zM987 1536v-320h-289v-744q0 -88 40 -119t104 -31q30 0 60 5.5t46 8.5l67 -317q-32 -10 -90 -23.5t-141 -16.5q-232 -10 -372.5 100.5t-139.5 336.5v800h-210v320h210v368h426v-368h289zM776 1608zM1196 2381v-213q0 -164 -45.5 -308t-147.5 -252l-227 103q1 1 2 4
q46 95 77.5 186.5t30.5 243.5v236h310z" />
    <glyph glyph-name="uni0166" unicode="&#x166;" horiz-adv-x="1882" 
d="M100 0zM100 1691v357h1682v-357h-627v-1691h-428v1691h-627zM440 853v251h998v-251h-998z" />
    <glyph glyph-name="uni0167" unicode="&#x167;" horiz-adv-x="1094" 
d="M62 770v204h210v242h-210v320h210v368h426v-368h289v-320h-289v-242h289v-204h-289v-298q0 -88 40 -119t104 -31q30 0 60 5.5t46 8.5l67 -317q-32 -10 -90 -23.5t-141 -16.5q-232 -10 -372.5 100.5t-139.5 336.5v354h-210z" />
    <glyph glyph-name="uni0168" unicode="&#x168;" horiz-adv-x="2054" 
d="M178 0zM1446 2048h430v-1354q0 -232 -109 -393.5t-300.5 -245.5t-439.5 -84t-440 84t-300.5 245.5t-108.5 393.5v1354h433v-1339q0 -164 118.5 -258t297.5 -94q182 0 300.5 94t118.5 258v1339zM741 2237l-237 3q0 191 94.5 293t230.5 103q78 0 132 -28.5t99 -59.5
q35 -25 67.5 -43.5t70.5 -18.5q58 1 88 43.5t31 111.5l233 -7q-1 -190 -95 -292t-230 -103q-84 0 -137 28.5t-95 59.5q-33 25 -65 43.5t-72 18.5q-52 0 -83.5 -41t-31.5 -111z" />
    <glyph glyph-name="uni0169" unicode="&#x169;" 
d="M170 0zM1155 654v882h426v-1536h-409v279h-16q-52 -135 -172.5 -217t-293.5 -82q-232 0 -375.5 154.5t-144.5 423.5v978h426v-902q1 -136 73 -215t193 -79q115 0 204.5 80t88.5 234zM592 1725l-237 3q0 191 94.5 293t230.5 103q78 0 132 -28.5t99 -59.5
q35 -25 67.5 -43.5t70.5 -18.5q58 1 88 43.5t31 111.5l233 -7q-1 -190 -95 -292t-230 -103q-84 0 -137 28.5t-95 59.5q-33 25 -65 43.5t-72 18.5q-52 0 -83.5 -41t-31.5 -111z" />
    <glyph glyph-name="uni016A" unicode="&#x16a;" horiz-adv-x="2054" 
d="M178 0zM1446 2048h430v-1354q0 -232 -109 -393.5t-300.5 -245.5t-439.5 -84t-440 84t-300.5 245.5t-108.5 393.5v1354h433v-1339q0 -164 118.5 -258t297.5 -94q182 0 300.5 94t118.5 258v1339zM1514 2560v-231h-974v231h974z" />
    <glyph glyph-name="uni016B" unicode="&#x16b;" 
d="M170 0zM1155 654v882h426v-1536h-409v279h-16q-52 -135 -172.5 -217t-293.5 -82q-232 0 -375.5 154.5t-144.5 423.5v978h426v-902q1 -136 73 -215t193 -79q115 0 204.5 80t88.5 234zM1364 2048v-231h-974v231h974z" />
    <glyph glyph-name="uni016C" unicode="&#x16c;" horiz-adv-x="2054" 
d="M178 0zM1446 2048h430v-1354q0 -232 -109 -393.5t-300.5 -245.5t-439.5 -84t-440 84t-300.5 245.5t-108.5 393.5v1354h433v-1339q0 -164 118.5 -258t297.5 -94q182 0 300.5 94t118.5 258v1339zM1225 2584h297q-1 -181 -134.5 -292.5t-360.5 -111.5t-360.5 111.5
t-133.5 292.5h295q-1 -69 44.5 -124t154.5 -55q107 0 152.5 54.5t45.5 124.5z" />
    <glyph glyph-name="uni016D" unicode="&#x16d;" 
d="M170 0zM1155 654v882h426v-1536h-409v279h-16q-52 -135 -172.5 -217t-293.5 -82q-232 0 -375.5 154.5t-144.5 423.5v978h426v-902q1 -136 73 -215t193 -79q115 0 204.5 80t88.5 234zM1076 2072h297q-1 -181 -134.5 -292.5t-360.5 -111.5t-360.5 111.5t-133.5 292.5h295
q-1 -69 44.5 -124t154.5 -55q107 0 152.5 54.5t45.5 124.5z" />
    <glyph glyph-name="uni016E" unicode="&#x16e;" horiz-adv-x="2054" 
d="M178 0zM1446 2048h430v-1354q0 -232 -109 -393.5t-300.5 -245.5t-439.5 -84t-440 84t-300.5 245.5t-108.5 393.5v1354h433v-1339q0 -164 118.5 -258t297.5 -94q182 0 300.5 94t118.5 258v1339zM1027 2158q-90 0 -163.5 41.5t-117.5 112t-44 155.5q0 86 44 156t117.5 112
t163.5 42t163.5 -42t117.5 -112t44 -156q0 -85 -44 -155.5t-117.5 -112t-163.5 -41.5zM1027 2331q59 1 100.5 40.5t41.5 95.5t-41.5 96.5t-100.5 39.5q-58 0 -100.5 -40t-42.5 -96t42 -96t101 -40z" />
    <glyph glyph-name="uni016F" unicode="&#x16f;" 
d="M170 0zM1155 654v882h426v-1536h-409v279h-16q-52 -135 -172.5 -217t-293.5 -82q-232 0 -375.5 154.5t-144.5 423.5v978h426v-902q1 -136 73 -215t193 -79q115 0 204.5 80t88.5 234zM878 1701q-95 0 -173 44t-124 118.5t-46 165.5t46 166.5t124 121t173 45.5t172 -45.5
t123 -121t46 -166.5t-46 -165.5t-123 -118.5t-172 -44zM878 1879q66 1 111 46t45 104q0 61 -45 107t-111 46q-67 -1 -111.5 -46.5t-44.5 -106.5q0 -59 44.5 -104.5t111.5 -45.5z" />
    <glyph glyph-name="uni0170" unicode="&#x170;" horiz-adv-x="2054" 
d="M178 0zM1446 2048h430v-1354q0 -232 -109 -393.5t-300.5 -245.5t-439.5 -84t-440 84t-300.5 245.5t-108.5 393.5v1354h433v-1339q0 -164 118.5 -258t297.5 -94q182 0 300.5 94t118.5 258v1339zM1102 2226l317 414h360l-376 -414h-301zM589 2226l267 414h358l-327 -414
h-298z" />
    <glyph glyph-name="uni0171" unicode="&#x171;" 
d="M170 0zM1155 654v882h426v-1536h-409v279h-16q-52 -135 -172.5 -217t-293.5 -82q-232 0 -375.5 154.5t-144.5 423.5v978h426v-902q1 -136 73 -215t193 -79q115 0 204.5 80t88.5 234zM952 1714l317 414h360l-376 -414h-301zM439 1714l267 414h358l-327 -414h-298z" />
    <glyph glyph-name="uni0172" unicode="&#x172;" horiz-adv-x="2054" 
d="M178 0zM1446 2048h430v-1354q0 -232 -109 -393.5t-300.5 -245.5t-439.5 -84t-440 84t-300.5 245.5t-108.5 393.5v1354h433v-1339q0 -164 118.5 -258t297.5 -94q182 0 300.5 94t118.5 258v1339zM1093 -572q-133 0 -222.5 68.5t-112.5 195.5q-24 122 28.5 244t184.5 181
l317 -115q-94 -44 -154 -95t-59 -123q-2 -100 97 -100q34 0 59.5 8.5t45.5 15.5l44 -220q-37 -21 -94 -40.5t-134 -19.5z" />
    <glyph glyph-name="uni0173" unicode="&#x173;" 
d="M170 0zM1155 654v882h426v-1536h-409v279h-16q-52 -135 -172.5 -217t-293.5 -82q-232 0 -375.5 154.5t-144.5 423.5v978h426v-902q1 -136 73 -215t193 -79q115 0 204.5 80t88.5 234zM1386 -574q-133 0 -222.5 68.5t-112.5 195.5q-24 122 28.5 244t184.5 181l317 -115
q-94 -44 -154 -95t-59 -123q-2 -100 97 -100q34 0 59.5 8.5t45.5 15.5l44 -220q-37 -21 -94 -40.5t-134 -19.5z" />
    <glyph glyph-name="uni0174" unicode="&#x174;" horiz-adv-x="2917" 
d="M53 0zM639 0l-586 2048h473l339 -1423h17l374 1423h405l373 -1426h18l339 1426h473l-586 -2048h-422l-390 1339h-16l-389 -1339h-422zM895 2230zM1258 2230l201 244l201 -244h363v14l-406 440h-317l-405 -440v-14h363z" />
    <glyph glyph-name="uni0175" unicode="&#x175;" horiz-adv-x="2394" 
d="M55 0zM473 0l-418 1536h431l238 -1032h14l248 1032h423l252 -1026h13l234 1026h430l-417 -1536h-451l-264 966h-19l-264 -966h-450zM633 1718zM996 1718l201 244l201 -244h363v14l-406 440h-317l-405 -440v-14h363z" />
    <glyph glyph-name="uni0176" unicode="&#x176;" horiz-adv-x="2040" 
d="M58 0zM58 2048h485l467 -882h20l467 882h485l-747 -1324v-724h-430v724zM456 2230zM819 2230l201 244l201 -244h363v14l-406 440h-317l-405 -440v-14h363z" />
    <glyph glyph-name="uni0177" unicode="&#x177;" horiz-adv-x="1650" 
d="M48 0zM418 -598q-91 0 -155.5 15.5t-100.5 31.5l96 330q113 -34 190.5 -18t122.5 121l28 74l-551 1580h448l318 -1128h16l321 1128h451l-600 -1712q-65 -184 -207.5 -303t-376.5 -119zM259 1718zM622 1718l201 244l201 -244h363v14l-406 440h-317l-405 -440v-14h363z" />
    <glyph glyph-name="uni0178" unicode="&#x178;" horiz-adv-x="2040" 
d="M58 0zM58 2048h485l467 -882h20l467 882h485l-747 -1324v-724h-430v724zM505 2258zM715 2258q-86 0 -148 60.5t-62 143.5q0 85 62 144t148 59q87 0 147.5 -59t60.5 -144q0 -83 -60.5 -143.5t-147.5 -60.5zM1327 2258q-86 0 -148 60.5t-62 143.5q0 85 62 144t148 59
q87 0 147.5 -59t60.5 -144q0 -83 -60.5 -143.5t-147.5 -60.5z" />
    <glyph glyph-name="uni0179" unicode="&#x179;" horiz-adv-x="1878" 
d="M154 0zM156 0v257l1022 1434h-1024v357h1568v-257l-1023 -1434h1025v-357h-1568zM789 2246l213 455h393l-305 -455h-301z" />
    <glyph glyph-name="uni017A" unicode="&#x17a;" horiz-adv-x="1610" 
d="M162 0zM162 0v254l752 931v11h-726v340h1239v-277l-706 -908v-11h732v-340h-1291zM650 1734l213 455h393l-305 -455h-301z" />
    <glyph glyph-name="uni017B" unicode="&#x17b;" horiz-adv-x="1878" 
d="M154 0zM156 0v257l1022 1434h-1024v357h1568v-257l-1023 -1434h1025v-357h-1568zM942 2246q-94 0 -162 63.5t-68 152.5t68 152t162 63q95 0 163 -63t68 -152t-68 -152.5t-163 -63.5z" />
    <glyph glyph-name="uni017C" unicode="&#x17c;" horiz-adv-x="1610" 
d="M162 0zM162 0v254l752 931v11h-726v340h1239v-277l-706 -908v-11h732v-340h-1291zM803 1734q-94 0 -162 63.5t-68 152.5t68 152t162 63q95 0 163 -63t68 -152t-68 -152.5t-163 -63.5z" />
    <glyph glyph-name="uni017D" unicode="&#x17d;" horiz-adv-x="1878" 
d="M154 0zM156 0v257l1022 1434h-1024v357h1568v-257l-1023 -1434h1025v-357h-1568zM742 2686l201 -244l201 244h363v-14l-406 -440h-317l-405 440v14h363z" />
    <glyph glyph-name="uni017E" unicode="&#x17e;" horiz-adv-x="1610" 
d="M162 0zM162 0v254l752 931v11h-726v340h1239v-277l-706 -908v-11h732v-340h-1291zM602 2174l201 -244l201 244h363v-14l-406 -440h-317l-405 440v14h363z" />
    <glyph glyph-name="uni017F" unicode="&#x17f;" horiz-adv-x="814" 
d="M431 0h-422v1614q-1 257 150 391.5t422 134.5q55 0 111 -8t114 -20l-32 -319q-32 6 -61 9t-76 3q-206 0 -206 -191v-1614z" />
    <glyph glyph-name="uni0180" unicode="&#x180;" horiz-adv-x="1789" 
d="M0 0zM178 0v2048h426v-770h13q29 63 82 127t140 107.5t215 43.5q169 0 310 -87.5t226.5 -263t85.5 -439.5q0 -257 -83 -433.5t-224 -267t-316 -90.5q-124 0 -210.5 41t-141 103.5t-84.5 126.5h-19v-246h-420zM595 768q0 -205 84.5 -329.5t238.5 -124.5q157 0 240 126.5
t83 327.5q0 200 -82.5 324.5t-240.5 124.5q-155 0 -239 -121.5t-84 -327.5zM-111 1641v251h998v-251h-998z" />
    <glyph glyph-name="uni0181" unicode="&#x181;" horiz-adv-x="2440" 
d="M757 0v1694h-70q-83 0 -126.5 -38t-59.5 -97t-15 -121v-119h-386v201q-1 242 156 385t430 143h891q339 0 509.5 -147.5t170.5 -377.5q0 -181 -105 -292.5t-265 -147.5v-20q117 -5 219.5 -66t166.5 -170t64 -261q0 -163 -80.5 -291t-237.5 -201.5t-387 -73.5h-875z
M1190 354h353q182 0 264.5 70t82.5 185q0 127 -90.5 208t-246.5 81h-363v-544zM1190 1191h321q133 0 221 69.5t88 190.5q0 111 -78.5 179t-222.5 68h-329v-507z" />
    <glyph glyph-name="uni0182" unicode="&#x182;" horiz-adv-x="1845" 
d="M178 0v2048h1359v-357h-926v-400h333q243 0 420 -78.5t272.5 -221.5t95.5 -337q0 -193 -95.5 -340.5t-272.5 -230.5t-420 -83h-766zM611 348h333q174 0 266.5 92t92.5 218q0 122 -92.5 206.5t-266.5 84.5h-333v-601z" />
    <glyph glyph-name="uni0183" unicode="&#x183;" horiz-adv-x="1789" 
d="M1458 2048v-306h-854v-464h13q29 63 82 127t140 107.5t215 43.5q169 0 310 -87.5t226.5 -263t85.5 -439.5q0 -257 -83 -433.5t-224 -267t-316 -90.5q-124 0 -210.5 41t-141 103.5t-84.5 126.5h-19v-246h-420v2048h1280zM595 768q0 -205 84.5 -329.5t238.5 -124.5
q157 0 240 126.5t83 327.5q0 200 -82.5 324.5t-240.5 124.5q-155 0 -239 -121.5t-84 -327.5z" />
    <glyph glyph-name="uni0184" unicode="&#x184;" horiz-adv-x="2209" 
d="M962 1291h333q243 0 420 -78.5t272.5 -221.5t95.5 -337q0 -193 -95.5 -340.5t-272.5 -230.5t-420 -83h-765v1691h-495v357h927v-757zM962 949v-601h333q174 0 266.5 92t92.5 218q0 122 -92.5 206.5t-266.5 84.5h-333z" />
    <glyph glyph-name="uni0185" unicode="&#x185;" horiz-adv-x="1882" 
d="M371 2112h71v-64h351v-689h17q41 86 138.5 141.5t236.5 55.5q167 0 309 -87.5t228.5 -263t87.5 -439.5q-1 -258 -85 -434t-225 -266.5t-314 -90.5q-152 0 -245 56.5t-131 137.5h-23v-169h-420v1444l-258 228v203zM1406 768q-1 206 -85.5 327.5t-252.5 121.5
q-118 0 -188 -60t-100 -162t-30 -227t30 -228t100 -164.5t188 -61.5q167 0 252 124t86 330z" />
    <glyph glyph-name="uni0186" unicode="&#x186;" horiz-adv-x="2118" 
d="M1022 -28q-262 0 -453 103t-301.5 269t-134.5 354l437 2q31 -164 151 -254.5t293 -90.5q234 0 378.5 170.5t144.5 498.5q0 320 -143.5 494.5t-381.5 174.5q-178 0 -297 -96t-145 -266h-437q29 237 149.5 403.5t311.5 254t428 87.5q270 0 486 -123.5t342 -358.5t126 -570
q0 -333 -124.5 -568.5t-340 -359.5t-489.5 -124z" />
    <glyph glyph-name="uni0187" unicode="&#x187;" horiz-adv-x="2359" 
d="M1985 1331h-438q-25 169 -144 265.5t-297 96.5q-238 0 -381.5 -174.5t-143.5 -494.5q0 -328 144.5 -498.5t377.5 -170.5q173 0 293 90.5t151 254.5l438 -2q-23 -188 -134 -354t-301.5 -269t-453.5 -103q-274 0 -489.5 124t-340 359t-124.5 569q0 335 126 570t342 358.5
t486 123.5q348 0 584 -181q84 105 216 160t284 55q53 0 101 -1.5t102 -10.5v-344q-24 1 -60.5 3t-60.5 2q-64 0 -128 -23.5t-106.5 -79.5t-42.5 -153v-172z" />
    <glyph glyph-name="uni0188" unicode="&#x188;" horiz-adv-x="1811" 
d="M1554 968h-406q-17 115 -89.5 185.5t-189.5 70.5q-148 0 -238 -119t-90 -337q0 -220 89.5 -340.5t238.5 -120.5q110 0 185 66.5t94 189.5h402q-10 -176 -95.5 -310t-235.5 -208.5t-355 -74.5q-236 0 -405.5 100.5t-260 279.5t-90.5 412q0 236 91.5 414.5t260.5 279
t402 100.5q210 0 370 -82q65 103 178 157.5t253 54.5q89 0 177 -24v-280q-25 3 -50.5 7t-54.5 4q-90 0 -135.5 -44t-45.5 -150v-231z" />
    <glyph glyph-name="uni0189" unicode="&#x189;" horiz-adv-x="2048" 
d="M0 0zM904 0h-726v2048h732q309 0 532.5 -122.5t343.5 -351.5t120 -548q0 -320 -120.5 -550t-345 -353t-536.5 -123zM611 371h275q289 0 438.5 156t149.5 499q0 341 -149.5 496t-437.5 155h-276v-1306zM-107 954v251h998v-251h-998z" />
    <glyph glyph-name="uni018A" unicode="&#x18a;" horiz-adv-x="2636" 
d="M100 1319v201q-1 242 156 385t430 143h812q309 0 532.5 -122.5t343.5 -351.5t120 -548q0 -320 -120.5 -550t-345 -353t-536.5 -123h-726v1677h-79q-124 0 -163 -73t-38 -166v-119h-386zM1199 1677v-1306h275q289 0 438.5 156t149.5 499q0 341 -149.5 496t-437.5 155h-276
z" />
    <glyph glyph-name="uni018B" unicode="&#x18b;" horiz-adv-x="1889" 
d="M1722 0h-764q-242 0 -419.5 83.5t-273.5 231t-96 339.5q0 193 96 336.5t273.5 223.5t419.5 80h329v392h-921v354h1356v-2040zM1287 348v599h-329q-177 0 -264.5 -83.5t-87.5 -205.5q0 -126 87.5 -218t264.5 -92h329z" />
    <glyph glyph-name="uni018C" unicode="&#x18c;" horiz-adv-x="1789" 
d="M113 0zM331 2048v-306h854v-464h-13q-29 63 -82 127t-140 107.5t-215 43.5q-169 0 -310 -87.5t-226.5 -263t-85.5 -439.5q0 -257 83 -433.5t224 -267t316 -90.5q124 0 210.5 41t141 103.5t84.5 126.5h19v-246h420v2048h-1280zM1194 768q0 -205 -84.5 -329.5
t-238.5 -124.5q-157 0 -240 126.5t-83 327.5q0 200 82.5 324.5t240.5 124.5q155 0 239 -121.5t84 -327.5z" />
    <glyph glyph-name="uni018D" unicode="&#x18d;" horiz-adv-x="1844" 
d="M1471 -516h-1122v332h577q-31 26 -99.5 73t-152.5 111q-209 167 -342 350t-133 406v28q0 209 84 374.5t246 261.5t394 96t394 -89.5t247 -244t85 -350.5v-28q0 -188 -74.5 -335t-202 -239.5t-286.5 -118.5q-8 -1 -21.5 -1h-28.5q63 -52 147 -129.5t163 -153.5t125 -126
v-217zM1229 756v28q0 99 -26 190t-92 149t-188 58q-115 0 -182 -55.5t-95 -145.5t-28 -196v-28q0 -154 66.5 -262t154.5 -158q18 -7 36.5 -9t40.5 -2q114 0 183 58.5t99.5 156.5t30.5 216z" />
    <glyph glyph-name="uni018E" unicode="&#x18e;" horiz-adv-x="1726" 
d="M126 0zM1510 2048v-2048h-1380v357h947v488h-876v357h876v489h-951v357h1384z" />
    <glyph glyph-name="uni018F" unicode="&#x18f;" horiz-adv-x="2152" 
d="M1081 -28q-292 0 -490.5 115.5t-300 327.5t-102.5 501v232h1340q-7 139 -63 252t-178 180t-325 67q-190 0 -329.5 -27t-222.5 -53l-71 359q30 15 125.5 40t232 45.5t287.5 20.5q321 0 539.5 -119t330.5 -327.5t112 -479.5v-216q0 -270 -117.5 -477t-317.5 -324t-450 -117
zM1524 795h-901v-41q1 -169 104.5 -285t353.5 -116q198 0 309.5 126.5t133.5 315.5z" />
    <glyph glyph-name="uni0190" unicode="&#x190;" horiz-adv-x="1889" 
d="M1191 1080v-225h-250q-163 0 -253.5 -61.5t-89.5 -223.5q-1 -133 101 -191.5t262 -58.5q155 0 242.5 66.5t88.5 169.5h438q-1 -153 -68 -263.5t-178.5 -181.5t-247.5 -105t-275 -34q-234 0 -415.5 62.5t-284 192.5t-102.5 333q-1 173 91.5 291t261.5 176
q-147 61 -234 172t-87 261q0 186 96.5 313.5t270 193t403.5 65.5q199 0 366.5 -69t269.5 -196.5t102 -303.5h-435q-1 109 -86 163t-217 54q-174 0 -253.5 -65.5t-78.5 -164.5q-1 -128 74.5 -194.5t237.5 -66.5h250v-109z" />
    <glyph glyph-name="uni0191" unicode="&#x191;" horiz-adv-x="1710" 
d="M241 0h-1v2048h1356v-357h-923v-488h833v-357h-833v-846h1v-94q0 -198 -77.5 -302t-204 -142t-275.5 -38q-29 0 -80 1.5t-95 8.5v326q16 -3 36.5 -3h37.5h12q84 0 148.5 30.5t64.5 119.5v93z" />
    <glyph glyph-name="uni0192" unicode="&#x192;" horiz-adv-x="1321" 
d="M1130 1488v-302h-299v-1245q1 -263 -136 -402t-384 -139q-52 0 -101 4t-105 16l20 331q23 -7 64 -11.5t67 -4.5q95 0 129 55.5t33 150.5v1245h-232v302h232v126q1 257 151 391.5t409 134.5q65 0 126 -9t112 -20l-41 -321q-27 6 -57.5 9.5t-80.5 3.5q-96 0 -150.5 -47.5
t-55.5 -141.5v-126h299z" />
    <glyph glyph-name="uni0193" unicode="&#x193;" horiz-adv-x="2349" 
d="M1976 1386h-443v10q-43 139 -152.5 218t-273.5 79q-235 0 -380.5 -173.5t-145.5 -493.5q0 -321 143 -496t387 -175q216 0 339.5 112.5t127.5 302.5h-440v326h857v-258q0 -269 -114 -463.5t-313.5 -298.5t-458.5 -104q-288 0 -506 127.5t-339.5 363t-121.5 559.5
q0 332 127 568t344 361t487 125q139 0 264 -33t229 -94q76 148 228 225.5t337 77.5q103 0 200 -24v-339q-29 3 -59 6.5t-60 3.5q-105 0 -185 -37.5t-80 -163.5v-298z" />
    <glyph glyph-name="uni0194" unicode="&#x194;" horiz-adv-x="2098" 
d="M117 2012h491l441 -1021l438 1021h494l-719 -1507q74 -166 139.5 -307.5t106 -247.5t40.5 -162q0 -137 -68 -223t-181 -125.5t-250 -39.5q-136 0 -252.5 39.5t-187.5 125.5t-71 223q0 57 43 162.5t112 247.5t146 309zM1051 60q-41 -88 -62.5 -148t-21.5 -110
q0 -42 17.5 -71.5t64.5 -29.5q49 0 65 32t16 69q0 48 -19 107.5t-60 150.5z" />
    <glyph glyph-name="uni0195" unicode="&#x195;" horiz-adv-x="2767" 
d="M170 0v2048h414v-783h18q53 136 168.5 213.5t290.5 77.5q240 0 385.5 -154t145.5 -424v-380q0 -156 65.5 -215t144.5 -59q179 0 274 258t95 784v170h426v-170q0 -705 -198 -1049.5t-613 -344.5q-295 0 -457.5 164.5t-162.5 461.5v304q0 142 -72 221t-202 79t-212.5 -82.5
t-83.5 -231.5v-888h-426z" />
    <glyph glyph-name="uni0196" unicode="&#x196;" horiz-adv-x="1094" 
d="M571 2112v-1614q0 -188 206 -188q49 0 78 3.5t59 9.5l32 -323q-57 -12 -113.5 -20t-111.5 -8q-271 0 -421.5 136t-150.5 390v1614h422z" />
    <glyph glyph-name="uni0197" unicode="&#x197;" horiz-adv-x="790" 
d="M0 0zM611 2048v-2048h-433v2048h433zM-107 954v251h998v-251h-998z" />
    <glyph glyph-name="uni0198" unicode="&#x198;" horiz-adv-x="2053" 
d="M178 0v2048h433v-882h27l672 712q158 164 344.5 191t379.5 -87l-139 -307q-84 44 -145 23t-130 -92l-483 -504l845 -1102h-518l-602 796l-251 -269v-527h-433z" />
    <glyph glyph-name="uni0199" unicode="&#x199;" horiz-adv-x="1625" 
d="M1150 0l-406 576l-148 -162v-414h-426v1594q1 198 78.5 302t198.5 142t251 38q67 0 122.5 -4.5t94.5 -9.5v-325q-25 3 -51.5 5.5t-53.5 2.5q-81 0 -147 -30.5t-67 -120.5v-596h20l468 538h497l-580 -656l615 -880h-466z" />
    <glyph glyph-name="uni019A" unicode="&#x19a;" horiz-adv-x="766" 
d="M0 0zM596 2048v-2048h-426v2048h426zM-116 954v251h998v-251h-998z" />
    <glyph glyph-name="uni019B" unicode="&#x19b;" horiz-adv-x="1882" 
d="M1095 1887v-269l-39 -13l470 -1139q24 -57 58.5 -105t90.5 -48h48l1 -331q-28 -6 -68 -7t-88 -1q-174 0 -274.5 82t-157.5 230l-227 611l-307 -897h-452l540 1460l-11 24l-389 -125v273l280 89q-52 73 -162 73q-16 0 -36.5 -0.5t-46.5 -3.5l-10 313q46 14 117.5 21
t117.5 7q155 0 248 -62t139 -175l21 -50z" />
    <glyph glyph-name="uni019C" unicode="&#x19c;" horiz-adv-x="2686" 
d="M1202 215q-73 -114 -191 -178.5t-281 -64.5q-252 0 -380.5 138.5t-128.5 473.5v1420h417v-1420q0 -147 60 -210.5t156 -63.5q110 0 179.5 42t105.5 114q-5 56 -5 118v1420h416v-1420q0 -147 60 -210.5t156 -63.5q107 0 175 40t105 108v1546h421v-2004h-380l-19 162
q-73 -89 -179.5 -139.5t-245.5 -50.5q-152 0 -265 56t-176 187z" />
    <glyph glyph-name="uni019D" unicode="&#x19d;" horiz-adv-x="2072" 
d="M181 0h-1v2048h380l884 -1288h18v1288h431v-2048h-374l-891 1289h-15v-1289h1v-94q0 -198 -78.5 -302t-200.5 -142t-254 -38q-39 0 -100 1.5t-99 8.5v326q16 -3 36.5 -3h37.5h12q84 0 148.5 30.5t64.5 119.5v93z" />
    <glyph glyph-name="uni019E" unicode="&#x19e;" 
d="M170 0zM596 888v-888h-426v1536h406v-271h18q52 135 172 213t290 78q242 0 386 -154.5t144 -423.5v-1554h-426v1478q0 141 -72 220.5t-201 79.5q-128 0 -209.5 -82.5t-81.5 -231.5z" />
    <glyph glyph-name="uni019F" unicode="&#x19f;" horiz-adv-x="2202" 
d="M142 0zM2060 1024q0 -335 -126.5 -570t-343.5 -358.5t-489 -123.5q-273 0 -490 124t-343 359.5t-126 568.5q0 335 126 570t343 358.5t490 123.5q272 0 489 -123.5t343.5 -358.5t126.5 -570zM1101 355q204 0 339.5 129.5t169.5 377.5q-116 -42 -206.5 -46t-166.5 14
t-149 41q-104 33 -219 53t-282 -27q28 -264 165 -403t349 -139zM1614 1154q-28 263 -165 401t-348 138q-204 0 -339 -128.5t-170 -374.5q116 40 205.5 43.5t165 -14t148.5 -40.5q104 -34 220 -53.5t283 28.5z" />
    <glyph glyph-name="uni01A0" unicode="&#x1a0;" horiz-adv-x="2290" 
d="M1981 2148h274q0 -225 -75 -373.5t-235 -206.5q55 -113 85 -249.5t30 -294.5q0 -335 -126.5 -570t-343.5 -358.5t-489 -123.5q-273 0 -490 124t-343 359.5t-126 568.5q0 335 126 570t343 358.5t490 123.5q216 0 400 -79t314 -230q93 30 129.5 128.5t36.5 252.5z
M1621 1024q0 326 -142 497.5t-378 171.5t-378 -171.5t-142 -497.5q0 -325 142 -497t378 -172t378 172t142 497z" />
    <glyph glyph-name="uni01A1" unicode="&#x1a1;" horiz-adv-x="1780" 
d="M1526 1626h254q0 -175 -56.5 -298t-179.5 -184q76 -169 76 -382q0 -236 -92 -414.5t-261.5 -278t-402.5 -99.5t-402.5 99.5t-261.5 278t-92 414.5q0 238 92 416.5t261.5 278t402.5 99.5q185 0 331.5 -64t244.5 -181q51 45 68.5 125.5t17.5 189.5zM866 300
q158 0 239.5 132t81.5 333t-81.5 333.5t-239.5 132.5q-161 0 -243 -132.5t-82 -333.5t82 -333t243 -132z" />
    <glyph glyph-name="uni01A2" unicode="&#x1a2;" horiz-adv-x="2622" 
d="M2466 2004v-2576h-417v2076l-213 -96v-1153q-48 -56 -146.5 -122t-256 -113.5t-383.5 -47.5q-266 0 -467.5 113.5t-314.5 330t-113 526.5v120q0 307 112.5 524t314 331.5t468.5 114.5q270 0 442 -66t265 -141l394 179h315zM598 1040v-98q-1 -280 111 -451t365 -171
q151 0 227.5 33.5t113.5 64.5v1168q-45 40 -124 68t-219 28q-250 0 -362.5 -162t-111.5 -458v-22z" />
    <glyph glyph-name="uni01A3" unicode="&#x1a3;" horiz-adv-x="2093" 
d="M1982 1488v-2060h-420v1589l-144 -57v-681q-78 -127 -217.5 -217t-378.5 -90t-396.5 100t-235 271t-77.5 383v36q0 212 77.5 382.5t235.5 271t396 100.5q157 0 279.5 -58.5t204.5 -138.5l388 169h288zM814 310q119 0 184 62v728q-32 39 -77.5 60t-110.5 21
q-118 0 -178.5 -61t-81 -157t-20.5 -201v-36q0 -114 23.5 -208.5t85.5 -151t175 -56.5z" />
    <glyph glyph-name="uni01A4" unicode="&#x1a4;" horiz-adv-x="2403" 
d="M486 1319h-386v201q-1 242 156 385t430 143h879q233 0 397 -88.5t250.5 -245t86.5 -360.5t-88 -359.5t-254.5 -243t-402.5 -87.5h-364v-664h-433v1694h-70q-83 0 -126.5 -38t-59.5 -97t-15 -121v-119zM1190 1011h294q186 0 277.5 95.5t91.5 247.5q0 153 -91.5 246.5
t-279.5 93.5h-292v-683z" />
    <glyph glyph-name="uni01A5" unicode="&#x1a5;" horiz-adv-x="1781" 
d="M590 1536v-258h19q29 63 82 127t140 107.5t215 43.5q169 0 310 -87.5t226.5 -263t85.5 -439.5q0 -257 -83 -433.5t-224 -267t-316 -90.5q-124 0 -210.5 41t-141 103.5t-84.5 126.5h-13v-822h-426v2112q0 216 123 311.5t382 95.5q75 0 131.5 -8t86.5 -16v-284
q-18 5 -56.5 12t-79.5 8q-167 3 -167 -119zM587 768q0 -205 84.5 -329.5t238.5 -124.5q157 0 240 126.5t83 327.5q0 200 -82.5 324.5t-240.5 124.5q-155 0 -239 -121.5t-84 -327.5z" />
    <glyph glyph-name="uni01A6" unicode="&#x1a6;" horiz-adv-x="2147" 
d="M138 2004h2v140h437v-140h337q354 0 559 -155t205 -451q0 -225 -99.5 -357.5t-267.5 -206.5l699 -1297v-19h-468l-635 1206h-330v-724h-439v2004zM577 1072h337q161 0 244.5 78.5t83.5 208.5q0 136 -81.5 214.5t-246.5 78.5h-337v-580z" />
    <glyph glyph-name="uni01A7" unicode="&#x1a7;" horiz-adv-x="1844" 
d="M112 0zM555 1459q12 121 103.5 188t246.5 67q159 0 244 -65t85 -164q2 -110 -94.5 -166.5t-229.5 -87.5l-184 -44q-178 -40 -316.5 -116t-218 -195.5t-79.5 -290.5q1 -281 210.5 -447.5t584.5 -166.5q373 0 595 170t230 502h-419q-11 -154 -121.5 -231.5t-279.5 -77.5
q-165 0 -263.5 70t-99.5 182q1 104 91 160t257 96l223 56q259 62 409 197t149 361q1 186 -99.5 325.5t-276.5 217t-400 77.5q-228 0 -398.5 -78t-265.5 -217t-98 -322h415z" />
    <glyph glyph-name="uni01A8" unicode="&#x1a8;" horiz-adv-x="1582" 
d="M99 0zM134 1098l390 -24q16 74 81 127t176 53q99 0 167.5 -41.5t67.5 -110.5q1 -55 -43.5 -93t-151.5 -61l-278 -56q-443 -91 -444 -416q0 -151 88.5 -265t242.5 -177.5t353 -63.5q305 0 486 127.5t211 347.5l-419 22q-20 -94 -92.5 -142t-186.5 -48q-112 0 -180.5 44
t-69.5 112q3 114 197 153l266 53q446 89 444 439q1 222 -177.5 350t-473.5 128q-291 0 -458.5 -123t-195.5 -335z" />
    <glyph glyph-name="uni01A9" unicode="&#x1a9;" horiz-adv-x="1894" 
d="M209 0zM1672 357v-357h-1463v210l619 810l-619 808v212h1433v-359h-827l473 -650v-21l-475 -653h859z" />
    <glyph glyph-name="uni01AA" unicode="&#x1aa;" horiz-adv-x="1837" 
d="M185 1606q0 154 77 282t207 205t289 77q158 0 288.5 -77t209 -205t78.5 -282v-1636q-1 -115 50 -170t144 -55q52 0 124 12v-329q-47 -12 -100 -17t-108 -5q-250 0 -390.5 145.5t-139.5 418.5v1094q-76 -22 -156 -22q-158 0 -288.5 76t-207.5 204.5t-77 283.5zM761 1400
q83 0 141.5 52.5t59.5 157.5q-1 103 -61 154.5t-140 51.5q-91 0 -149.5 -52.5t-57.5 -153.5q-1 -105 57.5 -157.5t149.5 -52.5z" />
    <glyph glyph-name="uni01AB" unicode="&#x1ab;" horiz-adv-x="1104" 
d="M987 1536v-320h-289v-744q0 -88 40 -119t104 -31q10 0 22 1l162 34v-451q0 -231 -127.5 -355.5t-340.5 -124.5q-49 0 -91.5 4.5t-87.5 15.5v281q24 -3 49.5 -5.5t57.5 -2.5q55 0 110.5 15t93 55.5t37.5 116.5v72q-208 6 -332 116t-123 322v800h-210v320h210v368h426v-368
h289z" />
    <glyph glyph-name="uni01AC" unicode="&#x1ac;" horiz-adv-x="1980" 
d="M1880 2048v-357h-627v-1691h-428v1691h-163q-83 0 -127 -36.5t-60.5 -93.5t-16.5 -119v-120h-358v197q0 245 144.5 387t417.5 142h1218z" />
    <glyph glyph-name="uni01AD" unicode="&#x1ad;" horiz-adv-x="1310" 
d="M1066 1488v-302h-262v-714q0 -92 40 -125t118 -33q39 0 68 3t52 6v-313q-55 -20 -117.5 -29t-134.5 -9q-204 0 -324 106t-120 348v760h-220v302h220v200q0 193 74.5 297.5t198 144.5t269.5 40q71 0 122 -5.5t96 -16.5v-278q-18 5 -46 8.5t-57 3.5q-55 0 -110.5 -16
t-92 -58t-36.5 -120v-200h262z" />
    <glyph glyph-name="uni01AE" unicode="&#x1ae;" horiz-adv-x="1882" 
d="M100 1691v357h1682v-357h-627v-1785q0 -90 68.5 -118.5t150.5 -28.5h85v-335h-198q-133 0 -255.5 38t-200.5 142t-78 302v1785h-627z" />
    <glyph glyph-name="uni01AF" unicode="&#x1af;" horiz-adv-x="2450" 
d="M2075 2122h275q0 -275 -101.5 -441.5t-372.5 -198.5v-788q0 -232 -109 -393.5t-300.5 -245.5t-439.5 -84t-440 84t-300.5 245.5t-108.5 393.5v1354h433v-1339q0 -164 118.5 -258t297.5 -94q182 0 300.5 94t118.5 258v1339h430v-336q135 33 167 139.5t32 270.5z" />
    <glyph glyph-name="uni01B0" unicode="&#x1b0;" horiz-adv-x="1997" 
d="M1794 1621h247q-1 -237 -99 -369t-351 -154v-1098h-409v279h-16q-52 -135 -172.5 -217t-293.5 -82q-232 0 -375.5 154.5t-144.5 423.5v978h426v-902q1 -136 73 -215t193 -79q115 0 204.5 80t88.5 234v882h426v-245q135 21 168.5 102.5t34.5 227.5z" />
    <glyph glyph-name="uni01B1" unicode="&#x1b1;" horiz-adv-x="2192" 
d="M127 937q0 257 103 441.5t280 296.5v16h-383v357h812v-448q-162 -66 -268.5 -236t-106.5 -394q0 -175 68 -313.5t188.5 -218.5t275.5 -80q156 0 276 80t188 218.5t68 313.5q0 224 -106.5 394t-268.5 236v448h812v-357h-383v-16q177 -112 280 -296.5t103 -441.5
q0 -282 -124.5 -500t-343 -341.5t-501.5 -123.5t-501.5 123.5t-343 341.5t-124.5 500z" />
    <glyph glyph-name="uni01B2" unicode="&#x1b2;" horiz-adv-x="1882" 
d="M943 -28q-232 0 -411 82t-281 242t-103 393v1315h435v-1315q2 -369 360 -369q355 0 353 369v777q1 117 -41 161t-149 44q-26 0 -57 -2t-64 -8v345q50 12 99 18t107 6q253 0 400 -146t147 -418v-777q0 -232 -102.5 -392t-281.5 -242.5t-411 -82.5z" />
    <glyph glyph-name="uni01B3" unicode="&#x1b3;" horiz-adv-x="2223" 
d="M1762 1514l-463 -723v-791h-430v791l-795 1257h471l527 -882h24l306 505l65 113q87 150 206 218t251 70t258 -47l-93 -325q-102 32 -166.5 6t-123.5 -129z" />
    <glyph glyph-name="uni01B4" unicode="&#x1b4;" horiz-adv-x="1757" 
d="M1457 1278l-492 -1499q-27 -83 -95.5 -171t-180 -148t-269.5 -60q-58 0 -100 5.5t-92 21.5v331q38 -6 73 -6q140 0 207 54.5t96 151.5l26 83l-560 1495h443l302 -878l238 728l37 116q44 131 130 234.5t222 131.5q80 23 160.5 18.5t207.5 -21.5h3l-33 -330q-37 8 -66.5 11
t-55.5 -2q-74 -19 -111 -68.5t-70 -139.5z" />
    <glyph glyph-name="uni01B5" unicode="&#x1b5;" horiz-adv-x="1878" 
d="M154 0zM156 0v257l1022 1434h-1024v357h1568v-257l-1023 -1434h1025v-357h-1568zM472 954v251h998v-251h-998z" />
    <glyph glyph-name="uni01B6" unicode="&#x1b6;" horiz-adv-x="1610" 
d="M162 0zM162 0v254l752 931v11h-726v340h1239v-277l-706 -908v-11h732v-340h-1291zM300 649v251h998v-251h-998z" />
    <glyph glyph-name="uni01B7" unicode="&#x1b7;" horiz-adv-x="1932" 
d="M100 180h437q6 -111 68.5 -194.5t157.5 -130t199 -46.5q138 0 231.5 77t141 198t47.5 251q0 147 -61.5 262.5t-172.5 182t-258 66.5h-222v314l571 509v16h-1025v363h1564v-312l-667 -594v-20q244 -21 403 -140t237.5 -295.5t78.5 -372.5q0 -238 -107 -436t-302.5 -316.5
t-462.5 -118.5q-234 0 -426.5 94t-308.5 260t-123 383z" />
    <glyph glyph-name="uni01B8" unicode="&#x1b8;" horiz-adv-x="1932" 
d="M102 0zM1832 180h-437q-6 -111 -68.5 -194.5t-157.5 -130t-199 -46.5q-138 0 -231.5 77t-141 198t-47.5 251q0 147 61.5 262.5t172.5 182t258 66.5h222v314l-571 509v16h1025v363h-1564v-312l667 -594v-20q-244 -21 -403 -140t-237.5 -295.5t-78.5 -372.5
q0 -238 107 -436t302.5 -316.5t462.5 -118.5q234 0 426.5 94t308.5 260t123 383z" />
    <glyph glyph-name="uni01B9" unicode="&#x1b9;" horiz-adv-x="1847" 
d="M145 0zM1713 0zM1713 -512zM1713 67h-437q-8 -115 -106 -182.5t-237 -67.5q-149 0 -243 76t-94 207q0 127 97 211t288 84h221v301l-454 472v14h862v354h-1394v-312l550 -556v-16q-216 -21 -353 -107.5t-202.5 -211.5t-65.5 -262q0 -182 103.5 -319.5t281.5 -214.5
t404 -77q225 0 398.5 76t274 212.5t106.5 318.5z" />
    <glyph glyph-name="uni01BA" unicode="&#x1ba;" horiz-adv-x="1621" 
d="M222 1488h1241v-235l-410 -353q171 -52 264 -167t94 -255q0 -139 -79.5 -230t-203.5 -144t-260 -81q-192 -38 -253.5 -81t-60.5 -101q-1 -72 64 -109.5t169 -37.5q65 0 126.5 18.5t103 64t45.5 125.5h397q0 -120 -76.5 -235.5t-224 -191t-361.5 -75.5q-198 0 -344.5 59.5
t-226 163t-79.5 235.5q-1 197 142 304.5t419 159.5q164 32 231.5 67.5t68.5 108.5q-1 69 -57 108.5t-153 39.5h-333v242l333 265h-576v335z" />
    <glyph glyph-name="uni01BB" unicode="&#x1bb;" horiz-adv-x="1774" 
d="M146 0zM166 0v312l729 675q140 134 213 233t73 221q0 135 -89.5 213.5t-224.5 78.5q-140 0 -225.5 -84.5t-84.5 -231.5h-411q0 201 91 349t254.5 229t378.5 81q220 0 383.5 -77.5t254.5 -214t91 -314.5q0 -116 -46 -229t-161.5 -250.5t-326.5 -329.5l-299 -293v-14h860
v-354h-1460zM706 978v251h998v-251h-998z" />
    <glyph glyph-name="uni01BC" unicode="&#x1bc;" horiz-adv-x="1790" 
d="M962 -28q-212 0 -378 78t-262.5 215t-100.5 314h420q8 -119 100 -193t221 -74q152 0 250 100t98 260q0 161 -99.5 262.5t-254.5 102.5q-91 0 -175 -37t-131 -101l-385 69l65 726h-231v354h1515v-354h-895l-53 -513h12q54 76 163 126t244 50q185 0 330 -87t229 -239
t83 -348q1 -207 -95.5 -367.5t-269 -252t-400.5 -91.5z" />
    <glyph glyph-name="uni01BD" unicode="&#x1bd;" horiz-adv-x="1844" 
d="M747 634l-380 17l68 507h-233v330h1335v-330h-715l-37 -247q47 25 128 45.5t179 21.5q260 3 404.5 -128.5t145.5 -367.5q0 -145 -68 -259.5t-214 -180.5t-381 -66q-171 0 -326 49t-252 152.5t-97 266.5l415 19q7 -75 76.5 -111.5t183.5 -36.5q125 0 184.5 53t59.5 142
q0 86 -64.5 138.5t-183.5 52.5q-90 0 -145 -19.5t-83 -47.5z" />
    <glyph glyph-name="uni01BE" unicode="&#x1be;" horiz-adv-x="1621" 
d="M1060 415q0 67 -52.5 108.5t-125.5 84.5q-75 43 -154 102t-133 158t-54 261v57h-218v302h218v370h422v-370h260v-302h-260v-61q0 -93 34.5 -151t89 -95t115.5 -70q65 -36 126.5 -79t100.5 -113t39 -187q1 -132 -78.5 -235.5t-225 -163t-343.5 -59.5q-216 0 -364.5 76.5
t-225 192.5t-77.5 234h399q7 -118 93 -163.5t182 -45.5q108 0 170.5 39.5t61.5 109.5z" />
    <glyph glyph-name="uni01BF" unicode="&#x1bf;" horiz-adv-x="1898" 
d="M663 1344q68 81 162.5 126.5t220.5 45.5q193 0 326 -94.5t202.5 -264t69.5 -394.5v-33q0 -270 -113.5 -454.5t-329.5 -307t-524 -206.5v-334h-423v2060h394zM677 89q245 65 394.5 223.5t150.5 417.5v33q0 113 -27.5 208t-90 152t-169.5 57q-187 0 -258 -139v-952z" />
    <glyph glyph-name="uni01C0" unicode="&#x1c0;" horiz-adv-x="844" 
d="M546 2012v-2012h-248v2012h248z" />
    <glyph glyph-name="uni01C1" unicode="&#x1c1;" horiz-adv-x="1109" 
d="M253 0zM501 2012v-2012h-248v2012h248zM871 2012v-2012h-248v2012h248z" />
    <glyph glyph-name="uni01C2" unicode="&#x1c2;" horiz-adv-x="1256" 
d="M89 0zM764 2012v-2012h-248v2012h248zM89 1294v251h998v-251h-998zM137 660v251h998v-251h-998z" />
    <glyph glyph-name="uni01C3" unicode="&#x1c3;" horiz-adv-x="914" 
d="M216 0zM679 2048l-39 -1434h-366l-40 1434h445zM457 -26q-99 0 -170 70t-70 170q-1 98 70 168t170 70q96 0 167.5 -70t72.5 -168q-1 -100 -72.5 -170t-167.5 -70z" />
    <glyph glyph-name="uni01C5" unicode="&#x1c5;" horiz-adv-x="3658" 
d="M178 0zM904 0h-726v2048h732q309 0 532.5 -122.5t343.5 -351.5t120 -548q0 -320 -120.5 -550t-345 -353t-536.5 -123zM611 371h275q289 0 438.5 156t149.5 499q0 341 -149.5 496t-437.5 155h-276v-1306zM2210 0zM2210 0v254l752 931v11h-726v340h1239v-277l-706 -908v-11
h732v-340h-1291zM2650 2174l201 -244l201 244h363v-14l-406 -440h-317l-405 440v14h363z" />
    <glyph glyph-name="uni01C6" unicode="&#x1c6;" horiz-adv-x="3146" 
d="M113 0zM736 -25q-175 0 -316 90.5t-224 267t-83 433.5q0 264 85.5 439.5t227 263t309.5 87.5q129 0 215.5 -43.5t140 -107.5t81.5 -127h13v770h425v-2048h-420v246h-18q-29 -64 -84 -126.5t-141.5 -103.5t-210.5 -41zM871 314q154 0 238.5 124.5t84.5 329.5
q0 206 -84 327.5t-239 121.5q-158 0 -240.5 -124.5t-82.5 -324.5q0 -201 83 -327.5t240 -126.5zM1697 0zM1697 0v254l752 931v11h-726v340h1239v-277l-706 -908v-11h732v-340h-1291zM2137 2174l201 -244l201 244h363v-14l-406 -440h-317l-405 440v14h363z" />
    <glyph glyph-name="uni01C7" unicode="&#x1c7;" horiz-adv-x="3203" 
d="M178 0zM178 0v2048h433v-1691h878v-357h-1311zM2596 2048h428v-1428q0 -198 -88.5 -343.5t-245.5 -225t-365 -79.5q-185 0 -335.5 66t-238.5 200t-87 338h431q2 -122 70.5 -189.5t181.5 -67.5q247 0 249 301v1428z" />
    <glyph glyph-name="uni01C8" unicode="&#x1c8;" horiz-adv-x="2365" 
d="M178 0zM178 0v2048h433v-1691h878v-357h-1311zM1598 0zM1768 1536h426v-1607q0 -267 -156 -387t-433 -113q-17 0 -35.5 0.5t-43.5 1.5v333q17 -1 30 -1.5t26 -0.5q103 0 144.5 43.5t41.5 130.5v1600zM1980 1734q-94 0 -162 63.5t-68 152.5t68 152t162 63q95 0 163 -63
t68 -152t-68 -152.5t-163 -63.5z" />
    <glyph glyph-name="uni01C9" unicode="&#x1c9;" horiz-adv-x="1518" 
d="M170 0zM596 2048v-2048h-426v2048h426zM709 0zM879 1536h426v-1607q0 -267 -156 -387t-433 -113q-17 0 -35.5 0.5t-43.5 1.5v333q17 -1 30 -1.5t26 -0.5q103 0 144.5 43.5t41.5 130.5v1600zM1091 1734q-94 0 -162 63.5t-68 152.5t68 152t162 63q95 0 163 -63t68 -152
t-68 -152.5t-163 -63.5z" />
    <glyph glyph-name="uni01CA" unicode="&#x1ca;" horiz-adv-x="3674" 
d="M178 0zM1891 2048v-2048h-374l-891 1289h-15v-1289h-433v2048h380l884 -1288h18v1288h431zM3068 2048h428v-1428q0 -198 -88.5 -343.5t-245.5 -225t-365 -79.5q-185 0 -335.5 66t-238.5 200t-87 338h431q2 -122 70.5 -189.5t181.5 -67.5q247 0 249 301v1428z" />
    <glyph glyph-name="uni01CB" unicode="&#x1cb;" horiz-adv-x="2806" 
d="M178 0zM1891 2048v-2048h-374l-891 1289h-15v-1289h-433v2048h380l884 -1288h18v1288h431zM1996 0zM2166 1536h426v-1607q0 -267 -156 -387t-433 -113q-17 0 -35.5 0.5t-43.5 1.5v333q17 -1 30 -1.5t26 -0.5q103 0 144.5 43.5t41.5 130.5v1600zM2378 1734
q-94 0 -162 63.5t-68 152.5t68 152t162 63q95 0 163 -63t68 -152t-68 -152.5t-163 -63.5z" />
    <glyph glyph-name="uni01CC" unicode="&#x1cc;" horiz-adv-x="2518" 
d="M170 0zM596 888v-888h-426v1536h406v-271h18q52 134 171.5 212.5t290.5 78.5q240 0 385 -154.5t145 -423.5v-978h-426v902q1 141 -72 220.5t-201 79.5q-129 0 -209.5 -82.5t-81.5 -231.5zM1751 0zM1921 1536h426v-1607q0 -267 -156 -387t-433 -113q-17 0 -35.5 0.5
t-43.5 1.5v333q17 -1 30 -1.5t26 -0.5q103 0 144.5 43.5t41.5 130.5v1600zM2133 1734q-94 0 -162 63.5t-68 152.5t68 152t162 63q95 0 163 -63t68 -152t-68 -152.5t-163 -63.5z" />
    <glyph glyph-name="uni01CD" unicode="&#x1cd;" horiz-adv-x="2106" 
d="M67 0zM531 0h-464l707 2048h558l706 -2048h-464l-152 467h-739zM793 805h520l-252 775h-16zM852 2686l201 -244l201 244h363v-14l-406 -440h-317l-405 440v14h363z" />
    <glyph glyph-name="uni01CE" unicode="&#x1ce;" horiz-adv-x="1634" 
d="M98 0zM608 -29q-220 0 -365 115t-145 343q0 172 81 270t212.5 143.5t283.5 59.5q200 20 286 42t86 96v6q0 95 -59.5 147t-168.5 52q-115 0 -183 -50t-90 -127l-394 32q44 210 218.5 333t450.5 123q171 0 320 -54t240.5 -168.5t91.5 -297.5v-1036h-404v213h-12
q-56 -107 -167.5 -174.5t-281.5 -67.5zM730 265q140 0 230 81.5t90 202.5v163q-25 -17 -77.5 -30t-112 -22.5t-106.5 -16.5q-112 -16 -180.5 -63t-68.5 -137q0 -88 63.5 -133t161.5 -45zM636 2174l201 -244l201 244h363v-14l-406 -440h-317l-405 440v14h363z" />
    <glyph glyph-name="uni01CF" unicode="&#x1cf;" horiz-adv-x="790" 
d="M0 0zM611 2048v-2048h-433v2048h433zM195 2686l201 -244l201 244h363v-14l-406 -440h-317l-405 440v14h363z" />
    <glyph glyph-name="uni01D0" unicode="&#x1d0;" horiz-adv-x="766" 
d="M0 0zM170 0v1536h426v-1536h-426zM183 2174l201 -244l201 244h363v-14l-406 -440h-317l-405 440v14h363z" />
    <glyph glyph-name="uni01D1" unicode="&#x1d1;" horiz-adv-x="2202" 
d="M142 0zM2060 1024q0 -335 -126.5 -570t-343.5 -358.5t-489 -123.5q-273 0 -490 124t-343 359.5t-126 568.5q0 335 126 570t343 358.5t490 123.5q272 0 489 -123.5t343.5 -358.5t126.5 -570zM1621 1024q0 326 -142 497.5t-378 171.5t-378 -171.5t-142 -497.5
q0 -325 142 -497t378 -172t378 172t142 497zM900 2686l201 -244l201 244h363v-14l-406 -440h-317l-405 440v14h363z" />
    <glyph glyph-name="uni01D2" unicode="&#x1d2;" horiz-adv-x="1728" 
d="M108 0zM864 -30q-233 0 -402.5 99.5t-261.5 278t-92 414.5q0 238 92 416.5t261.5 278t402.5 99.5t402.5 -99.5t261.5 -278t92 -416.5q0 -236 -92 -414.5t-261.5 -278t-402.5 -99.5zM866 300q158 0 239.5 132t81.5 333t-81.5 333.5t-239.5 132.5q-161 0 -243 -132.5
t-82 -333.5t82 -333t243 -132zM663 2174l201 -244l201 244h363v-14l-406 -440h-317l-405 440v14h363z" />
    <glyph glyph-name="uni01D3" unicode="&#x1d3;" horiz-adv-x="2054" 
d="M178 0zM1446 2048h430v-1354q0 -232 -109 -393.5t-300.5 -245.5t-439.5 -84t-440 84t-300.5 245.5t-108.5 393.5v1354h433v-1339q0 -164 118.5 -258t297.5 -94q182 0 300.5 94t118.5 258v1339zM826 2686l201 -244l201 244h363v-14l-406 -440h-317l-405 440v14h363z" />
    <glyph glyph-name="uni01D4" unicode="&#x1d4;" 
d="M170 0zM1155 654v882h426v-1536h-409v279h-16q-52 -135 -172.5 -217t-293.5 -82q-232 0 -375.5 154.5t-144.5 423.5v978h426v-902q1 -136 73 -215t193 -79q115 0 204.5 80t88.5 234zM677 2174l201 -244l201 244h363v-14l-406 -440h-317l-405 440v14h363z" />
    <glyph glyph-name="uni01D5" unicode="&#x1d5;" horiz-adv-x="2054" 
d="M178 0zM1446 2048h430v-1354q0 -232 -109 -393.5t-300.5 -245.5t-439.5 -84t-440 84t-300.5 245.5t-108.5 393.5v1354h433v-1339q0 -164 118.5 -258t297.5 -94q182 0 300.5 94t118.5 258v1339zM1543 2258zM1543 2258zM723 2258q-86 0 -148 60.5t-62 143.5q0 85 62 144
t148 59q87 0 147.5 -59t60.5 -144q0 -83 -60.5 -143.5t-147.5 -60.5zM1335 2258q-86 0 -148 60.5t-62 143.5q0 85 62 144t148 59q87 0 147.5 -59t60.5 -144q0 -83 -60.5 -143.5t-147.5 -60.5zM1514 2841zM1514 3072v-231h-974v231h974z" />
    <glyph glyph-name="uni01D6" unicode="&#x1d6;" 
d="M170 0zM1155 654v882h426v-1536h-409v279h-16q-52 -135 -172.5 -217t-293.5 -82q-232 0 -375.5 154.5t-144.5 423.5v978h426v-902q1 -136 73 -215t193 -79q115 0 204.5 80t88.5 234zM1393 1746zM1393 1746zM1393 1746zM573 1746q-86 0 -148 60.5t-62 143.5q0 85 62 144
t148 59q87 0 147.5 -59t60.5 -144q0 -83 -60.5 -143.5t-147.5 -60.5zM1185 1746q-86 0 -148 60.5t-62 143.5q0 85 62 144t148 59q87 0 147.5 -59t60.5 -144q0 -83 -60.5 -143.5t-147.5 -60.5zM1364 2329zM1364 2560v-231h-974v231h974z" />
    <glyph glyph-name="uni01D7" unicode="&#x1d7;" horiz-adv-x="2054" 
d="M178 0zM1446 2048h430v-1354q0 -232 -109 -393.5t-300.5 -245.5t-439.5 -84t-440 84t-300.5 245.5t-108.5 393.5v1354h433v-1339q0 -164 118.5 -258t297.5 -94q182 0 300.5 94t118.5 258v1339zM722 2193q-86 0 -148 60.5t-62 143.5q0 85 62 144t148 59q87 0 147.5 -59
t60.5 -144q0 -83 -60.5 -143.5t-147.5 -60.5zM1334 2193q-86 0 -148 60.5t-62 143.5q0 85 62 144t148 59q87 0 147.5 -59t60.5 -144q0 -83 -60.5 -143.5t-147.5 -60.5zM871 2722l270 355h394l-363 -355h-301z" />
    <glyph glyph-name="uni01D8" unicode="&#x1d8;" 
d="M170 0zM1155 654v882h426v-1536h-409v279h-16q-52 -135 -172.5 -217t-293.5 -82q-232 0 -375.5 154.5t-144.5 423.5v978h426v-902q1 -136 73 -215t193 -79q115 0 204.5 80t88.5 234zM1393 1746zM573 1746q-86 0 -148 60.5t-62 143.5q0 85 62 144t148 59q87 0 147.5 -59
t60.5 -144q0 -83 -60.5 -143.5t-147.5 -60.5zM1185 1746q-86 0 -148 60.5t-62 143.5q0 85 62 144t148 59q87 0 147.5 -59t60.5 -144q0 -83 -60.5 -143.5t-147.5 -60.5zM725 2246l213 455h393l-305 -455h-301z" />
    <glyph glyph-name="uni01D9" unicode="&#x1d9;" horiz-adv-x="2054" 
d="M178 0zM1446 2048h430v-1354q0 -232 -109 -393.5t-300.5 -245.5t-439.5 -84t-440 84t-300.5 245.5t-108.5 393.5v1354h433v-1339q0 -164 118.5 -258t297.5 -94q182 0 300.5 94t118.5 258v1339zM843 2936l185 -153l186 153h358v-22l-397 -316h-291l-400 320v18h359z
M1141 2430q0 67 52.5 114.5t141.5 47.5q84 0 138 -46.5t54 -115.5t-53.5 -116.5t-138.5 -47.5q-89 0 -141.5 48t-52.5 116zM531 2431q0 68 52 115.5t137 47.5q89 0 141.5 -48t52.5 -116q0 -70 -53.5 -116t-139.5 -46q-85 0 -137.5 46.5t-52.5 116.5z" />
    <glyph glyph-name="uni01DA" unicode="&#x1da;" 
d="M170 0zM1155 654v882h426v-1536h-409v279h-16q-52 -135 -172.5 -217t-293.5 -82q-232 0 -375.5 154.5t-144.5 423.5v978h426v-902q1 -136 73 -215t193 -79q115 0 204.5 80t88.5 234zM670 2563l208 -191l209 191h356v-16l-431 -387h-269l-432 390v13h359zM1027 1892
q0 74 57 127t142 53q87 0 143.5 -53t56.5 -127q0 -73 -56.5 -125t-143.5 -52q-85 0 -142 52t-57 125zM331 1894q0 72 56 125t141 53q87 0 144 -52t57 -126q0 -76 -57.5 -126.5t-143.5 -50.5q-84 0 -140.5 51.5t-56.5 125.5z" />
    <glyph glyph-name="uni01DB" unicode="&#x1db;" horiz-adv-x="2054" 
d="M178 0zM1446 2048h430v-1354q0 -232 -109 -393.5t-300.5 -245.5t-439.5 -84t-440 84t-300.5 245.5t-108.5 393.5v1354h433v-1339q0 -164 118.5 -258t297.5 -94q182 0 300.5 94t118.5 258v1339zM1138 2430q-1 69 53.5 115.5t140.5 46.5q87 0 139 -47.5t53 -114.5
q-1 -67 -52.5 -115.5t-139.5 -48.5q-86 0 -140.5 47t-53.5 117zM528 2431q-1 68 52 115.5t138 47.5q88 0 141.5 -48t54.5 -116q-1 -70 -55.5 -116t-140.5 -46t-138.5 46.5t-51.5 116.5zM974 2839l181 -264h-224l-254 264h297z" />
    <glyph glyph-name="uni01DC" unicode="&#x1dc;" 
d="M170 0zM1155 654v882h426v-1536h-409v279h-16q-52 -135 -172.5 -217t-293.5 -82q-232 0 -375.5 154.5t-144.5 423.5v978h426v-902q1 -136 73 -215t193 -79q115 0 204.5 80t88.5 234zM804 2562l280 -428h-344l-393 428h457zM1025 1892q0 76 57.5 128t142.5 52
q86 0 142.5 -53t56.5 -127q0 -73 -56.5 -125t-142.5 -52q-87 0 -143.5 52t-56.5 125zM329 1894q0 72 55.5 125t140.5 53q87 0 144 -52t57 -126t-57 -125.5t-144 -51.5q-84 0 -140 51.5t-56 125.5z" />
    <glyph glyph-name="uni01DD" unicode="&#x1dd;" horiz-adv-x="1683" 
d="M108 0zM813 1566q236 0 407 -96.5t263 -274t92 -420.5q0 -237 -92 -416t-259.5 -279t-393.5 -100q-203 0 -366.5 86t-259.5 259.5t-96 434.5v117h1046v1q0 172 -94 271t-254 99q-107 0 -185 -45t-110 -133l-394 26q45 214 228 342t468 128zM1154 613h-645q1 -137 88 -226
t226 -89q142 0 233 92t98 223z" />
    <glyph glyph-name="uni01DE" unicode="&#x1de;" horiz-adv-x="2106" 
d="M67 0zM531 0h-464l707 2048h558l706 -2048h-464l-152 467h-739zM793 805h520l-252 775h-16zM1569 2258zM1569 2258zM749 2258q-86 0 -148 60.5t-62 143.5q0 85 62 144t148 59q87 0 147.5 -59t60.5 -144q0 -83 -60.5 -143.5t-147.5 -60.5zM1361 2258q-86 0 -148 60.5
t-62 143.5q0 85 62 144t148 59q87 0 147.5 -59t60.5 -144q0 -83 -60.5 -143.5t-147.5 -60.5zM1540 2841zM1540 3072v-231h-974v231h974z" />
    <glyph glyph-name="uni01DF" unicode="&#x1df;" horiz-adv-x="1634" 
d="M98 0zM608 -29q-220 0 -365 115t-145 343q0 172 81 270t212.5 143.5t283.5 59.5q200 20 286 42t86 96v6q0 95 -59.5 147t-168.5 52q-115 0 -183 -50t-90 -127l-394 32q44 210 218.5 333t450.5 123q171 0 320 -54t240.5 -168.5t91.5 -297.5v-1036h-404v213h-12
q-56 -107 -167.5 -174.5t-281.5 -67.5zM730 265q140 0 230 81.5t90 202.5v163q-25 -17 -77.5 -30t-112 -22.5t-106.5 -16.5q-112 -16 -180.5 -63t-68.5 -137q0 -88 63.5 -133t161.5 -45zM1353 1746zM1353 1746zM1353 1746zM533 1746q-86 0 -148 60.5t-62 143.5q0 85 62 144
t148 59q87 0 147.5 -59t60.5 -144q0 -83 -60.5 -143.5t-147.5 -60.5zM1145 1746q-86 0 -148 60.5t-62 143.5q0 85 62 144t148 59q87 0 147.5 -59t60.5 -144q0 -83 -60.5 -143.5t-147.5 -60.5zM1324 2329zM1324 2560v-231h-974v231h974z" />
    <glyph glyph-name="uni01E0" unicode="&#x1e0;" horiz-adv-x="2106" 
d="M67 0zM531 0h-464l707 2048h558l706 -2048h-464l-152 467h-739zM793 805h520l-252 775h-16zM1538 2265zM1053 2265.47q-94 0 -162 55.6436q-68 55.6445 -68 133.633q0 77.9893 68 133.195t162 55.2061q95 0 163 -55.2061t68 -133.195q0 -77.9883 -68 -133.633
q-68 -55.6436 -163 -55.6436zM1538 2779.38zM1538 2977.12v-197.74h-974v197.74h974z" />
    <glyph glyph-name="uni01E1" unicode="&#x1e1;" horiz-adv-x="1634" 
d="M98 0zM608 -29q-220 0 -365 115t-145 343q0 172 81 270t212.5 143.5t283.5 59.5q200 20 286 42t86 96v6q0 95 -59.5 147t-168.5 52q-115 0 -183 -50t-90 -127l-394 32q44 210 218.5 333t450.5 123q171 0 320 -54t240.5 -168.5t91.5 -297.5v-1036h-404v213h-12
q-56 -107 -167.5 -174.5t-281.5 -67.5zM730 265q140 0 230 81.5t90 202.5v163q-25 -17 -77.5 -30t-112 -22.5t-106.5 -16.5q-112 -16 -180.5 -63t-68.5 -137q0 -88 63.5 -133t161.5 -45zM1323 1670zM1323 1670zM838 1670.47q-94 0 -162 55.6436q-68 55.6445 -68 133.633
q0 77.9893 68 133.195t162 55.2061q95 0 163 -55.2061t68 -133.195q0 -77.9883 -68 -133.633q-68 -55.6436 -163 -55.6436zM1323 2184.38zM1323 2382.12v-197.74h-974v197.74h974z" />
    <glyph glyph-name="uni01E2" unicode="&#x1e2;" horiz-adv-x="2901" 
d="M67 0zM67 0l877 2048h1790v-357h-947v-488h876v-357h-876v-489h951v-357h-1384v467h-619l-192 -467h-476zM875 805h479v817h-143zM2331 2560v-231h-974v231h974z" />
    <glyph glyph-name="uni01E3" unicode="&#x1e3;" horiz-adv-x="2573" 
d="M98 0zM1786 -30q-189 0 -337 72.5t-223 208.5h-11q-61 -129 -224 -204.5t-359 -75.5q-238 0 -386 115.5t-148 342.5q0 171 81 269t213 144t283 60q201 20 286.5 42.5t85.5 95.5v6q0 95 -59.5 147t-168.5 52q-114 0 -183 -50t-90 -127l-394 32q45 210 219 333t457 123
q126 0 247.5 -43.5t190.5 -156.5q177 200 476 200q204 0 367.5 -86t259.5 -259.5t96 -434.5v-117h-1047v-1q0 -171 94.5 -270.5t253.5 -99.5q107 0 185 45t111 133l393 -26q-45 -214 -226.5 -342t-442.5 -128zM730 265q140 0 230 81.5t90 202.5v163q-25 -17 -77.5 -30
t-112 -22.5t-106.5 -16.5q-112 -16 -180.5 -63t-68.5 -137q0 -88 63.5 -133t161.5 -45zM1418 923h646q-1 137 -88.5 226t-225.5 89q-142 0 -233 -92.5t-99 -222.5zM1744 2048v-231h-974v231h974z" />
    <glyph glyph-name="uni01E4" unicode="&#x1e4;" horiz-adv-x="2142" 
d="M2090 662v-154h-148q-90 -255 -311 -395.5t-522 -140.5q-288 0 -506 127.5t-339.5 363t-121.5 559.5q0 332 127 568t344 361t487 125q232 0 420 -88t308 -243.5t148 -358.5h-440q-41 144 -151.5 225.5t-277.5 81.5q-235 0 -380.5 -173.5t-145.5 -493.5q0 -321 143 -496
t387 -175q253 0 378 153h-351v154h426q13 51 14 108h-440v326h857v-258q0 -91 -14 -176h109z" />
    <glyph glyph-name="uni01E5" unicode="&#x1e5;" horiz-adv-x="1783" 
d="M113 0zM862 -598q-310 0 -487 122t-215 296l394 53q26 -62 101.5 -113.5t216.5 -51.5q139 0 229.5 66t90.5 217v281h-18q-42 -95 -148 -172.5t-290 -77.5q-173 0 -314.5 81t-225 247t-83.5 421q0 262 85.5 436t227 261.5t309.5 87.5q129 0 216 -43.5t141 -107.5t82 -127
h16v258h423v-1551q0 -191 -96.5 -321t-265.5 -196t-389 -66zM871 342q154 0 238.5 114t84.5 317q0 202 -84 323t-239 121q-158 0 -240.5 -124t-82.5 -320q0 -199 83 -315t240 -116zM900 660v251h998v-251h-998z" />
    <glyph glyph-name="uni01E6" unicode="&#x1e6;" horiz-adv-x="2142" 
d="M142 0zM1536 1386q-41 144 -151.5 225.5t-277.5 81.5q-235 0 -380.5 -173.5t-145.5 -493.5q0 -321 143 -496t387 -175q216 0 339.5 112.5t127.5 302.5h-440v326h857v-258q0 -269 -114 -463.5t-313.5 -298.5t-458.5 -104q-288 0 -506 127.5t-339.5 363t-121.5 559.5
q0 332 127 568t344 361t487 125q232 0 420 -88t308 -243.5t148 -358.5h-440zM890 2686l201 -244l201 244h363v-14l-406 -440h-317l-405 440v14h363z" />
    <glyph glyph-name="uni01E7" unicode="&#x1e7;" horiz-adv-x="1783" 
d="M113 0zM862 -598q-310 0 -487 122t-215 296l394 53q26 -62 101.5 -113.5t216.5 -51.5q139 0 229.5 66t90.5 217v281h-18q-42 -95 -148 -172.5t-290 -77.5q-173 0 -314.5 81t-225 247t-83.5 421q0 262 85.5 436t227 261.5t309.5 87.5q129 0 216 -43.5t141 -107.5t82 -127
h16v258h423v-1551q0 -191 -96.5 -321t-265.5 -196t-389 -66zM871 342q154 0 238.5 114t84.5 317q0 202 -84 323t-239 121q-158 0 -240.5 -124t-82.5 -320q0 -199 83 -315t240 -116zM671 2174l201 -244l201 244h363v-14l-406 -440h-317l-405 440v14h363z" />
    <glyph glyph-name="uni01E8" unicode="&#x1e8;" horiz-adv-x="1942" 
d="M178 0zM178 0v2048h433v-903h27l737 903h519l-760 -917l769 -1131h-518l-561 842l-213 -260v-582h-433zM768 2686l201 -244l201 244h363v-14l-406 -440h-317l-405 440v14h363z" />
    <glyph glyph-name="uni01E9" unicode="&#x1e9;" horiz-adv-x="1638" 
d="M0 0zM170 0v2048h426v-1095h23l492 583h489l-570 -665l599 -871h-499l-419 619l-115 -131v-488h-426zM183 2686l201 -244l201 244h363v-14l-406 -440h-317l-405 440v14h363z" />
    <glyph glyph-name="uni01EA" unicode="&#x1ea;" horiz-adv-x="2202" 
d="M142 0zM2060 1024q0 -335 -126.5 -570t-343.5 -358.5t-489 -123.5q-273 0 -490 124t-343 359.5t-126 568.5q0 335 126 570t343 358.5t490 123.5q272 0 489 -123.5t343.5 -358.5t126.5 -570zM1621 1024q0 326 -142 497.5t-378 171.5t-378 -171.5t-142 -497.5
q0 -325 142 -497t378 -172t378 172t142 497zM1155 -572q-133 0 -222.5 68.5t-112.5 195.5q-24 122 28.5 244t184.5 181l317 -115q-94 -44 -154 -95t-59 -123q-2 -100 97 -100q34 0 59.5 8.5t45.5 15.5l44 -220q-37 -21 -94 -40.5t-134 -19.5z" />
    <glyph glyph-name="uni01EB" unicode="&#x1eb;" horiz-adv-x="1728" 
d="M108 0zM864 -30q-233 0 -402.5 99.5t-261.5 278t-92 414.5q0 238 92 416.5t261.5 278t402.5 99.5t402.5 -99.5t261.5 -278t92 -416.5q0 -236 -92 -414.5t-261.5 -278t-402.5 -99.5zM866 300q158 0 239.5 132t81.5 333t-81.5 333.5t-239.5 132.5q-161 0 -243 -132.5
t-82 -333.5t82 -333t243 -132zM904 -574q-133 0 -222.5 68.5t-112.5 195.5q-24 122 28.5 244t184.5 181l317 -115q-94 -44 -154 -95t-59 -123q-2 -100 97 -100q34 0 59.5 8.5t45.5 15.5l44 -220q-37 -21 -94 -40.5t-134 -19.5z" />
    <glyph glyph-name="uni01EC" unicode="&#x1ec;" horiz-adv-x="2202" 
d="M142 0zM2060 1024q0 -335 -126.5 -570t-343.5 -358.5t-489 -123.5q-273 0 -490 124t-343 359.5t-126 568.5q0 335 126 570t343 358.5t490 123.5q272 0 489 -123.5t343.5 -358.5t126.5 -570zM1621 1024q0 326 -142 497.5t-378 171.5t-378 -171.5t-142 -497.5
q0 -325 142 -497t378 -172t378 172t142 497zM1155 -572q-133 0 -222.5 68.5t-112.5 195.5q-24 122 28.5 244t184.5 181l317 -115q-94 -44 -154 -95t-59 -123q-2 -100 97 -100q34 0 59.5 8.5t45.5 15.5l44 -220q-37 -21 -94 -40.5t-134 -19.5zM1588 2560v-231h-974v231h974z
" />
    <glyph glyph-name="uni01ED" unicode="&#x1ed;" horiz-adv-x="1728" 
d="M108 0zM864 -30q-233 0 -402.5 99.5t-261.5 278t-92 414.5q0 238 92 416.5t261.5 278t402.5 99.5t402.5 -99.5t261.5 -278t92 -416.5q0 -236 -92 -414.5t-261.5 -278t-402.5 -99.5zM866 300q158 0 239.5 132t81.5 333t-81.5 333.5t-239.5 132.5q-161 0 -243 -132.5
t-82 -333.5t82 -333t243 -132zM904 -574q-133 0 -222.5 68.5t-112.5 195.5q-24 122 28.5 244t184.5 181l317 -115q-94 -44 -154 -95t-59 -123q-2 -100 97 -100q34 0 59.5 8.5t45.5 15.5l44 -220q-37 -21 -94 -40.5t-134 -19.5zM1351 2048v-231h-974v231h974z" />
    <glyph glyph-name="uni01EE" unicode="&#x1ee;" horiz-adv-x="1932" 
d="M100 0zM100 180h437q6 -111 68.5 -194.5t157.5 -130t199 -46.5q138 0 231.5 77t141 198t47.5 251q0 147 -61.5 262.5t-172.5 182t-258 66.5h-222v314l571 509v16h-1025v363h1564v-312l-667 -594v-20q244 -21 403 -140t237.5 -295.5t78.5 -372.5q0 -238 -107 -436
t-302.5 -316.5t-462.5 -118.5q-234 0 -426.5 94t-308.5 260t-123 383zM766 2686l201 -244l201 244h363v-14l-406 -440h-317l-405 440v14h363z" />
    <glyph glyph-name="uni01EF" unicode="&#x1ef;" horiz-adv-x="1847" 
d="M134 0zM134 0zM134 -512zM134 67h437q8 -115 106 -182.5t237 -67.5q149 0 243 76t94 207q0 127 -97 211t-288 84h-221v301l454 472v14h-862v354h1394v-312l-550 -556v-16q216 -21 353 -107.5t202.5 -211.5t65.5 -262q0 -182 -103.5 -319.5t-281.5 -214.5t-404 -77
q-225 0 -398.5 76t-274 212.5t-106.5 318.5zM722 2174l201 -244l201 244h363v-14l-406 -440h-317l-405 440v14h363z" />
    <glyph glyph-name="uni01F0" unicode="&#x1f0;" horiz-adv-x="766" 
d="M0 0zM170 1536h426v-1607q0 -267 -156 -387t-433 -113q-17 0 -35.5 0.5t-43.5 1.5v333q17 -1 30 -1.5t26 -0.5q103 0 144.5 43.5t41.5 130.5v1600zM182 2174l201 -244l201 244h363v-14l-406 -440h-317l-405 440v14h363z" />
    <glyph glyph-name="uni01F1" unicode="&#x1f1;" horiz-adv-x="3926" 
d="M178 0zM904 0h-726v2048h732q309 0 532.5 -122.5t343.5 -351.5t120 -548q0 -320 -120.5 -550t-345 -353t-536.5 -123zM611 371h275q289 0 438.5 156t149.5 499q0 341 -149.5 496t-437.5 155h-276v-1306zM2204 0v257l1022 1434h-1024v357h1568v-257l-1023 -1434h1025v-357
h-1568z" />
    <glyph glyph-name="uni01F2" unicode="&#x1f2;" horiz-adv-x="3658" 
d="M178 0zM904 0h-726v2048h732q309 0 532.5 -122.5t343.5 -351.5t120 -548q0 -320 -120.5 -550t-345 -353t-536.5 -123zM611 371h275q289 0 438.5 156t149.5 499q0 341 -149.5 496t-437.5 155h-276v-1306zM2210 0v254l752 931v11h-726v340h1239v-277l-706 -908v-11h732
v-340h-1291z" />
    <glyph glyph-name="uni01F4" unicode="&#x1f4;" horiz-adv-x="2142" 
d="M142 0zM1536 1386q-41 144 -151.5 225.5t-277.5 81.5q-235 0 -380.5 -173.5t-145.5 -493.5q0 -321 143 -496t387 -175q216 0 339.5 112.5t127.5 302.5h-440v326h857v-258q0 -269 -114 -463.5t-313.5 -298.5t-458.5 -104q-288 0 -506 127.5t-339.5 363t-121.5 559.5
q0 332 127 568t344 361t487 125q232 0 420 -88t308 -243.5t148 -358.5h-440zM937 2246l213 455h393l-305 -455h-301z" />
    <glyph glyph-name="uni01F5" unicode="&#x1f5;" horiz-adv-x="1783" 
d="M113 0zM862 -598q-310 0 -487 122t-215 296l394 53q26 -62 101.5 -113.5t216.5 -51.5q139 0 229.5 66t90.5 217v281h-18q-42 -95 -148 -172.5t-290 -77.5q-173 0 -314.5 81t-225 247t-83.5 421q0 262 85.5 436t227 261.5t309.5 87.5q129 0 216 -43.5t141 -107.5t82 -127
h16v258h423v-1551q0 -191 -96.5 -321t-265.5 -196t-389 -66zM871 342q154 0 238.5 114t84.5 317q0 202 -84 323t-239 121q-158 0 -240.5 -124t-82.5 -320q0 -199 83 -315t240 -116zM719 1734l213 455h393l-305 -455h-301z" />
    <glyph glyph-name="uni01F6" unicode="&#x1f6;" horiz-adv-x="3162" 
d="M2243 -28q-345 0 -549 188.5t-204 528.5v157h-879v-846h-433v2048h433v-845h879v845h432v-1359q0 -173 85 -262.5t236 -89.5t233.5 89.5t82.5 262.5v806h433v-806q0 -343 -202.5 -530t-546.5 -187z" />
    <glyph glyph-name="uni01F7" unicode="&#x1f7;" horiz-adv-x="2107" 
d="M670 2004v-46q70 34 157.5 54t186.5 20q261 0 454.5 -102t301 -299.5t107.5 -482.5v-72q0 -282 -142.5 -528t-412 -438.5t-652.5 -312.5v-369h-435v2576h435zM670 158q383 146 572 389t190 529v76q0 139 -32 259.5t-122 195.5t-264 75q-103 0 -191 -38.5t-153 -104.5
v-1381z" />
    <glyph glyph-name="uni01F8" unicode="&#x1f8;" horiz-adv-x="2070" 
d="M178 0zM1891 2048v-2048h-374l-891 1289h-15v-1289h-433v2048h380l884 -1288h18v1288h431zM1189 2246h-301l-305 455h393z" />
    <glyph glyph-name="uni01F9" unicode="&#x1f9;" 
d="M170 0zM596 888v-888h-426v1536h406v-271h18q52 134 171.5 212.5t290.5 78.5q240 0 385 -154.5t145 -423.5v-978h-426v902q1 141 -72 220.5t-201 79.5q-129 0 -209.5 -82.5t-81.5 -231.5zM1030 1734h-301l-305 455h393z" />
    <glyph glyph-name="uni01FA" unicode="&#x1fa;" horiz-adv-x="2106" 
d="M67 0zM531 0h-464l707 2048h558l706 -2048h-464l-152 467h-739zM793 805h520l-252 775h-16zM1052 2153q-103 0 -177.5 71t-74.5 170q0 100 74.5 171t177.5 71q107 0 180 -71t73 -171q0 -99 -73 -170t-180 -71zM907 2731l272 289h375l-386 -289h-261zM1052 2298
q42 0 70.5 28.5t28.5 67.5q0 36 -28.5 64t-70.5 28q-40 0 -69 -28t-29 -64q0 -39 29 -67.5t69 -28.5z" />
    <glyph glyph-name="uni01FB" unicode="&#x1fb;" horiz-adv-x="1634" 
d="M98 0zM608 -29q-220 0 -365 115t-145 343q0 172 81 270t212.5 143.5t283.5 59.5q200 20 286 42t86 96v6q0 95 -59.5 147t-168.5 52q-115 0 -183 -50t-90 -127l-394 32q44 210 218.5 333t450.5 123q171 0 320 -54t240.5 -168.5t91.5 -297.5v-1036h-404v213h-12
q-56 -107 -167.5 -174.5t-281.5 -67.5zM730 265q140 0 230 81.5t90 202.5v163q-25 -17 -77.5 -30t-112 -22.5t-106.5 -16.5q-112 -16 -180.5 -63t-68.5 -137q0 -88 63.5 -133t161.5 -45zM836 1641q-103 0 -177.5 71t-74.5 170q0 100 74.5 171t177.5 71q107 0 180 -71
t73 -171q0 -99 -73 -170t-180 -71zM691 2219l272 289h375l-386 -289h-261zM836 1786q42 0 70.5 28.5t28.5 67.5q0 36 -28.5 64t-70.5 28q-40 0 -69 -28t-29 -64q0 -39 29 -67.5t69 -28.5z" />
    <glyph glyph-name="uni01FC" unicode="&#x1fc;" horiz-adv-x="2901" 
d="M67 0zM67 0l877 2048h1790v-357h-947v-488h876v-357h-876v-489h951v-357h-1384v467h-619l-192 -467h-476zM875 805h479v817h-143zM1691 2246l213 455h393l-305 -455h-301z" />
    <glyph glyph-name="uni01FD" unicode="&#x1fd;" horiz-adv-x="2573" 
d="M98 0zM1786 -30q-189 0 -337 72.5t-223 208.5h-11q-61 -129 -224 -204.5t-359 -75.5q-238 0 -386 115.5t-148 342.5q0 171 81 269t213 144t283 60q201 20 286.5 42.5t85.5 95.5v6q0 95 -59.5 147t-168.5 52q-114 0 -183 -50t-90 -127l-394 32q45 210 219 333t457 123
q126 0 247.5 -43.5t190.5 -156.5q177 200 476 200q204 0 367.5 -86t259.5 -259.5t96 -434.5v-117h-1047v-1q0 -171 94.5 -270.5t253.5 -99.5q107 0 185 45t111 133l393 -26q-45 -214 -226.5 -342t-442.5 -128zM730 265q140 0 230 81.5t90 202.5v163q-25 -17 -77.5 -30
t-112 -22.5t-106.5 -16.5q-112 -16 -180.5 -63t-68.5 -137q0 -88 63.5 -133t161.5 -45zM1418 923h646q-1 137 -88.5 226t-225.5 89q-142 0 -233 -92.5t-99 -222.5zM1104 1734l213 455h393l-305 -455h-301z" />
    <glyph glyph-name="uni01FE" unicode="&#x1fe;" horiz-adv-x="2202" 
d="M142 0zM463 -98l-195 132l149 214q-129 135 -202 330.5t-73 445.5q0 335 126 570t343 358.5t490 123.5q279 0 498 -129l136 195l195 -132l-146 -209q129 -135 202.5 -330.5t73.5 -446.5q0 -335 -126.5 -570t-343.5 -358.5t-489 -123.5q-280 0 -499 129zM1621 1024
q0 250 -88 415l-703 -1010q115 -74 271 -74q236 0 378 172t142 497zM669 610l702 1009q-115 74 -270 74q-236 0 -378 -171.5t-142 -497.5q0 -249 88 -414zM947 2246l213 455h393l-305 -455h-301z" />
    <glyph glyph-name="uni01FF" unicode="&#x1ff;" horiz-adv-x="1733" 
d="M108 0zM409 -98l-195 132l102 147q-100 105 -154 252t-54 327q0 238 92 416.5t261.5 278t402.5 99.5q197 0 354 -74l99 142l197 -132l-103 -148q101 -105 155 -253t54 -329q0 -236 -92 -414.5t-261.5 -278t-402.5 -99.5q-199 0 -356 76zM570 546l445 642q-65 41 -149 41
q-161 0 -243 -132.5t-82 -333.5q0 -121 29 -217zM866 298q158 0 239.5 132t81.5 333q0 120 -29 216l-445 -639q67 -42 153 -42zM711 1732l213 455h393l-305 -455h-301z" />
    <glyph glyph-name="uni0200" unicode="&#x200;" horiz-adv-x="2106" 
d="M67 0zM531 0h-464l707 2048h558l706 -2048h-464l-152 467h-739zM793 805h520l-252 775h-16zM1003 2253h-346l-410 364h411zM1492 2253h-340l-345 364h404z" />
    <glyph glyph-name="uni0201" unicode="&#x201;" horiz-adv-x="1634" 
d="M31 0zM608 -29q-220 0 -365 115t-145 343q0 172 81 270t212.5 143.5t283.5 59.5q200 20 286 42t86 96v6q0 95 -59.5 147t-168.5 52q-115 0 -183 -50t-90 -127l-394 32q44 210 218.5 333t450.5 123q171 0 320 -54t240.5 -168.5t91.5 -297.5v-1036h-404v213h-12
q-56 -107 -167.5 -174.5t-281.5 -67.5zM730 265q140 0 230 81.5t90 202.5v163q-25 -17 -77.5 -30t-112 -22.5t-106.5 -16.5q-112 -16 -180.5 -63t-68.5 -137q0 -88 63.5 -133t161.5 -45zM787 1741h-346l-410 364h411zM1276 1741h-340l-345 364h404z" />
    <glyph glyph-name="uni0202" unicode="&#x202;" horiz-adv-x="2106" 
d="M67 0zM531 0h-464l707 2048h558l706 -2048h-464l-152 467h-739zM793 805h520l-252 775h-16zM557 2288q-1 182 132.5 298.5t362.5 116.5q227 0 361 -116.5t135 -298.5h-296q-1 70 -47 124t-153 54q-109 0 -154 -54.5t-44 -123.5h-297z" />
    <glyph glyph-name="uni0203" unicode="&#x203;" horiz-adv-x="1634" 
d="M98 0zM608 -29q-220 0 -365 115t-145 343q0 172 81 270t212.5 143.5t283.5 59.5q200 20 286 42t86 96v6q0 95 -59.5 147t-168.5 52q-115 0 -183 -50t-90 -127l-394 32q44 210 218.5 333t450.5 123q171 0 320 -54t240.5 -168.5t91.5 -297.5v-1036h-404v213h-12
q-56 -107 -167.5 -174.5t-281.5 -67.5zM730 265q140 0 230 81.5t90 202.5v163q-25 -17 -77.5 -30t-112 -22.5t-106.5 -16.5q-112 -16 -180.5 -63t-68.5 -137q0 -88 63.5 -133t161.5 -45zM341 1776q-1 182 132.5 298.5t362.5 116.5q227 0 361 -116.5t135 -298.5h-296
q-1 70 -47 124t-153 54q-109 0 -154 -54.5t-44 -123.5h-297z" />
    <glyph glyph-name="uni0204" unicode="&#x204;" horiz-adv-x="1725" 
d="M65 0zM178 0v2048h1380v-357h-947v-488h876v-357h-876v-489h951v-357h-1384zM821 2253h-346l-410 364h411zM1310 2253h-340l-345 364h404z" />
    <glyph glyph-name="uni0205" unicode="&#x205;" horiz-adv-x="1683" 
d="M37 0zM870 -30q-236 0 -407 96.5t-263 274t-92 420.5q0 237 92 416t259.5 279t393.5 100q203 0 366.5 -86t259.5 -259.5t96 -434.5v-117h-1046v-1q0 -172 94 -271t254 -99q107 0 185 45t110 133l394 -26q-45 -214 -228 -342t-468 -128zM529 923h645q-1 137 -88 226
t-226 89q-142 0 -233 -92t-98 -223zM793 1741h-346l-410 364h411zM1282 1741h-340l-345 364h404z" />
    <glyph glyph-name="uni0206" unicode="&#x206;" horiz-adv-x="1725" 
d="M178 0zM178 0v2048h1380v-357h-947v-488h876v-357h-876v-489h951v-357h-1384zM375 2288q-1 182 132.5 298.5t362.5 116.5q227 0 361 -116.5t135 -298.5h-296q-1 70 -47 124t-153 54q-109 0 -154 -54.5t-44 -123.5h-297z" />
    <glyph glyph-name="uni0207" unicode="&#x207;" horiz-adv-x="1683" 
d="M108 0zM870 -30q-236 0 -407 96.5t-263 274t-92 420.5q0 237 92 416t259.5 279t393.5 100q203 0 366.5 -86t259.5 -259.5t96 -434.5v-117h-1046v-1q0 -172 94 -271t254 -99q107 0 185 45t110 133l394 -26q-45 -214 -228 -342t-468 -128zM529 923h645q-1 137 -88 226
t-226 89q-142 0 -233 -92t-98 -223zM347 1776q-1 182 132.5 298.5t362.5 116.5q227 0 361 -116.5t135 -298.5h-296q-1 70 -47 124t-153 54q-109 0 -154 -54.5t-44 -123.5h-297z" />
    <glyph glyph-name="uni0208" unicode="&#x208;" horiz-adv-x="790" 
d="M0 0zM611 2048v-2048h-433v2048h433zM346 2253h-346l-410 364h411zM835 2253h-340l-345 364h404z" />
    <glyph glyph-name="uni0209" unicode="&#x209;" horiz-adv-x="766" 
d="M0 0zM170 0v1536h426v-1536h-426zM334 1741h-346l-410 364h411zM823 1741h-340l-345 364h404z" />
    <glyph glyph-name="uni020A" unicode="&#x20a;" horiz-adv-x="790" 
d="M0 0zM611 2048v-2048h-433v2048h433zM-100 2288q-1 182 132.5 298.5t362.5 116.5q227 0 361 -116.5t135 -298.5h-296q-1 70 -47 124t-153 54q-109 0 -154 -54.5t-44 -123.5h-297z" />
    <glyph glyph-name="uni020B" unicode="&#x20b;" horiz-adv-x="766" 
d="M0 0zM170 0v1536h426v-1536h-426zM-112 1776q-1 182 132.5 298.5t362.5 116.5q227 0 361 -116.5t135 -298.5h-296q-1 70 -47 124t-153 54q-109 0 -154 -54.5t-44 -123.5h-297z" />
    <glyph glyph-name="uni020C" unicode="&#x20c;" horiz-adv-x="2202" 
d="M142 0zM2060 1024q0 -335 -126.5 -570t-343.5 -358.5t-489 -123.5q-273 0 -490 124t-343 359.5t-126 568.5q0 335 126 570t343 358.5t490 123.5q272 0 489 -123.5t343.5 -358.5t126.5 -570zM1621 1024q0 326 -142 497.5t-378 171.5t-378 -171.5t-142 -497.5
q0 -325 142 -497t378 -172t378 172t142 497zM1051 2253h-346l-410 364h411zM1540 2253h-340l-345 364h404z" />
    <glyph glyph-name="uni020D" unicode="&#x20d;" horiz-adv-x="1728" 
d="M58 0zM864 -30q-233 0 -402.5 99.5t-261.5 278t-92 414.5q0 238 92 416.5t261.5 278t402.5 99.5t402.5 -99.5t261.5 -278t92 -416.5q0 -236 -92 -414.5t-261.5 -278t-402.5 -99.5zM866 300q158 0 239.5 132t81.5 333t-81.5 333.5t-239.5 132.5q-161 0 -243 -132.5
t-82 -333.5t82 -333t243 -132zM814 1741h-346l-410 364h411zM1303 1741h-340l-345 364h404z" />
    <glyph glyph-name="uni020E" unicode="&#x20e;" horiz-adv-x="2202" 
d="M142 0zM2060 1024q0 -335 -126.5 -570t-343.5 -358.5t-489 -123.5q-273 0 -490 124t-343 359.5t-126 568.5q0 335 126 570t343 358.5t490 123.5q272 0 489 -123.5t343.5 -358.5t126.5 -570zM1621 1024q0 326 -142 497.5t-378 171.5t-378 -171.5t-142 -497.5
q0 -325 142 -497t378 -172t378 172t142 497zM605 2288q-1 182 132.5 298.5t362.5 116.5q227 0 361 -116.5t135 -298.5h-296q-1 70 -47 124t-153 54q-109 0 -154 -54.5t-44 -123.5h-297z" />
    <glyph glyph-name="uni020F" unicode="&#x20f;" horiz-adv-x="1728" 
d="M108 0zM864 -30q-233 0 -402.5 99.5t-261.5 278t-92 414.5q0 238 92 416.5t261.5 278t402.5 99.5t402.5 -99.5t261.5 -278t92 -416.5q0 -236 -92 -414.5t-261.5 -278t-402.5 -99.5zM866 300q158 0 239.5 132t81.5 333t-81.5 333.5t-239.5 132.5q-161 0 -243 -132.5
t-82 -333.5t82 -333t243 -132zM368 1776q-1 182 132.5 298.5t362.5 116.5q227 0 361 -116.5t135 -298.5h-296q-1 70 -47 124t-153 54q-109 0 -154 -54.5t-44 -123.5h-297z" />
    <glyph glyph-name="uni0210" unicode="&#x210;" horiz-adv-x="1848" 
d="M106 0zM178 0v2048h808q349 0 541.5 -182t192.5 -487q0 -210 -93.5 -359t-268.5 -224l435 -796h-478l-388 726h-316v-726h-433zM611 1074h294q369 0 369 305q0 315 -371 315h-292v-620zM862 2253h-346l-410 364h411zM1351 2253h-340l-345 364h404z" />
    <glyph glyph-name="uni0211" unicode="&#x211;" horiz-adv-x="1207" 
d="M0 0zM170 0v1536h413v-268h16q42 143 140.5 216.5t228.5 73.5q62 0 115 -15t95 -41l-128 -352q-30 15 -65.5 25.5t-79.5 10.5q-129 0 -218.5 -88t-90.5 -229v-869h-426zM583 1741h-346l-410 364h411zM1072 1741h-340l-345 364h404z" />
    <glyph glyph-name="uni0212" unicode="&#x212;" horiz-adv-x="1848" 
d="M178 0zM178 0v2048h808q349 0 541.5 -182t192.5 -487q0 -210 -93.5 -359t-268.5 -224l435 -796h-478l-388 726h-316v-726h-433zM611 1074h294q369 0 369 305q0 315 -371 315h-292v-620zM416 2288q-1 182 132.5 298.5t362.5 116.5q227 0 361 -116.5t135 -298.5h-296
q-1 70 -47 124t-153 54q-109 0 -154 -54.5t-44 -123.5h-297z" />
    <glyph glyph-name="uni0213" unicode="&#x213;" horiz-adv-x="1207" 
d="M155 0zM170 0v1536h413v-268h16q42 143 140.5 216.5t228.5 73.5q62 0 115 -15t95 -41l-128 -352q-30 15 -65.5 25.5t-79.5 10.5q-129 0 -218.5 -88t-90.5 -229v-869h-426zM156 1776q-1 182 132.5 298.5t362.5 116.5q227 0 361 -116.5t135 -298.5h-296q-1 70 -47 124
t-153 54q-109 0 -154 -54.5t-44 -123.5h-297z" />
    <glyph glyph-name="uni0214" unicode="&#x214;" horiz-adv-x="2054" 
d="M178 0zM1446 2048h430v-1354q0 -232 -109 -393.5t-300.5 -245.5t-439.5 -84t-440 84t-300.5 245.5t-108.5 393.5v1354h433v-1339q0 -164 118.5 -258t297.5 -94q182 0 300.5 94t118.5 258v1339zM977 2253h-346l-410 364h411zM1466 2253h-340l-345 364h404z" />
    <glyph glyph-name="uni0215" unicode="&#x215;" 
d="M72 0zM1155 654v882h426v-1536h-409v279h-16q-52 -135 -172.5 -217t-293.5 -82q-232 0 -375.5 154.5t-144.5 423.5v978h426v-902q1 -136 73 -215t193 -79q115 0 204.5 80t88.5 234zM828 1741h-346l-410 364h411zM1317 1741h-340l-345 364h404z" />
    <glyph glyph-name="uni0216" unicode="&#x216;" horiz-adv-x="2054" 
d="M178 0zM1446 2048h430v-1354q0 -232 -109 -393.5t-300.5 -245.5t-439.5 -84t-440 84t-300.5 245.5t-108.5 393.5v1354h433v-1339q0 -164 118.5 -258t297.5 -94q182 0 300.5 94t118.5 258v1339zM531 2288q-1 182 132.5 298.5t362.5 116.5q227 0 361 -116.5t135 -298.5
h-296q-1 70 -47 124t-153 54q-109 0 -154 -54.5t-44 -123.5h-297z" />
    <glyph glyph-name="uni0217" unicode="&#x217;" 
d="M170 0zM1155 654v882h426v-1536h-409v279h-16q-52 -135 -172.5 -217t-293.5 -82q-232 0 -375.5 154.5t-144.5 423.5v978h426v-902q1 -136 73 -215t193 -79q115 0 204.5 80t88.5 234zM381 1776q-1 182 132.5 298.5t362.5 116.5q227 0 361 -116.5t135 -298.5h-296
q-1 70 -47 124t-153 54q-109 0 -154 -54.5t-44 -123.5h-297z" />
    <glyph glyph-name="uni0218" unicode="&#x218;" horiz-adv-x="1844" 
d="M112 0zM1289 1459q-12 121 -103.5 188t-246.5 67q-159 0 -244 -65t-85 -164q-2 -110 94.5 -166.5t229.5 -87.5l184 -44q178 -40 316.5 -116t218 -195.5t79.5 -290.5q-1 -281 -210.5 -447.5t-584.5 -166.5q-373 0 -595 170t-230 502h419q11 -154 121.5 -231.5t279.5 -77.5
q165 0 263.5 70t99.5 182q-1 104 -91 160t-257 96l-223 56q-259 62 -409 197t-149 361q-1 186 99.5 325.5t276.5 217t400 77.5q228 0 398.5 -78t265.5 -217t98 -322h-415zM1089 -133v-213q0 -164 -45.5 -308t-147.5 -252l-227 103q1 1 2 4q46 95 77.5 186.5t30.5 243.5v236
h310z" />
    <glyph glyph-name="uni0219" unicode="&#x219;" horiz-adv-x="1582" 
d="M102 0zM1448 1098l-390 -24q-16 74 -81 127t-176 53q-99 0 -167.5 -41.5t-67.5 -110.5q-1 -55 43.5 -93t151.5 -61l278 -56q443 -91 444 -416q0 -151 -88.5 -265t-242.5 -177.5t-353 -63.5q-305 0 -486 127.5t-211 347.5l419 22q20 -94 92.5 -142t186.5 -48
q112 0 180.5 44t69.5 112q-3 114 -197 153l-266 53q-446 89 -444 439q-1 222 177.5 350t473.5 128q291 0 458.5 -123t195.5 -335zM961 -119v-213q0 -164 -45.5 -308t-147.5 -252l-227 103q1 1 2 4q46 95 77.5 186.5t30.5 243.5v236h310z" />
    <glyph glyph-name="uni021A" unicode="&#x21a;" horiz-adv-x="1882" 
d="M100 0zM100 1691v357h1682v-357h-627v-1691h-428v1691h-627zM1101 -119v-213q0 -164 -45.5 -308t-147.5 -252l-227 103q1 1 2 4q46 95 77.5 186.5t30.5 243.5v236h310z" />
    <glyph glyph-name="uni021B" unicode="&#x21b;" horiz-adv-x="1094" 
d="M62 0zM987 1536v-320h-289v-744q0 -88 40 -119t104 -31q30 0 60 5.5t46 8.5l67 -317q-32 -10 -90 -23.5t-141 -16.5q-232 -10 -372.5 100.5t-139.5 336.5v800h-210v320h210v368h426v-368h289zM725 -119v-213q0 -164 -45.5 -308t-147.5 -252l-227 103q1 1 2 4
q46 95 77.5 186.5t30.5 243.5v236h310z" />
    <glyph glyph-name="uni021C" unicode="&#x21c;" horiz-adv-x="1886" 
d="M326 418v325q351 104 553 195t286.5 200t84.5 266q0 122 -77 199t-257 77q-121 0 -213.5 -56.5t-92.5 -164.5h-435q0 182 104 309.5t273 194.5t364 67q347 0 557 -145.5t210 -424.5q0 -162 -58 -295t-170 -243q122 -66 190 -179.5t68 -268.5q0 -231 -103 -412
t-290.5 -314t-440.5 -219.5t-553 -128.5v346q464 89 707 272.5t243 464.5q0 100 -25.5 155.5t-75.5 81.5q-165 -91 -378.5 -165t-470.5 -137z" />
    <glyph glyph-name="uni021D" unicode="&#x21d;" horiz-adv-x="1623" 
d="M338 214v302q314 100 491 216t178 288q-1 76 -41 129t-155 53q-98 0 -160 -36.5t-61 -107.5h-420q-1 143 82.5 245.5t224.5 157.5t310 55q292 0 465.5 -111.5t174.5 -324.5q-1 -250 -184 -437q101 -55 156.5 -151t55.5 -234q0 -226 -137 -394t-387.5 -282.5
t-592.5 -181.5v310q236 80 390 158.5t229.5 177.5t75.5 240q-1 102 -46 170q-127 -70 -289.5 -130t-359.5 -112z" />
    <glyph glyph-name="uni021E" unicode="&#x21e;" horiz-adv-x="2101" 
d="M178 0zM178 0v2048h433v-845h879v845h432v-2048h-432v846h-879v-846h-433zM854 2688l201 -244l201 244h363v-14l-406 -440h-317l-405 440v14h363z" />
    <glyph glyph-name="uni021F" unicode="&#x21f;" horiz-adv-x="1758" 
d="M0 0zM596 888v-888h-426v2048h414v-783h18q53 136 168.5 213.5t290.5 77.5q240 0 386 -154t145 -424v-978h-426v902q1 142 -71.5 221t-202.5 79t-212.5 -82.5t-83.5 -231.5zM178 2686l201 -244l201 244h363v-14l-406 -440h-317l-405 440v14h363z" />
    <glyph glyph-name="uni0220" unicode="&#x220;" horiz-adv-x="1891" 
d="M1705 -572h-425v1986q-1 133 -75.5 207.5t-244.5 74.5q-183 0 -349 -103v-1593h-421v2004h421v-70q85 44 184.5 71t212.5 27q194 0 351.5 -72.5t251.5 -210.5t94 -335v-1986z" />
    <glyph glyph-name="uni0221" unicode="&#x221;" horiz-adv-x="2022" 
d="M741 -25q-175 0 -316 90.5t-224 267t-83 433.5q0 264 85.5 439.5t227 263t309.5 87.5q129 0 215.5 -43.5t140 -107.5t81.5 -127h13v770h425v-1886q57 7 117 7q247 0 383 -108t135 -280q1 -164 -127 -260.5t-377 -96.5q-190 0 -308 57t-179 152l-246 -198l-186 255
l355 287v269h-5q-29 -64 -84 -126.5t-141.5 -103.5t-210.5 -41zM876 314q154 0 238.5 124.5t84.5 329.5q0 206 -84 327.5t-239 121.5q-158 0 -240.5 -124.5t-82.5 -324.5q0 -201 83 -327.5t240 -126.5zM1610 -117v-49q1 -81 44 -118.5t101 -37.5q56 0 93 31.5t36 80.5
q1 51 -35.5 86.5t-112.5 36.5q-54 3 -126 -30z" />
    <glyph glyph-name="uni0222" unicode="&#x222;" horiz-adv-x="1889" 
d="M925 1316h39q158 0 249.5 45t92.5 164q-1 80 -44 116t-123 55v336q177 -1 314.5 -55.5t216 -166.5t78.5 -285q0 -141 -63.5 -240.5t-173.5 -160.5q108 -79 170 -199t62 -284q0 -217 -101.5 -366t-278 -226t-401.5 -77h-30q-226 0 -404 76.5t-280 225t-102 363.5
q0 165 62 286.5t171 199.5q-109 62 -171 161t-62 241q-1 260 169 383t437 124v-336q-82 -19 -123.5 -55t-40.5 -116q-1 -113 85 -161t252 -48zM962 962h-30q-160 0 -252.5 -85.5t-91.5 -239.5q-1 -148 90 -233.5t254 -85.5h30q163 0 250.5 86t88.5 237q-1 147 -88.5 234
t-250.5 87z" />
    <glyph glyph-name="uni0223" unicode="&#x223;" horiz-adv-x="1886" 
d="M962 1285q165 0 258.5 63t93.5 217q0 110 -50 169t-127 84v322q261 -1 428 -144t167 -424q0 -166 -62 -279t-172 -181q110 -76 172 -195t62 -286q0 -215 -100 -362t-274.5 -222t-398.5 -75h-29q-225 0 -400 75t-275.5 221.5t-100.5 361.5q0 168 62 287.5t172 194.5
q-109 69 -171.5 181.5t-62.5 278.5q0 278 166.5 422.5t429.5 145.5v-322q-77 -25 -125 -84t-48 -169q0 -156 92.5 -218t255.5 -62h37zM959 950h-29q-166 0 -259.5 -86t-93.5 -234t93.5 -234t259.5 -86h29q168 0 259.5 86t91.5 235q0 147 -91.5 233t-259.5 86z" />
    <glyph glyph-name="uni0224" unicode="&#x224;" horiz-adv-x="1878" 
d="M1193 0h-1037v257l1032 1434h-1034v357h1568v-257l-1032 -1434h503q270 0 416 -141t145 -386v-182h-356v105q1 98 -38.5 172.5t-166.5 74.5z" />
    <glyph glyph-name="uni0225" unicode="&#x225;" horiz-adv-x="1599" 
d="M1151 -373v103q0 63 -15 125t-59.5 103.5t-133.5 41.5h-779v250l734 948h-714v338h1242v-248l-733 -950h250q271 0 416.5 -142t145.5 -387v-182h-354z" />
    <glyph glyph-name="uni0226" unicode="&#x226;" horiz-adv-x="2106" 
d="M67 0zM531 0h-464l707 2048h558l706 -2048h-464l-152 467h-739zM793 805h520l-252 775h-16zM1052 2246q-94 0 -162 63.5t-68 152.5t68 152t162 63q95 0 163 -63t68 -152t-68 -152.5t-163 -63.5z" />
    <glyph glyph-name="uni0227" unicode="&#x227;" horiz-adv-x="1634" 
d="M98 0zM608 -29q-220 0 -365 115t-145 343q0 172 81 270t212.5 143.5t283.5 59.5q200 20 286 42t86 96v6q0 95 -59.5 147t-168.5 52q-115 0 -183 -50t-90 -127l-394 32q44 210 218.5 333t450.5 123q171 0 320 -54t240.5 -168.5t91.5 -297.5v-1036h-404v213h-12
q-56 -107 -167.5 -174.5t-281.5 -67.5zM730 265q140 0 230 81.5t90 202.5v163q-25 -17 -77.5 -30t-112 -22.5t-106.5 -16.5q-112 -16 -180.5 -63t-68.5 -137q0 -88 63.5 -133t161.5 -45zM836 1734q-94 0 -162 63.5t-68 152.5t68 152t162 63q95 0 163 -63t68 -152t-68 -152.5
t-163 -63.5z" />
    <glyph glyph-name="uni0228" unicode="&#x228;" horiz-adv-x="1725" 
d="M178 0zM178 0v2048h1380v-357h-947v-488h876v-357h-876v-489h951v-357h-1384zM768 8h196l-16 -87q103 -16 168.5 -77t66.5 -166q1 -149 -138 -237.5t-390 -88.5l-4 190q126 0 198 30.5t74 94.5q2 62 -47 93.5t-153 44.5z" />
    <glyph glyph-name="uni0229" unicode="&#x229;" horiz-adv-x="1683" 
d="M108 0zM870 -30q-236 0 -407 96.5t-263 274t-92 420.5q0 237 92 416t259.5 279t393.5 100q203 0 366.5 -86t259.5 -259.5t96 -434.5v-117h-1046v-1q0 -172 94 -271t254 -99q107 0 185 45t110 133l394 -26q-45 -214 -228 -342t-468 -128zM529 923h645q-1 137 -88 226
t-226 89q-142 0 -233 -92t-98 -223zM750 8h196l-16 -87q103 -16 168.5 -77t66.5 -166q1 -149 -138 -237.5t-390 -88.5l-4 190q126 0 198 30.5t74 94.5q2 62 -47 93.5t-153 44.5z" />
    <glyph glyph-name="uni022A" unicode="&#x22a;" horiz-adv-x="2202" 
d="M142 0zM2060 1024q0 -335 -126.5 -570t-343.5 -358.5t-489 -123.5q-273 0 -490 124t-343 359.5t-126 568.5q0 335 126 570t343 358.5t490 123.5q272 0 489 -123.5t343.5 -358.5t126.5 -570zM1621 1024q0 326 -142 497.5t-378 171.5t-378 -171.5t-142 -497.5
q0 -325 142 -497t378 -172t378 172t142 497zM1617 2258zM1617 2258zM797 2258q-86 0 -148 60.5t-62 143.5q0 85 62 144t148 59q87 0 147.5 -59t60.5 -144q0 -83 -60.5 -143.5t-147.5 -60.5zM1409 2258q-86 0 -148 60.5t-62 143.5q0 85 62 144t148 59q87 0 147.5 -59
t60.5 -144q0 -83 -60.5 -143.5t-147.5 -60.5zM1588 2841zM1588 3072v-231h-974v231h974z" />
    <glyph glyph-name="uni022B" unicode="&#x22b;" horiz-adv-x="1728" 
d="M108 0zM864 -30q-233 0 -402.5 99.5t-261.5 278t-92 414.5q0 238 92 416.5t261.5 278t402.5 99.5t402.5 -99.5t261.5 -278t92 -416.5q0 -236 -92 -414.5t-261.5 -278t-402.5 -99.5zM866 300q158 0 239.5 132t81.5 333t-81.5 333.5t-239.5 132.5q-161 0 -243 -132.5
t-82 -333.5t82 -333t243 -132zM1380 1746zM1380 1746zM1380 1746zM560 1746q-86 0 -148 60.5t-62 143.5q0 85 62 144t148 59q87 0 147.5 -59t60.5 -144q0 -83 -60.5 -143.5t-147.5 -60.5zM1172 1746q-86 0 -148 60.5t-62 143.5q0 85 62 144t148 59q87 0 147.5 -59t60.5 -144
q0 -83 -60.5 -143.5t-147.5 -60.5zM1351 2329zM1351 2560v-231h-974v231h974z" />
    <glyph glyph-name="uni022C" unicode="&#x22c;" horiz-adv-x="2202" 
d="M142 0zM2060 1024q0 -335 -126.5 -570t-343.5 -358.5t-489 -123.5q-273 0 -490 124t-343 359.5t-126 568.5q0 335 126 570t343 358.5t490 123.5q272 0 489 -123.5t343.5 -358.5t126.5 -570zM1621 1024q0 326 -142 497.5t-378 171.5t-378 -171.5t-142 -497.5
q0 -325 142 -497t378 -172t378 172t142 497zM1590 2938v-234h-978v234h978zM1344 2571l175 -49q-1 -98 -67 -173.5t-168 -75.5q-75 0 -126.5 23t-98 46t-107.5 23q-38 0 -65 -35.5t-27 -83.5l-172 48q-1 98 63 175t165 77q62 0 115.5 -22.5t106 -45.5t110.5 -23
q38 0 66.5 33.5t29.5 82.5z" />
    <glyph glyph-name="uni022D" unicode="&#x22d;" horiz-adv-x="1728" 
d="M108 0zM864 -30q-233 0 -402.5 99.5t-261.5 278t-92 414.5q0 238 92 416.5t261.5 278t402.5 99.5t402.5 -99.5t261.5 -278t92 -416.5q0 -236 -92 -414.5t-261.5 -278t-402.5 -99.5zM866 300q158 0 239.5 132t81.5 333t-81.5 333.5t-239.5 132.5q-161 0 -243 -132.5
t-82 -333.5t82 -333t243 -132zM1157 2128l244 -13q0 -102 -42.5 -186.5t-116 -135t-167.5 -50.5q-89 0 -148 30t-113 59.5t-129 29.5q-46 0 -80 -33t-35 -95l-242 13q0 96 41.5 180.5t114 136.5t165.5 52q76 0 137 -29t121 -58t130 -29q49 0 84.5 32.5t35.5 95.5zM1356 2526
v-235h-979v235h979z" />
    <glyph glyph-name="uni022E" unicode="&#x22e;" horiz-adv-x="2202" 
d="M142 0zM2060 1024q0 -335 -126.5 -570t-343.5 -358.5t-489 -123.5q-273 0 -490 124t-343 359.5t-126 568.5q0 335 126 570t343 358.5t490 123.5q272 0 489 -123.5t343.5 -358.5t126.5 -570zM1621 1024q0 326 -142 497.5t-378 171.5t-378 -171.5t-142 -497.5
q0 -325 142 -497t378 -172t378 172t142 497zM1100 2246q-94 0 -162 63.5t-68 152.5t68 152t162 63q95 0 163 -63t68 -152t-68 -152.5t-163 -63.5z" />
    <glyph glyph-name="uni022F" unicode="&#x22f;" horiz-adv-x="1728" 
d="M108 0zM864 -30q-233 0 -402.5 99.5t-261.5 278t-92 414.5q0 238 92 416.5t261.5 278t402.5 99.5t402.5 -99.5t261.5 -278t92 -416.5q0 -236 -92 -414.5t-261.5 -278t-402.5 -99.5zM866 300q158 0 239.5 132t81.5 333t-81.5 333.5t-239.5 132.5q-161 0 -243 -132.5
t-82 -333.5t82 -333t243 -132zM864 1734q-94 0 -162 63.5t-68 152.5t68 152t162 63q95 0 163 -63t68 -152t-68 -152.5t-163 -63.5z" />
    <glyph glyph-name="uni0230" unicode="&#x230;" horiz-adv-x="2202" 
d="M142 0zM2060 1024q0 -335 -126.5 -570t-343.5 -358.5t-489 -123.5q-273 0 -490 124t-343 359.5t-126 568.5q0 335 126 570t343 358.5t490 123.5q272 0 489 -123.5t343.5 -358.5t126.5 -570zM1621 1024q0 326 -142 497.5t-378 171.5t-378 -171.5t-142 -497.5
q0 -325 142 -497t378 -172t378 172t142 497zM1586 2265zM1101 2265.47q-94 0 -162 55.6436q-68 55.6445 -68 133.633q0 77.9893 68 133.195t162 55.2061q95 0 163 -55.2061t68 -133.195q0 -77.9883 -68 -133.633q-68 -55.6436 -163 -55.6436zM1586 2779.38zM1586 2977.12
v-197.74h-974v197.74h974z" />
    <glyph glyph-name="uni0231" unicode="&#x231;" horiz-adv-x="1728" 
d="M108 0zM864 -30q-233 0 -402.5 99.5t-261.5 278t-92 414.5q0 238 92 416.5t261.5 278t402.5 99.5t402.5 -99.5t261.5 -278t92 -416.5q0 -236 -92 -414.5t-261.5 -278t-402.5 -99.5zM866 300q158 0 239.5 132t81.5 333t-81.5 333.5t-239.5 132.5q-161 0 -243 -132.5
t-82 -333.5t82 -333t243 -132zM1350 1670zM1350 1670zM865 1670.47q-94 0 -162 55.6436q-68 55.6445 -68 133.633q0 77.9893 68 133.195t162 55.2061q95 0 163 -55.2061t68 -133.195q0 -77.9883 -68 -133.633q-68 -55.6436 -163 -55.6436zM1350 2184.38zM1350 2382.12
v-197.74h-974v197.74h974z" />
    <glyph glyph-name="uni0232" unicode="&#x232;" horiz-adv-x="2040" 
d="M58 0zM58 2048h485l467 -882h20l467 882h485l-747 -1324v-724h-430v724zM1507 2560v-231h-974v231h974z" />
    <glyph glyph-name="uni0233" unicode="&#x233;" horiz-adv-x="1650" 
d="M48 0zM418 -598q-91 0 -155.5 15.5t-100.5 31.5l96 330q113 -34 190.5 -18t122.5 121l28 74l-551 1580h448l318 -1128h16l321 1128h451l-600 -1712q-65 -184 -207.5 -303t-376.5 -119zM1309 2048v-231h-974v231h974z" />
    <glyph glyph-name="uni0234" unicode="&#x234;" horiz-adv-x="1187" 
d="M572 2048v-1846q93 24 170 24q124 0 217.5 -53t146.5 -141t53 -194q0 -105 -55.5 -200t-156.5 -154.5t-240 -59.5q-140 0 -274.5 66.5t-212.5 198.5l-243 -206l-210 240l223 188q76 54 156 102v2035h426zM572 -87v-40q-1 -71 34.5 -115t105.5 -44q44 0 74 34.5t31 80.5
q-1 36 -32 70t-85 34q-65 0 -128 -20z" />
    <glyph glyph-name="uni0235" unicode="&#x235;" horiz-adv-x="2258" 
d="M596 888v-888h-426v1536h406v-271h18q52 134 171.5 212.5t290.5 78.5q240 0 385 -154.5t145 -423.5v-586q35 3 70.5 3.5t72.5 0.5q126 0 226 -52.5t159 -144.5t59 -213q0 -181 -135.5 -297t-369.5 -117q-166 -1 -294 69t-181 208l-164 -184l-212 189l223 246
q60 69 120 121v681q1 141 -72 220.5t-201 79.5q-129 0 -209.5 -82.5t-81.5 -231.5zM1586 11q0 -57 37.5 -93t92.5 -36q53 0 83.5 34.5t30.5 91.5q0 58 -37.5 90t-93.5 33q-48 1 -113 -14v-106z" />
    <glyph glyph-name="uni0236" unicode="&#x236;" horiz-adv-x="1491" 
d="M390 1904h426v-368h290v-320h-290v-468q88 22 170 22q194 0 307 -109.5t113 -273.5q0 -98 -46.5 -194.5t-152.5 -160.5t-285 -64q-143 0 -271.5 55.5t-198.5 182.5q-100 -87 -202 -196l-188 236q165 173 328 291v679h-210v320h210v368zM816 447v-59q0 -55 38.5 -92.5
t96.5 -37.5q47 0 80 30.5t33 84.5q0 43 -29 73.5t-91 30.5q-54 0 -128 -30z" />
    <glyph glyph-name="uni0237" unicode="&#x237;" horiz-adv-x="766" 
d="M170 1536h426v-1607q0 -267 -156 -387t-433 -113q-17 0 -35.5 0.5t-43.5 1.5v333q17 -1 30 -1.5t26 -0.5q103 0 144.5 43.5t41.5 130.5v1600z" />
    <glyph glyph-name="uni0238" unicode="&#x238;" horiz-adv-x="2678" 
d="M2516 758v-28q0 -222 -65.5 -393t-197 -268t-331.5 -97q-120 0 -211 42t-159 117v-131h-382l-19 159q-71 -87 -168 -137t-224 -50q-188 0 -321.5 98.5t-203.5 269.5t-70 388v28q0 225 70 396.5t204 267.5t325 96q116 0 207 -42.5t160 -119.5v758h422v-755
q67 75 157.5 117t208.5 42q201 0 333.5 -98t198.5 -269t66 -391zM2098 730v28q0 110 -22.5 206t-84.5 156t-179 60q-100 0 -162.5 -39t-97.5 -105v-582q34 -68 97 -107t167 -39q114 0 175 54.5t84 150t23 217.5zM586 756v-28q0 -111 25.5 -206.5t87.5 -153.5t169 -58
q98 0 161.5 41.5t100.5 114.5v561q-37 73 -100.5 113t-159.5 40q-156 0 -220 -121t-64 -303z" />
    <glyph glyph-name="uni0239" unicode="&#x239;" horiz-adv-x="2678" 
d="M1130 -572v701q-67 -74 -158 -115.5t-210 -41.5q-192 0 -325.5 99t-203 270.5t-69.5 388.5v28q0 225 69.5 396t203.5 266.5t328 95.5q129 0 225 -48.5t165 -134.5l25 155h341l16 -144q68 82 162.5 127t218.5 45q293 0 444.5 -207t151.5 -546v-33q0 -216 -68 -387.5
t-200 -271t-324 -99.5q-119 0 -210.5 42.5t-159.5 116.5v-703h-422zM2097 730v33q0 179 -66 298t-223 119q-98 0 -159.5 -36t-96.5 -101v-591q35 -65 97 -103.5t163 -38.5q106 0 168.5 57.5t89.5 153t27 209.5zM586 758v-28q0 -102 24.5 -198.5t86.5 -159t174 -62.5
q102 0 163.5 40t95.5 104v590q-36 66 -98 101.5t-159 35.5q-157 0 -222 -121.5t-65 -301.5z" />
    <glyph glyph-name="uni023A" unicode="&#x23a;" horiz-adv-x="2106" 
d="M1718 2308l-230 -712l550 -1596h-464l-152 467h-299l-235 -727h-262l235 727h-178l-152 -467h-464l707 2048h558l21 -61l104 321h261zM971 805l170 528l-80 247h-16l-252 -775h178zM1272 929l-40 -124h81z" />
    <glyph glyph-name="uni023B" unicode="&#x23b;" horiz-adv-x="2118" 
d="M519 -260l111 343q-223 119 -355.5 358t-132.5 583q0 335 126 570t342 358.5t486 123.5q90 0 175 -13l79 245h261l-101 -313q194 -86 320 -254.5t155 -409.5h-438q-27 181 -162 279l-401 -1243q57 -12 119 -12q173 0 293 90.5t151 254.5l438 -2q-23 -188 -134 -354
t-301.5 -269t-453.5 -103q-121 0 -232 25l-83 -257h-262zM761 487l389 1204q-21 2 -44 2q-238 0 -381.5 -174.5t-143.5 -494.5q0 -184 47.5 -319t132.5 -218z" />
    <glyph glyph-name="uni023C" unicode="&#x23c;" horiz-adv-x="1658" 
d="M1414 2048l-195 -568q148 -72 235 -204t96 -308h-402q-13 85 -55 145l-275 -802q24 -4 51 -4q110 0 185 66.5t94 189.5h402q-10 -176 -95.5 -310t-235.5 -208.5t-355 -74.5q-83 0 -159 13l-192 -559h-245l217 632q-181 95 -279 279t-98 427q0 236 91.5 414.5t260.5 279
t402 100.5q70 0 135 -9l172 501h245zM886 1224h-17q-148 0 -238 -119t-90 -337q0 -202 77 -323z" />
    <glyph glyph-name="uni023D" unicode="&#x23d;" horiz-adv-x="1598" 
d="M0 0zM178 0v2048h433v-1691h878v-357h-1311zM-107 954v251h998v-251h-998z" />
    <glyph glyph-name="uni023E" unicode="&#x23e;" horiz-adv-x="1882" 
d="M430 -260l297 919v1032h-627v357h1076l84 260h262l-84 -260h344v-357h-460l-167 -517v-1174h-380l-84 -260h-261z" />
    <glyph glyph-name="uni023F" unicode="&#x23f;" horiz-adv-x="1587" 
d="M1448 1098l-390 -24q-16 74 -81 127t-176 53q-99 0 -167.5 -41.5t-67.5 -110.5q-1 -55 43.5 -93t151.5 -61l278 -56q443 -91 444 -416q0 -151 -88.5 -265t-242.5 -177.5t-353 -63.5q-61 0 -118 5q63 -109 106.5 -165t80 -75.5t78.5 -19.5q85 0 148.5 36t109.5 75
l128 -223q-69 -59 -169 -119t-231 -60q-124 0 -215.5 55.5t-159.5 144t-125 185.5l-224 385q-86 106 -106 251l419 22q20 -94 92.5 -142t186.5 -48q112 0 180.5 44t69.5 112q-3 114 -197 153l-266 53q-446 89 -444 439q-1 222 177.5 350t473.5 128q291 0 458.5 -123
t195.5 -335z" />
    <glyph glyph-name="uni0240" unicode="&#x240;" horiz-adv-x="1785" 
d="M693 338h29q148 0 246.5 -57t166.5 -140.5t121.5 -167t109.5 -140.5t132 -57q65 0 126 38t96 67l140 -278q-69 -64 -168.5 -121.5t-231.5 -57.5t-219.5 58t-153 144t-128 172t-142 144t-198.5 58h-455v250l734 948h-714v338h1242v-248z" />
    <glyph glyph-name="uni0241" unicode="&#x241;" horiz-adv-x="1621" 
d="M635 706h149q114 0 174 52.5t82.5 142t22.5 201.5v172q0 86 -19 178.5t-78.5 157t-181.5 64.5q-124 0 -187.5 -71.5t-64.5 -178.5h-417q1 184 87.5 320.5t236.5 212t338 75.5q235 0 397 -100.5t246.5 -272t85.5 -385.5v-172q-1 -257 -124.5 -451.5t-359.5 -265.5v-385
h-440v706h53z" />
    <glyph glyph-name="uni0242" unicode="&#x242;" horiz-adv-x="1623" 
d="M178 947q0 158 75.5 287t215.5 205.5t333 76.5q224 0 366 -77.5t210 -207.5t68 -287q-1 -208 -112.5 -332t-304.5 -156v-456h-423v674h157q105 0 161.5 38t78.5 98.5t22 127.5q-1 98 -46 170.5t-177 72.5q-91 0 -147 -62.5t-55 -171.5h-422z" />
    <glyph glyph-name="uni0243" unicode="&#x243;" horiz-adv-x="2038" 
d="M61 0zM356 0v2048h820q339 0 509.5 -147.5t170.5 -377.5q0 -181 -105 -292.5t-265 -147.5v-20q117 -5 219.5 -66t166.5 -170t64 -261q0 -163 -80.5 -291t-237.5 -201.5t-387 -73.5h-875zM789 354h353q182 0 264.5 70t82.5 185q0 127 -90.5 208t-246.5 81h-363v-544z
M789 1191h321q133 0 221 69.5t88 190.5q0 111 -78.5 179t-222.5 68h-329v-507zM61 501v251h998v-251h-998z" />
    <glyph glyph-name="uni0244" unicode="&#x244;" horiz-adv-x="2141" 
d="M2154 1164v-248h-228v-222q0 -232 -109 -393.5t-300.5 -245.5t-439.5 -84t-440 84t-300.5 245.5t-108.5 393.5v222h-241v248h241v884h433v-884h835v884h430v-884h228zM1496 916h-835v-207q0 -164 118.5 -258t297.5 -94q182 0 300.5 94t118.5 258v207z" />
    <glyph glyph-name="uni0245" unicode="&#x245;" horiz-adv-x="2147" 
d="M1531 0l-458 1488l-458 -1488h-485l714 2004h457l715 -2004h-485z" />
    <glyph glyph-name="uni0246" unicode="&#x246;" horiz-adv-x="1725" 
d="M1412 2308l-75 -260h221v-357h-324l-140 -488h393v-357h-496l-141 -489h712v-357h-815l-75 -260h-228l75 260h-341v2048h931l75 260h228zM1006 1691h-395v-488h255zM763 846h-152v-489h11z" />
    <glyph glyph-name="uni0247" unicode="&#x247;" horiz-adv-x="1693" 
d="M1414 2048l-198 -576q163 -86 261 -259.5t98 -436.5v-117h-638l-126 -366q32 -5 66 -5q107 0 185 45t110 133l394 -26q-45 -214 -228 -342t-468 -128q-86 0 -165 13l-192 -559h-245l217 631q-180 92 -278.5 273.5t-98.5 432.5q0 237 92 416t259.5 279t393.5 100
q74 0 143 -11l173 503h245zM783 923l107 314q-15 1 -30 1q-142 0 -233 -92t-98 -223h254zM692 659h-163v-1q0 -154 77 -251zM1100 1134l-72 -211h146q-1 125 -74 211z" />
    <glyph glyph-name="uni0248" unicode="&#x248;" horiz-adv-x="1605" 
d="M65 0zM998 2048h428v-1428q0 -198 -88.5 -343.5t-245.5 -225t-365 -79.5q-185 0 -335.5 66t-238.5 200t-87 338h431q2 -122 70.5 -189.5t181.5 -67.5q247 0 249 301v1428zM708 1097v251h998v-251h-998z" />
    <glyph glyph-name="uni0249" unicode="&#x249;" horiz-adv-x="766" 
d="M0 0zM0 0zM170 1536h426v-1607q0 -267 -156 -387t-433 -113q-17 0 -35.5 0.5t-43.5 1.5v333q17 -1 30 -1.5t26 -0.5q103 0 144.5 43.5t41.5 130.5v1600zM-118 805v251h998v-251h-998zM382 1734q-94 0 -162 63.5t-68 152.5t68 152t162 63q95 0 163 -63t68 -152t-68 -152.5
t-163 -63.5z" />
    <glyph glyph-name="uni024A" unicode="&#x24a;" horiz-adv-x="2335" 
d="M2016 2048v-2142q0 -90 65.5 -120.5t148.5 -30.5q27 0 53.5 2.5t51.5 5.5v-325q-37 -5 -92.5 -9.5t-127.5 -4.5q-145 0 -264.5 42t-190 147t-70.5 293v396h-16q-75 -144 -221.5 -238t-352.5 -94q-187 0 -344 80t-272 224t-178.5 336t-63.5 417q0 223 64 414t180 333.5
t272.5 222t341.5 79.5q209 0 354.5 -93.5t219.5 -233.5h20v299h422zM1086 355q260 0 383 183.5t123 487.5q0 301 -126 485.5t-378 184.5q-238 0 -372 -181t-134 -489q0 -318 135.5 -494.5t368.5 -176.5z" />
    <glyph glyph-name="uni024B" unicode="&#x24b;" horiz-adv-x="1930" 
d="M1710 -576q-146 0 -265 42t-189.5 147t-70.5 293v340h-13q-29 -64 -84 -126.5t-141.5 -103.5t-210.5 -41q-175 0 -316 90.5t-224 267t-83 433.5q0 264 85.5 439.5t227 263t309.5 87.5q129 0 215.5 -43.5t140 -107.5t81.5 -127h18v258h420v-1630q0 -90 66.5 -120.5
t148.5 -30.5q26 0 52.5 2.5t52.5 5.5v-325q-36 -5 -93 -9.5t-127 -4.5zM871 314q154 0 238.5 124.5t84.5 329.5q0 206 -84 327.5t-239 121.5q-158 0 -240.5 -124.5t-82.5 -324.5q0 -201 83 -327.5t240 -126.5z" />
    <glyph glyph-name="uni024C" unicode="&#x24c;" horiz-adv-x="1903" 
d="M224 0v754h-202v325h202v969h808q349 0 541.5 -182t192.5 -487q0 -210 -93.5 -359t-268.5 -224l435 -796h-478l-388 726h-316v-726h-433zM657 1074h294q369 0 369 305q0 315 -371 315h-292v-620z" />
    <glyph glyph-name="uni024D" unicode="&#x24d;" horiz-adv-x="1207" 
d="M0 0zM170 0v1536h413v-268h16q42 143 140.5 216.5t228.5 73.5q62 0 115 -15t95 -41l-128 -352q-30 15 -65.5 25.5t-79.5 10.5q-129 0 -218.5 -88t-90.5 -229v-869h-426zM-116 617v251h998v-251h-998z" />
    <glyph glyph-name="uni024E" unicode="&#x24e;" horiz-adv-x="2043" 
d="M2018 1621v-222h-402l-381 -675v-724h-430v724l-381 675h-399v222h274l-241 427h485l226 -427h502l226 427h485l-241 -427h277zM887 1399l123 -233h20l123 233h-266z" />
    <glyph glyph-name="uni024F" unicode="&#x24f;" horiz-adv-x="1666" 
d="M1610 1036v-215h-245l-349 -997q-65 -184 -207.5 -303t-376.5 -119q-91 0 -155.5 15.5t-100.5 31.5l96 330q113 -34 190.5 -18t122.5 121l28 74l-302 865h-258v215h183l-174 500h448l141 -500h372l142 500h451l-175 -500h169zM962 821h-250l116 -413h16z" />
    <glyph glyph-name="uni02B2" horiz-adv-x="515" 
d="M105 2048h303v-1059q0 -183 -105 -266t-297 -79h-53l-3 242q11 -3 21.5 -3.5t18.5 -0.5q70 0 92.5 30t22.5 83v1053zM257 2162q-66 0 -116 46.5t-50 113.5q0 66 50 113.5t116 47.5q67 0 116 -47.5t49 -113.5t-49 -113t-116 -47z" />
    <glyph glyph-name="uni02BE" horiz-adv-x="568" 
d="M137 1569v126q58 0 93.5 37.5t36.5 97.5q-1 60 -36.5 97.5t-93.5 37.5v130q125 0 210 -76.5t86 -188.5q-1 -115 -86 -188t-210 -73z" />
    <glyph glyph-name="uni02C6" unicode="&#x2c6;" horiz-adv-x="1578" 
d="M225 1718zM588 1718l201 244l201 -244h363v14l-406 440h-317l-405 -440v-14h363z" />
    <glyph glyph-name="uni02C7" horiz-adv-x="1578" 
d="M588 2174l201 -244l201 244h363v-14l-406 -440h-317l-405 440v14h363z" />
    <glyph glyph-name="uni02D8" horiz-adv-x="1358" 
d="M877 2072h297q-1 -181 -134.5 -292.5t-360.5 -111.5t-360.5 111.5t-133.5 292.5h295q-1 -69 44.5 -124t154.5 -55q107 0 152.5 54.5t45.5 124.5z" />
    <glyph glyph-name="uni02D9" horiz-adv-x="821" 
d="M410 1734q-94 0 -162 63.5t-68 152.5t68 152t162 63q95 0 163 -63t68 -152t-68 -152.5t-163 -63.5z" />
    <glyph glyph-name="uni02DA" unicode="&#x2da;" horiz-adv-x="1082" 
d="M541 1701q-95 0 -173 44t-124 118.5t-46 165.5t46 166.5t124 121t173 45.5t172 -45.5t123 -121t46 -166.5t-46 -165.5t-123 -118.5t-172 -44zM541 1879q66 1 111 46t45 104q0 61 -45 107t-111 46q-67 -1 -111.5 -46.5t-44.5 -106.5q0 -59 44.5 -104.5t111.5 -45.5z" />
    <glyph glyph-name="uni02DB" horiz-adv-x="829" 
d="M470 -574q-133 0 -222.5 68.5t-112.5 195.5q-24 122 28.5 244t184.5 181l317 -115q-94 -44 -154 -95t-59 -123q-2 -100 97 -100q34 0 59.5 8.5t45.5 15.5l44 -220q-37 -21 -94 -40.5t-134 -19.5z" />
    <glyph glyph-name="uni02DC" unicode="&#x2dc;" horiz-adv-x="1408" 
d="M418 1725l-237 3q0 191 94.5 293t230.5 103q78 0 132 -28.5t99 -59.5q35 -25 67.5 -43.5t70.5 -18.5q58 1 88 43.5t31 111.5l233 -7q-1 -190 -95 -292t-230 -103q-84 0 -137 28.5t-95 59.5q-33 25 -65 43.5t-72 18.5q-52 0 -83.5 -41t-31.5 -111z" />
    <glyph glyph-name="uni02DD" horiz-adv-x="1304" 
d="M590 1698l317 414h360l-376 -414h-301zM77 1698l267 414h358l-327 -414h-298z" />
    <glyph glyph-name="uni02F3" horiz-adv-x="1062" 
d="M266 -312q0 98 77 166t191 68q109 0 186.5 -68t77.5 -166q0 -105 -77.5 -171t-186.5 -66q-114 0 -191 67t-77 170zM426 -312q0 -46 30.5 -74.5t77.5 -28.5q42 0 71.5 28.5t29.5 74.5q0 42 -29.5 70t-71.5 28q-47 0 -77.5 -28t-30.5 -70z" />
    <glyph glyph-name="uni0304" horiz-adv-x="0" 
d="M-414 1817zM-414 2048v-231h-974v231h974z" />
    <glyph glyph-name="uni0308" horiz-adv-x="31" 
d="M-403 1746zM-1223 1746q-86 0 -148 60.5t-62 143.5q0 85 62 144t148 59q87 0 147.5 -59t60.5 -144q0 -83 -60.5 -143.5t-147.5 -60.5zM-611 1746q-86 0 -148 60.5t-62 143.5q0 85 62 144t148 59q87 0 147.5 -59t60.5 -144q0 -83 -60.5 -143.5t-147.5 -60.5z" />
    <glyph glyph-name="uni0309" horiz-adv-x="36" 
d="M-779 1746h-316l-22 180q106 5 151 28.5t44 62.5q1 54 -56.5 73t-143.5 19l11 193q267 0 406.5 -72t138.5 -200q1 -91 -66 -137.5t-147 -58.5v-88z" />
    <glyph glyph-name="uni030F" horiz-adv-x="0" 
d="M-818 1724h-346l-410 364h411zM-329 1724h-340l-345 364h404z" />
    <glyph glyph-name="uni0311" horiz-adv-x="24" 
d="M-1397 1589q-1 182 132.5 298.5t362.5 116.5q227 0 361 -116.5t135 -298.5h-296q-1 70 -47 124t-153 54q-109 0 -154 -54.5t-44 -123.5h-297z" />
    <glyph glyph-name="uni0323" horiz-adv-x="0" 
d="M-544 -145zM-775 -576q-94 0 -162 63.5t-68 152.5t68 152t162 63q95 0 163 -63t68 -152t-68 -152.5t-163 -63.5z" />
    <glyph glyph-name="uni0324" horiz-adv-x="36" 
d="M-422 -145zM-1138 -145zM-1369 -576q-94 0 -162 63.5t-68 152.5t68 152t162 63q95 0 163 -63t68 -152t-68 -152.5t-163 -63.5zM-422 -145zM-653 -576q-94 0 -162 63.5t-68 152.5t68 152t162 63q95 0 163 -63t68 -152t-68 -152.5t-163 -63.5z" />
    <glyph glyph-name="uni032D" horiz-adv-x="0" 
d="M-313 -130zM-1441 -584zM-1078 -584l201 244l201 -244h363v14l-406 440h-317l-405 -440v-14h363z" />
    <glyph glyph-name="uni032E" horiz-adv-x="24" 
d="M-702 -115h294q-1 -179 -133.5 -297t-362.5 -118q-223 0 -358.5 115.5t-134.5 299.5h295q-1 -70 44.5 -125.5t154.5 -55.5q106 0 153 57t48 124z" />
    <glyph glyph-name="uni0330" horiz-adv-x="24" 
d="M-381 -145zM-1190 -549l-237 3q0 191 94.5 293t230.5 103q78 0 132 -28.5t99 -59.5q35 -25 67.5 -43.5t70.5 -18.5q58 1 88 43.5t31 111.5l233 -7q-1 -190 -95 -292t-230 -103q-84 0 -137 28.5t-95 59.5q-33 25 -65 43.5t-72 18.5q-52 0 -83.5 -41t-31.5 -111z" />
    <glyph glyph-name="uni0331" horiz-adv-x="0" 
d="M-364 -256zM-364 -256v-231h-974v231h974z" />
    <glyph glyph-name="uni03A3" horiz-adv-x="1894" 
d="M1678 357v-357h-1463v210l619 810l-619 808v212h1433v-359h-827l473 -650v-21l-475 -653h859z" />
    <glyph glyph-name="uni03B4" horiz-adv-x="1842" 
d="M365 1716q-1 212 156 331t430 119q108 0 186 -16.5t184 -45.5v-318q-55 17 -144 40.5t-184 23.5q-103 0 -166 -33.5t-62 -92.5q-1 -40 38.5 -85t176.5 -93q671 -225 671 -794v-28q0 -212 -86 -382.5t-248.5 -270t-391.5 -99.5q-233 0 -397 96t-250 261t-86 371v28
q0 155 60.5 282.5t161 213.5t219.5 116l-3 8q-118 62 -192 153t-73 215zM610 771v-23q0 -120 33 -220t103 -160.5t179 -60.5q107 0 175 60.5t101 161t33 219.5v23q0 88 -36.5 179t-105 159t-167.5 87q-107 0 -177 -59t-104 -156t-34 -210z" />
    <glyph glyph-name="uni03B7" 
d="M596 888v-888h-426v1536h406v-271h18q52 135 172 213t290 78q242 0 386 -154.5t144 -423.5v-1554h-426v1478q0 141 -72 220.5t-201 79.5q-128 0 -209.5 -82.5t-81.5 -231.5z" />
    <glyph glyph-name="uni0472" horiz-adv-x="2202" 
d="M2060 1024q0 -335 -126.5 -570t-343.5 -358.5t-489 -123.5q-273 0 -490 124t-343 359.5t-126 568.5q0 335 126 570t343 358.5t490 123.5q272 0 489 -123.5t343.5 -358.5t126.5 -570zM1101 355q204 0 339.5 129.5t169.5 377.5q-116 -42 -206.5 -46t-166.5 14t-149 41
q-104 33 -219 53t-282 -27q28 -264 165 -403t349 -139zM1614 1154q-28 263 -165 401t-348 138q-204 0 -339 -128.5t-170 -374.5q116 40 205.5 43.5t165 -14t148.5 -40.5q104 -34 220 -53.5t283 28.5z" />
    <glyph glyph-name="uni04E0" horiz-adv-x="1847" 
d="M134 0zM134 579h437q8 -115 106 -182.5t237 -67.5q149 0 243 76t94 207q0 127 -97 211t-288 84h-221v301l454 472v14h-862v354h1394v-312l-550 -556v-16q216 -21 353 -107.5t202.5 -211.5t65.5 -262q0 -182 -103.5 -319.5t-281.5 -214.5t-404 -77q-225 0 -398.5 76
t-274 212.5t-106.5 318.5z" />
    <glyph glyph-name="uni04E1" horiz-adv-x="1847" 
d="M134 0zM134 -512zM134 67h437q8 -115 106 -182.5t237 -67.5q149 0 243 76t94 207q0 127 -97 211t-288 84h-221v301l454 472v14h-862v354h1394v-312l-550 -556v-16q216 -21 353 -107.5t202.5 -211.5t65.5 -262q0 -182 -103.5 -319.5t-281.5 -214.5t-404 -77
q-225 0 -398.5 76t-274 212.5t-106.5 318.5z" />
    <glyph glyph-name="uni1E00" unicode="&#x1e00;" horiz-adv-x="2106" 
d="M67 0zM531 0h-464l707 2048h558l706 -2048h-464l-152 467h-739zM793 805h520l-252 775h-16zM776 -312q0 98 77 166t191 68q109 0 186.5 -68t77.5 -166q0 -105 -77.5 -171t-186.5 -66q-114 0 -191 67t-77 170zM936 -312q0 -46 30.5 -74.5t77.5 -28.5q42 0 71.5 28.5
t29.5 74.5q0 42 -29.5 70t-71.5 28q-47 0 -77.5 -28t-30.5 -70z" />
    <glyph glyph-name="uni1E01" unicode="&#x1e01;" horiz-adv-x="1634" 
d="M98 0zM608 -29q-220 0 -365 115t-145 343q0 172 81 270t212.5 143.5t283.5 59.5q200 20 286 42t86 96v6q0 95 -59.5 147t-168.5 52q-115 0 -183 -50t-90 -127l-394 32q44 210 218.5 333t450.5 123q171 0 320 -54t240.5 -168.5t91.5 -297.5v-1036h-404v213h-12
q-56 -107 -167.5 -174.5t-281.5 -67.5zM730 265q140 0 230 81.5t90 202.5v163q-25 -17 -77.5 -30t-112 -22.5t-106.5 -16.5q-112 -16 -180.5 -63t-68.5 -137q0 -88 63.5 -133t161.5 -45zM543 -312q0 98 77 166t191 68q109 0 186.5 -68t77.5 -166q0 -105 -77.5 -171
t-186.5 -66q-114 0 -191 67t-77 170zM703 -312q0 -46 30.5 -74.5t77.5 -28.5q42 0 71.5 28.5t29.5 74.5q0 42 -29.5 70t-71.5 28q-47 0 -77.5 -28t-30.5 -70z" />
    <glyph glyph-name="uni1E02" unicode="&#x1e02;" horiz-adv-x="1861" 
d="M178 0zM178 0v2048h820q339 0 509.5 -147.5t170.5 -377.5q0 -181 -105 -292.5t-265 -147.5v-20q117 -5 219.5 -66t166.5 -170t64 -261q0 -163 -80.5 -291t-237.5 -201.5t-387 -73.5h-875zM611 354h353q182 0 264.5 70t82.5 185q0 127 -90.5 208t-246.5 81h-363v-544z
M611 1191h321q133 0 221 69.5t88 190.5q0 111 -78.5 179t-222.5 68h-329v-507zM900 2246q-94 0 -162 63.5t-68 152.5t68 152t162 63q95 0 163 -63t68 -152t-68 -152.5t-163 -63.5z" />
    <glyph glyph-name="uni1E03" unicode="&#x1e03;" horiz-adv-x="1789" 
d="M178 0zM178 0v2048h426v-770h13q29 63 82 127t140 107.5t215 43.5q169 0 310 -87.5t226.5 -263t85.5 -439.5q0 -257 -83 -433.5t-224 -267t-316 -90.5q-124 0 -210.5 41t-141 103.5t-84.5 126.5h-19v-246h-420zM595 768q0 -205 84.5 -329.5t238.5 -124.5q157 0 240 126.5
t83 327.5q0 200 -82.5 324.5t-240.5 124.5q-155 0 -239 -121.5t-84 -327.5zM1064 1734q-94 0 -162 63.5t-68 152.5t68 152t162 63q95 0 163 -63t68 -152t-68 -152.5t-163 -63.5z" />
    <glyph glyph-name="uni1E04" unicode="&#x1e04;" horiz-adv-x="1861" 
d="M178 0zM178 0v2048h820q339 0 509.5 -147.5t170.5 -377.5q0 -181 -105 -292.5t-265 -147.5v-20q117 -5 219.5 -66t166.5 -170t64 -261q0 -163 -80.5 -291t-237.5 -201.5t-387 -73.5h-875zM611 354h353q182 0 264.5 70t82.5 185q0 127 -90.5 208t-246.5 81h-363v-544z
M611 1191h321q133 0 221 69.5t88 190.5q0 111 -78.5 179t-222.5 68h-329v-507zM1133 -145zM902 -576q-94 0 -162 63.5t-68 152.5t68 152t162 63q95 0 163 -63t68 -152t-68 -152.5t-163 -63.5z" />
    <glyph glyph-name="uni1E05" unicode="&#x1e05;" horiz-adv-x="1789" 
d="M178 0zM178 0v2048h426v-770h13q29 63 82 127t140 107.5t215 43.5q169 0 310 -87.5t226.5 -263t85.5 -439.5q0 -257 -83 -433.5t-224 -267t-316 -90.5q-124 0 -210.5 41t-141 103.5t-84.5 126.5h-19v-246h-420zM595 768q0 -205 84.5 -329.5t238.5 -124.5q157 0 240 126.5
t83 327.5q0 200 -82.5 324.5t-240.5 124.5q-155 0 -239 -121.5t-84 -327.5zM1130 -145zM899 -576q-94 0 -162 63.5t-68 152.5t68 152t162 63q95 0 163 -63t68 -152t-68 -152.5t-163 -63.5z" />
    <glyph glyph-name="uni1E06" unicode="&#x1e06;" horiz-adv-x="1861" 
d="M178 0zM178 0v2048h820q339 0 509.5 -147.5t170.5 -377.5q0 -181 -105 -292.5t-265 -147.5v-20q117 -5 219.5 -66t166.5 -170t64 -261q0 -163 -80.5 -291t-237.5 -201.5t-387 -73.5h-875zM611 354h353q182 0 264.5 70t82.5 185q0 127 -90.5 208t-246.5 81h-363v-544z
M611 1191h321q133 0 221 69.5t88 190.5q0 111 -78.5 179t-222.5 68h-329v-507zM1390 -256zM1390 -256v-231h-974v231h974z" />
    <glyph glyph-name="uni1E07" unicode="&#x1e07;" horiz-adv-x="1789" 
d="M178 0zM178 0v2048h426v-770h13q29 63 82 127t140 107.5t215 43.5q169 0 310 -87.5t226.5 -263t85.5 -439.5q0 -257 -83 -433.5t-224 -267t-316 -90.5q-124 0 -210.5 41t-141 103.5t-84.5 126.5h-19v-246h-420zM595 768q0 -205 84.5 -329.5t238.5 -124.5q157 0 240 126.5
t83 327.5q0 200 -82.5 324.5t-240.5 124.5q-155 0 -239 -121.5t-84 -327.5zM1387 -256zM1387 -256v-231h-974v231h974z" />
    <glyph glyph-name="uni1E08" unicode="&#x1e08;" horiz-adv-x="2118" 
d="M142 0zM1985 1331h-438q-25 169 -144 265.5t-297 96.5q-238 0 -381.5 -174.5t-143.5 -494.5q0 -328 144.5 -498.5t377.5 -170.5q173 0 293 90.5t151 254.5l438 -2q-23 -188 -134 -354t-301.5 -269t-453.5 -103q-274 0 -489.5 124t-340 359t-124.5 569q0 335 126 570
t342 358.5t486 123.5q237 0 427.5 -87.5t312 -254t149.5 -403.5zM989 6h196l-16 -87q103 -16 168.5 -77t66.5 -166q1 -149 -138 -237.5t-390 -88.5l-4 190q126 0 198 30.5t74 94.5q2 62 -47 93.5t-153 44.5zM943 2246l213 455h393l-305 -455h-301z" />
    <glyph glyph-name="uni1E09" unicode="&#x1e09;" horiz-adv-x="1654" 
d="M108 0zM864 -30q-236 0 -405.5 100.5t-260 279.5t-90.5 412q0 236 91.5 414.5t260.5 279t402 100.5q201 0 352.5 -73t239 -205t96.5 -310h-402q-17 115 -89.5 185.5t-189.5 70.5q-148 0 -238 -119t-90 -337q0 -220 89.5 -340.5t238.5 -120.5q110 0 185 66.5t94 189.5h402
q-10 -176 -95.5 -310t-235.5 -208.5t-355 -74.5zM764 8h196l-16 -87q103 -16 168.5 -77t66.5 -166q1 -149 -138 -237.5t-390 -88.5l-4 190q126 0 198 30.5t74 94.5q2 62 -47 93.5t-153 44.5zM710 1734l213 455h393l-305 -455h-301z" />
    <glyph glyph-name="uni1E0A" unicode="&#x1e0a;" horiz-adv-x="2048" 
d="M178 0zM904 0h-726v2048h732q309 0 532.5 -122.5t343.5 -351.5t120 -548q0 -320 -120.5 -550t-345 -353t-536.5 -123zM611 371h275q289 0 438.5 156t149.5 499q0 341 -149.5 496t-437.5 155h-276v-1306zM828 2246q-94 0 -162 63.5t-68 152.5t68 152t162 63q95 0 163 -63
t68 -152t-68 -152.5t-163 -63.5z" />
    <glyph glyph-name="uni1E0B" unicode="&#x1e0b;" horiz-adv-x="1789" 
d="M113 0zM736 -25q-175 0 -316 90.5t-224 267t-83 433.5q0 264 85.5 439.5t227 263t309.5 87.5q129 0 215.5 -43.5t140 -107.5t81.5 -127h13v770h425v-2048h-420v246h-18q-29 -64 -84 -126.5t-141.5 -103.5t-210.5 -41zM871 314q154 0 238.5 124.5t84.5 329.5
q0 206 -84 327.5t-239 121.5q-158 0 -240.5 -124.5t-82.5 -324.5q0 -201 83 -327.5t240 -126.5zM724 1734q-94 0 -162 63.5t-68 152.5t68 152t162 63q95 0 163 -63t68 -152t-68 -152.5t-163 -63.5z" />
    <glyph glyph-name="uni1E0C" unicode="&#x1e0c;" horiz-adv-x="2048" 
d="M178 0zM904 0h-726v2048h732q309 0 532.5 -122.5t343.5 -351.5t120 -548q0 -320 -120.5 -550t-345 -353t-536.5 -123zM611 371h275q289 0 438.5 156t149.5 499q0 341 -149.5 496t-437.5 155h-276v-1306zM1130 -145zM899 -576q-94 0 -162 63.5t-68 152.5t68 152t162 63
q95 0 163 -63t68 -152t-68 -152.5t-163 -63.5z" />
    <glyph glyph-name="uni1E0D" unicode="&#x1e0d;" horiz-adv-x="1789" 
d="M113 0zM736 -25q-175 0 -316 90.5t-224 267t-83 433.5q0 264 85.5 439.5t227 263t309.5 87.5q129 0 215.5 -43.5t140 -107.5t81.5 -127h13v770h425v-2048h-420v246h-18q-29 -64 -84 -126.5t-141.5 -103.5t-210.5 -41zM871 314q154 0 238.5 124.5t84.5 329.5
q0 206 -84 327.5t-239 121.5q-158 0 -240.5 -124.5t-82.5 -324.5q0 -201 83 -327.5t240 -126.5zM998 -145zM767 -576q-94 0 -162 63.5t-68 152.5t68 152t162 63q95 0 163 -63t68 -152t-68 -152.5t-163 -63.5z" />
    <glyph glyph-name="uni1E0E" unicode="&#x1e0e;" horiz-adv-x="2048" 
d="M178 0zM904 0h-726v2048h732q309 0 532.5 -122.5t343.5 -351.5t120 -548q0 -320 -120.5 -550t-345 -353t-536.5 -123zM611 371h275q289 0 438.5 156t149.5 499q0 341 -149.5 496t-437.5 155h-276v-1306zM1386 -256zM1386 -256v-231h-974v231h974z" />
    <glyph glyph-name="uni1E0F" unicode="&#x1e0f;" horiz-adv-x="1789" 
d="M113 0zM736 -25q-175 0 -316 90.5t-224 267t-83 433.5q0 264 85.5 439.5t227 263t309.5 87.5q129 0 215.5 -43.5t140 -107.5t81.5 -127h13v770h425v-2048h-420v246h-18q-29 -64 -84 -126.5t-141.5 -103.5t-210.5 -41zM871 314q154 0 238.5 124.5t84.5 329.5
q0 206 -84 327.5t-239 121.5q-158 0 -240.5 -124.5t-82.5 -324.5q0 -201 83 -327.5t240 -126.5zM1342 -256zM1342 -256v-231h-974v231h974z" />
    <glyph glyph-name="uni1E10" unicode="&#x1e10;" horiz-adv-x="2048" 
d="M178 0zM904 0h-726v2048h732q309 0 532.5 -122.5t343.5 -351.5t120 -548q0 -320 -120.5 -550t-345 -353t-536.5 -123zM611 371h275q289 0 438.5 156t149.5 499q0 341 -149.5 496t-437.5 155h-276v-1306zM1060 -119v-213q0 -164 -45.5 -308t-147.5 -252l-227 103q1 1 2 4
q46 95 77.5 186.5t30.5 243.5v236h310z" />
    <glyph glyph-name="uni1E11" unicode="&#x1e11;" horiz-adv-x="1789" 
d="M113 0zM736 -25q-175 0 -316 90.5t-224 267t-83 433.5q0 264 85.5 439.5t227 263t309.5 87.5q129 0 215.5 -43.5t140 -107.5t81.5 -127h13v770h425v-2048h-420v246h-18q-29 -64 -84 -126.5t-141.5 -103.5t-210.5 -41zM871 314q154 0 238.5 124.5t84.5 329.5
q0 206 -84 327.5t-239 121.5q-158 0 -240.5 -124.5t-82.5 -324.5q0 -201 83 -327.5t240 -126.5zM929 -119v-213q0 -164 -45.5 -308t-147.5 -252l-227 103q1 1 2 4q46 95 77.5 186.5t30.5 243.5v236h310z" />
    <glyph glyph-name="uni1E12" unicode="&#x1e12;" horiz-adv-x="2048" 
d="M178 0zM904 0h-726v2048h732q309 0 532.5 -122.5t343.5 -351.5t120 -548q0 -320 -120.5 -550t-345 -353t-536.5 -123zM611 371h275q289 0 438.5 156t149.5 499q0 341 -149.5 496t-437.5 155h-276v-1306zM1463 -130zM335 -584zM698 -584l201 244l201 -244h363v14l-406 440
h-317l-405 -440v-14h363z" />
    </font>
</defs>
</svg>
